M48
; DRILL file KiCad 10.0.4 date 2026-07-01T10:43:14
; FORMAT={-:-/ absolute / metric / decimal}
; #@! TF.CreationDate,2026-07-01T10:43:14-04:00
; #@! TF.GenerationSoftware,Kicad,Pcbnew,10.0.4
; #@! TF.FileFunction,Plated,1,2,PTH
FMAT,2
METRIC
; #@! TA.AperFunction,Plated,PTH,ComponentDrill
T1C0.200
; #@! TA.AperFunction,Plated,PTH,ViaDrill
T2C0.300
; #@! TA.AperFunction,Plated,PTH,ComponentDrill
T3C0.500
%
G90
G05
T1
X134.98Y-86.47
X134.98Y-87.97
X135.73Y-85.72
X135.73Y-87.22
X135.73Y-88.72
X136.48Y-86.47
X136.48Y-87.97
X137.23Y-85.72
X137.23Y-87.22
X137.23Y-88.72
X137.98Y-86.47
X137.98Y-87.97
T2
X126.075Y-99.61
X126.12Y-84.28
X126.194Y-100.906
X127.345Y-83.73
X127.6Y-118.13
X131.91Y-115.077
X132.91Y-114.793
X132.95Y-104.24
X133.019Y-112.029
X133.125Y-116.58
X133.621Y-112.631
X134.44Y-111.18
X135.811Y-103.053
X135.87Y-101.455
X138.415Y-103.775
X139.622Y-107.896
X139.92Y-106.705
X140.22Y-105.705
X140.87Y-105.105
X142.33Y-112.35
X143.92Y-108.78
X145.42Y-116.66
X145.57Y-114.77
X145.945Y-99.305
X147.145Y-102.755
X147.93Y-111.487
X148.22Y-97.705
T3
G00X128.17Y-121.655
M15
G01X128.17Y-122.255
M16
G05
G00X128.53Y-115.705
M15
G01X128.53Y-116.305
M16
G05
G00X136.79Y-115.705
M15
G01X136.79Y-116.305
M16
G05
G00X137.15Y-121.655
M15
G01X137.15Y-122.255
M16
G05
G00X140.53Y-121.47
M15
G01X140.53Y-122.07
M16
G05
G00X140.89Y-115.52
M15
G01X140.89Y-116.12
M16
G05
G00X149.15Y-115.52
M15
G01X149.15Y-116.12
M16
G05
G00X149.51Y-121.47
M15
G01X149.51Y-122.07
M16
G05
M30
