%TF.GenerationSoftware,KiCad,Pcbnew,10.0.4*%
%TF.CreationDate,2026-07-01T10:43:04-04:00*%
%TF.ProjectId,Kicad,4b696361-642e-46b6-9963-61645f706362,rev?*%
%TF.SameCoordinates,Original*%
%TF.FileFunction,Copper,L2,Bot*%
%TF.FilePolarity,Positive*%
%FSLAX46Y46*%
G04 Gerber Fmt 4.6, Leading zero omitted, Abs format (unit mm)*
G04 Created by KiCad (PCBNEW 10.0.4) date 2026-07-01 10:43:04*
%MOMM*%
%LPD*%
G01*
G04 APERTURE LIST*
%TA.AperFunction,ComponentPad*%
%ADD10O,0.800000X1.400000*%
%TD*%
%TA.AperFunction,HeatsinkPad*%
%ADD11C,0.600000*%
%TD*%
%TA.AperFunction,ViaPad*%
%ADD12C,0.600000*%
%TD*%
%TA.AperFunction,Conductor*%
%ADD13C,0.200000*%
%TD*%
G04 APERTURE END LIST*
D10*
%TO.P,J1,SH,SHIELD_SH*%
%TO.N,GND*%
X140530000Y-121770000D03*
X140890000Y-115820000D03*
X149150000Y-115820000D03*
X149510000Y-121770000D03*
%TD*%
%TO.P,J2,SH,SHIELD_SH*%
%TO.N,GND*%
X128170000Y-121955000D03*
X128530000Y-116005000D03*
X136790000Y-116005000D03*
X137150000Y-121955000D03*
%TD*%
D11*
%TO.P,U1,41,GND_41*%
%TO.N,GND*%
X134980000Y-86470000D03*
X134980000Y-87970000D03*
X135730000Y-85720000D03*
X135730000Y-87220000D03*
X135730000Y-88720000D03*
X136480000Y-86470000D03*
X136480000Y-87970000D03*
X137230000Y-85720000D03*
X137230000Y-87220000D03*
X137230000Y-88720000D03*
X137980000Y-86470000D03*
X137980000Y-87970000D03*
%TD*%
D12*
%TO.N,/5V_USB_1*%
X147930000Y-111486725D03*
X142330000Y-112350000D03*
%TO.N,/5V_USB_0*%
X132950000Y-104240000D03*
X134440000Y-111180000D03*
%TO.N,/NATIVE_D-*%
X131910000Y-115076847D03*
X132910000Y-114793027D03*
%TO.N,/BOOT*%
X139621764Y-107896020D03*
X140870000Y-105105000D03*
%TO.N,/ESP32_AUTORST*%
X126120000Y-84280000D03*
X139920000Y-106705000D03*
%TO.N,/VCC0*%
X127345000Y-83730000D03*
%TO.N,/NATIVE_D-*%
X126075393Y-99610393D03*
%TO.N,/NATIVE_D+*%
X126194479Y-100905521D03*
%TO.N,/NATIVE_D-*%
X133620521Y-112630521D03*
%TO.N,/NATIVE_D+*%
X133019479Y-112029479D03*
%TO.N,/BOOT*%
X145945000Y-99305000D03*
X148220000Y-97705000D03*
%TO.N,/ESP32_SERIAL_P*%
X143920000Y-108780000D03*
X147145000Y-102755000D03*
%TO.N,/MOSI_BUS_A*%
X135870000Y-101455000D03*
X135810668Y-103052775D03*
%TO.N,/VCC0*%
X138415494Y-103775494D03*
X140220000Y-105705000D03*
%TO.N,Net-(J2-CC2)*%
X133125000Y-116580000D03*
X127600000Y-118130000D03*
%TO.N,Net-(J1-CC2)*%
X145420000Y-116660000D03*
X145570000Y-114770000D03*
%TD*%
%TO.N,/5V_USB_1*%
D13*
X147066725Y-112350000D02*
X147930000Y-111486725D01*
X142330000Y-112350000D02*
X147066725Y-112350000D01*
%TO.N,/5V_USB_0*%
X134440000Y-105730000D02*
X132950000Y-104240000D01*
X134440000Y-111180000D02*
X134440000Y-105730000D01*
%TO.N,/NATIVE_D-*%
X132193820Y-114793027D02*
X131910000Y-115076847D01*
X132910000Y-114793027D02*
X132193820Y-114793027D01*
%TO.N,/BOOT*%
X145945000Y-99305000D02*
X145945000Y-100030000D01*
X145945000Y-100030000D02*
X140870000Y-105105000D01*
X139621764Y-107896020D02*
X140870000Y-106647784D01*
X140870000Y-106647784D02*
X140870000Y-105105000D01*
%TO.N,/ESP32_AUTORST*%
X139920000Y-106705000D02*
X138220736Y-106705000D01*
X126120000Y-94604264D02*
X126120000Y-84280000D01*
X138220736Y-106705000D02*
X126120000Y-94604264D01*
%TO.N,/VCC0*%
X127345000Y-83730000D02*
X127345000Y-95405000D01*
X135715494Y-103775494D02*
X138415494Y-103775494D01*
X127345000Y-95405000D02*
X135715494Y-103775494D01*
%TO.N,/NATIVE_D-*%
X126769479Y-100304479D02*
X126075393Y-99610393D01*
X126795521Y-100304479D02*
X126769479Y-100304479D01*
%TO.N,/NATIVE_D+*%
X133019479Y-112029479D02*
X133170520Y-111878438D01*
X133170520Y-111878438D02*
X133170520Y-107598719D01*
X133170520Y-107598719D02*
X126477322Y-100905521D01*
%TO.N,/NATIVE_D-*%
X133620521Y-112630521D02*
X133620521Y-107412322D01*
%TO.N,/NATIVE_D+*%
X126477322Y-100905521D02*
X126194479Y-100905521D01*
%TO.N,/NATIVE_D-*%
X126795521Y-100587322D02*
X126795521Y-100304479D01*
X133620521Y-107412322D02*
X126795521Y-100587322D01*
%TO.N,/BOOT*%
X147545000Y-97705000D02*
X145945000Y-99305000D01*
X148220000Y-97705000D02*
X147545000Y-97705000D01*
%TO.N,/ESP32_SERIAL_P*%
X147145000Y-105555000D02*
X143920000Y-108780000D01*
X147145000Y-102755000D02*
X147145000Y-105555000D01*
%TO.N,/MOSI_BUS_A*%
X135810668Y-101514332D02*
X135870000Y-101455000D01*
X135810668Y-103052775D02*
X135810668Y-101514332D01*
%TO.N,/VCC0*%
X140220000Y-105705000D02*
X138415494Y-103900494D01*
X138415494Y-103900494D02*
X138415494Y-103775494D01*
%TO.N,Net-(J2-CC2)*%
X127600000Y-118130000D02*
X131575000Y-118130000D01*
X131575000Y-118130000D02*
X133125000Y-116580000D01*
%TO.N,Net-(J1-CC2)*%
X145420000Y-114920000D02*
X145570000Y-114770000D01*
X145420000Y-116660000D02*
X145420000Y-114920000D01*
%TD*%
M02*
