%TF.GenerationSoftware,KiCad,Pcbnew,10.0.4*%
%TF.CreationDate,2026-07-01T10:43:05-04:00*%
%TF.ProjectId,Kicad,4b696361-642e-46b6-9963-61645f706362,rev?*%
%TF.SameCoordinates,Original*%
%TF.FileFunction,Soldermask,Top*%
%TF.FilePolarity,Negative*%
%FSLAX46Y46*%
G04 Gerber Fmt 4.6, Leading zero omitted, Abs format (unit mm)*
G04 Created by KiCad (PCBNEW 10.0.4) date 2026-07-01 10:43:05*
%MOMM*%
%LPD*%
G01*
G04 APERTURE LIST*
G04 Aperture macros list*
%AMRoundRect*
0 Rectangle with rounded corners*
0 $1 Rounding radius*
0 $2 $3 $4 $5 $6 $7 $8 $9 X,Y pos of 4 corners*
0 Add a 4 corners polygon primitive as box body*
4,1,4,$2,$3,$4,$5,$6,$7,$8,$9,$2,$3,0*
0 Add four circle primitives for the rounded corners*
1,1,$1+$1,$2,$3*
1,1,$1+$1,$4,$5*
1,1,$1+$1,$6,$7*
1,1,$1+$1,$8,$9*
0 Add four rect primitives between the rounded corners*
20,1,$1+$1,$2,$3,$4,$5,0*
20,1,$1+$1,$4,$5,$6,$7,0*
20,1,$1+$1,$6,$7,$8,$9,0*
20,1,$1+$1,$8,$9,$2,$3,0*%
G04 Aperture macros list end*
%ADD10RoundRect,0.125000X-0.125000X-0.137500X0.125000X-0.137500X0.125000X0.137500X-0.125000X0.137500X0*%
%ADD11RoundRect,0.093750X-0.093750X-0.106250X0.093750X-0.106250X0.093750X0.106250X-0.093750X0.106250X0*%
%ADD12R,1.000000X1.600000*%
%ADD13RoundRect,0.075000X-0.125000X-0.075000X0.125000X-0.075000X0.125000X0.075000X-0.125000X0.075000X0*%
%ADD14R,0.900000X1.700000*%
%ADD15RoundRect,0.100000X0.100000X-0.130000X0.100000X0.130000X-0.100000X0.130000X-0.100000X-0.130000X0*%
%ADD16RoundRect,0.075000X0.075000X-0.125000X0.075000X0.125000X-0.075000X0.125000X-0.075000X-0.125000X0*%
%ADD17RoundRect,0.075000X-0.075000X0.125000X-0.075000X-0.125000X0.075000X-0.125000X0.075000X0.125000X0*%
%ADD18RoundRect,0.100000X-0.162635X0.021213X0.021213X-0.162635X0.162635X-0.021213X-0.021213X0.162635X0*%
%ADD19RoundRect,0.087500X-0.087500X-0.087500X0.087500X-0.087500X0.087500X0.087500X-0.087500X0.087500X0*%
%ADD20RoundRect,0.100000X-0.100000X0.130000X-0.100000X-0.130000X0.100000X-0.130000X0.100000X0.130000X0*%
%ADD21RoundRect,0.075000X0.125000X0.075000X-0.125000X0.075000X-0.125000X-0.075000X0.125000X-0.075000X0*%
%ADD22RoundRect,0.100000X0.130000X0.100000X-0.130000X0.100000X-0.130000X-0.100000X0.130000X-0.100000X0*%
%ADD23RoundRect,0.062500X0.062500X-0.350000X0.062500X0.350000X-0.062500X0.350000X-0.062500X-0.350000X0*%
%ADD24RoundRect,0.062500X0.350000X-0.062500X0.350000X0.062500X-0.350000X0.062500X-0.350000X-0.062500X0*%
%ADD25R,2.500000X2.500000*%
%ADD26C,0.650000*%
%ADD27O,0.950000X0.650000*%
%ADD28RoundRect,0.075000X-0.075000X-0.275000X0.075000X-0.275000X0.075000X0.275000X-0.075000X0.275000X0*%
%ADD29O,0.800000X1.400000*%
%ADD30RoundRect,0.100000X-0.125000X0.100000X-0.125000X-0.100000X0.125000X-0.100000X0.125000X0.100000X0*%
%ADD31RoundRect,0.050000X-0.225000X-0.050000X0.225000X-0.050000X0.225000X0.050000X-0.225000X0.050000X0*%
%ADD32RoundRect,0.050000X0.050000X-0.225000X0.050000X0.225000X-0.050000X0.225000X-0.050000X-0.225000X0*%
%ADD33RoundRect,0.087500X-0.087500X0.087500X-0.087500X-0.087500X0.087500X-0.087500X0.087500X0.087500X0*%
%ADD34RoundRect,0.100000X-0.130000X-0.100000X0.130000X-0.100000X0.130000X0.100000X-0.130000X0.100000X0*%
%ADD35R,1.500000X0.900000*%
%ADD36R,0.900000X1.500000*%
%ADD37R,1.000000X1.000000*%
%ADD38C,0.600000*%
G04 APERTURE END LIST*
D10*
%TO.C,U7*%
X134195000Y-102330000D03*
X134995000Y-102330000D03*
X135795000Y-102330000D03*
X136595000Y-102330000D03*
X136595000Y-104705000D03*
X135795000Y-104705000D03*
X134995000Y-104705000D03*
X134195000Y-104705000D03*
%TD*%
D11*
%TO.C,U2*%
X139895000Y-102205000D03*
X139895000Y-102855000D03*
X139895000Y-103505000D03*
X141670000Y-103505000D03*
X141670000Y-102855000D03*
X141670000Y-102205000D03*
D12*
X140782500Y-102855000D03*
%TD*%
D13*
%TO.C,C14*%
X144920000Y-102592500D03*
X145420000Y-102592500D03*
%TD*%
D14*
%TO.C,SW2*%
X139445000Y-110380000D03*
X136045000Y-110380000D03*
%TD*%
D15*
%TO.C,R11*%
X126675000Y-118070000D03*
X126675000Y-117430000D03*
%TD*%
D13*
%TO.C,C8*%
X135120000Y-106455000D03*
X135620000Y-106455000D03*
%TD*%
D16*
%TO.C,C15*%
X133970000Y-109730000D03*
X133970000Y-109230000D03*
%TD*%
D17*
%TO.C,C6*%
X139120000Y-102680000D03*
X139120000Y-103180000D03*
%TD*%
D15*
%TO.C,R9*%
X148220000Y-99030000D03*
X148220000Y-98390000D03*
%TD*%
D18*
%TO.C,R17*%
X148318727Y-87028727D03*
X148771273Y-87481273D03*
%TD*%
D19*
%TO.C,D3*%
X130645000Y-104155000D03*
X132095000Y-104155000D03*
%TD*%
D20*
%TO.C,R4*%
X145770000Y-110460000D03*
X145770000Y-111100000D03*
%TD*%
D18*
%TO.C,R16*%
X148562679Y-85972679D03*
X149015225Y-86425225D03*
%TD*%
D15*
%TO.C,R2*%
X139265000Y-115845000D03*
X139265000Y-115205000D03*
%TD*%
D17*
%TO.C,C18*%
X141195000Y-106605000D03*
X141195000Y-107105000D03*
%TD*%
D21*
%TO.C,C13*%
X145420000Y-101867500D03*
X144920000Y-101867500D03*
%TD*%
D22*
%TO.C,R12*%
X127595000Y-97180000D03*
X126955000Y-97180000D03*
%TD*%
D21*
%TO.C,C5*%
X141620000Y-101205000D03*
X141120000Y-101205000D03*
%TD*%
D20*
%TO.C,R14*%
X126070000Y-97460000D03*
X126070000Y-98100000D03*
%TD*%
D19*
%TO.C,D4*%
X130645000Y-105730000D03*
X132095000Y-105730000D03*
%TD*%
D21*
%TO.C,C16*%
X129945000Y-111905000D03*
X129445000Y-111905000D03*
%TD*%
D16*
%TO.C,C20*%
X141895000Y-107105000D03*
X141895000Y-106605000D03*
%TD*%
D17*
%TO.C,C3*%
X127670000Y-82355000D03*
X127670000Y-82855000D03*
%TD*%
D23*
%TO.C,U9*%
X143920000Y-107517500D03*
X144420000Y-107517500D03*
X144920000Y-107517500D03*
X145420000Y-107517500D03*
X145920000Y-107517500D03*
D24*
X146857500Y-106580000D03*
X146857500Y-106080000D03*
X146857500Y-105580000D03*
X146857500Y-105080000D03*
X146857500Y-104580000D03*
D23*
X145920000Y-103642500D03*
X145420000Y-103642500D03*
X144920000Y-103642500D03*
X144420000Y-103642500D03*
X143920000Y-103642500D03*
D24*
X142982500Y-104580000D03*
X142982500Y-105080000D03*
X142982500Y-105580000D03*
X142982500Y-106080000D03*
X142982500Y-106580000D03*
D25*
X144920000Y-105580000D03*
%TD*%
D16*
%TO.C,C12*%
X126945000Y-82855000D03*
X126945000Y-82355000D03*
%TD*%
D20*
%TO.C,R13*%
X127620000Y-98435000D03*
X127620000Y-99075000D03*
%TD*%
%TO.C,R5*%
X137340000Y-106655000D03*
X137340000Y-107295000D03*
%TD*%
D17*
%TO.C,FB1*%
X134395000Y-112155000D03*
X134395000Y-112655000D03*
%TD*%
D20*
%TO.C,R7*%
X141390000Y-105105000D03*
X141390000Y-105745000D03*
%TD*%
D16*
%TO.C,C9*%
X133270000Y-109730000D03*
X133270000Y-109230000D03*
%TD*%
D22*
%TO.C,R1*%
X144085000Y-112570000D03*
X143445000Y-112570000D03*
%TD*%
D20*
%TO.C,R15*%
X126845000Y-98430000D03*
X126845000Y-99070000D03*
%TD*%
D13*
%TO.C,C10*%
X129445000Y-111205000D03*
X129945000Y-111205000D03*
%TD*%
D20*
%TO.C,R3*%
X126095000Y-82965000D03*
X126095000Y-83605000D03*
%TD*%
D26*
%TO.C,J1*%
X141420000Y-114570000D03*
D27*
X148620000Y-114570000D03*
D28*
X142270000Y-113910000D03*
X142770000Y-113910000D03*
X143270000Y-113910000D03*
X143770000Y-113910000D03*
X144270000Y-113910000D03*
X144770000Y-113910000D03*
X145270000Y-113910000D03*
X145770000Y-113910000D03*
X146270000Y-113910000D03*
X146770000Y-113910000D03*
X147270000Y-113910000D03*
X147770000Y-113910000D03*
X147520000Y-115610000D03*
X147020000Y-115610000D03*
X146520000Y-115610000D03*
X146020000Y-115610000D03*
X145520000Y-115610000D03*
X145020000Y-115610000D03*
X144520000Y-115610000D03*
X144020000Y-115610000D03*
X143520000Y-115610000D03*
X143020000Y-115610000D03*
X142520000Y-115610000D03*
X142020000Y-115610000D03*
D29*
X140530000Y-121770000D03*
X140890000Y-115820000D03*
X149150000Y-115820000D03*
X149510000Y-121770000D03*
%TD*%
D17*
%TO.C,FB2*%
X147620000Y-111855000D03*
X147620000Y-112355000D03*
%TD*%
D30*
%TO.C,Q1*%
X139340000Y-104575000D03*
X139340000Y-105375000D03*
X140390000Y-104975000D03*
%TD*%
D22*
%TO.C,R10*%
X131700000Y-112730000D03*
X131060000Y-112730000D03*
%TD*%
D26*
%TO.C,J2*%
X129060000Y-114755000D03*
D27*
X136260000Y-114755000D03*
D28*
X129910000Y-114095000D03*
X130410000Y-114095000D03*
X130910000Y-114095000D03*
X131410000Y-114095000D03*
X131910000Y-114095000D03*
X132410000Y-114095000D03*
X132910000Y-114095000D03*
X133410000Y-114095000D03*
X133910000Y-114095000D03*
X134410000Y-114095000D03*
X134910000Y-114095000D03*
X135410000Y-114095000D03*
X135160000Y-115795000D03*
X134660000Y-115795000D03*
X134160000Y-115795000D03*
X133660000Y-115795000D03*
X133160000Y-115795000D03*
X132660000Y-115795000D03*
X132160000Y-115795000D03*
X131660000Y-115795000D03*
X131160000Y-115795000D03*
X130660000Y-115795000D03*
X130160000Y-115795000D03*
X129660000Y-115795000D03*
D29*
X128170000Y-121955000D03*
X128530000Y-116005000D03*
X136790000Y-116005000D03*
X137150000Y-121955000D03*
%TD*%
D20*
%TO.C,R8*%
X134895000Y-109665000D03*
X134895000Y-110305000D03*
%TD*%
D16*
%TO.C,C4*%
X147820000Y-104505000D03*
X147820000Y-104005000D03*
%TD*%
D13*
%TO.C,C19*%
X133795000Y-106455000D03*
X134295000Y-106455000D03*
%TD*%
%TO.C,C17*%
X135120000Y-105755000D03*
X135620000Y-105755000D03*
%TD*%
D31*
%TO.C,U8*%
X129295000Y-107730000D03*
X129295000Y-108130000D03*
X129295000Y-108530000D03*
X129295000Y-108930000D03*
X129295000Y-109330000D03*
X129295000Y-109730000D03*
D32*
X129795000Y-110230000D03*
X130195000Y-110230000D03*
X130595000Y-110230000D03*
X130995000Y-110230000D03*
X131395000Y-110230000D03*
X131795000Y-110230000D03*
D31*
X132295000Y-109730000D03*
X132295000Y-109330000D03*
X132295000Y-108930000D03*
X132295000Y-108530000D03*
X132295000Y-108130000D03*
X132295000Y-107730000D03*
D32*
X131795000Y-107230000D03*
X131395000Y-107230000D03*
X130995000Y-107230000D03*
X130595000Y-107230000D03*
X130195000Y-107230000D03*
X129795000Y-107230000D03*
%TD*%
D30*
%TO.C,Q2*%
X139250000Y-106560000D03*
X139250000Y-107360000D03*
X140300000Y-106960000D03*
%TD*%
D33*
%TO.C,D2*%
X129370000Y-104105000D03*
X129370000Y-105555000D03*
%TD*%
D13*
%TO.C,C7*%
X133795000Y-105755000D03*
X134295000Y-105755000D03*
%TD*%
D15*
%TO.C,R6*%
X138165000Y-106220000D03*
X138165000Y-105580000D03*
%TD*%
D14*
%TO.C,SW1*%
X144545000Y-110380000D03*
X141145000Y-110380000D03*
%TD*%
D34*
%TO.C,C11*%
X131255000Y-111280000D03*
X131895000Y-111280000D03*
%TD*%
D35*
%TO.C,U1*%
X129090000Y-81870000D03*
X129090000Y-83140000D03*
X129090000Y-84410000D03*
X129090000Y-85680000D03*
X129090000Y-86950000D03*
X129090000Y-88220000D03*
X129090000Y-89490000D03*
X129090000Y-90760000D03*
X129090000Y-92030000D03*
X129090000Y-93300000D03*
X129090000Y-94570000D03*
X129090000Y-95840000D03*
X129090000Y-97110000D03*
X129090000Y-98380000D03*
D36*
X130855000Y-99630000D03*
X132125000Y-99630000D03*
X133395000Y-99630000D03*
X134665000Y-99630000D03*
X135935000Y-99630000D03*
X137205000Y-99630000D03*
X138475000Y-99630000D03*
X139745000Y-99630000D03*
X141015000Y-99630000D03*
X142285000Y-99630000D03*
X143555000Y-99630000D03*
X144825000Y-99630000D03*
D35*
X146590000Y-98380000D03*
X146590000Y-97110000D03*
X146590000Y-95840000D03*
X146590000Y-94570000D03*
X146590000Y-93300000D03*
X146590000Y-92030000D03*
X146590000Y-90760000D03*
X146590000Y-89490000D03*
X146590000Y-88220000D03*
X146590000Y-86950000D03*
X146590000Y-85680000D03*
X146590000Y-84410000D03*
X146590000Y-83140000D03*
X146590000Y-81870000D03*
D37*
X134980000Y-85720000D03*
D38*
X134980000Y-86470000D03*
D37*
X134980000Y-87220000D03*
D38*
X134980000Y-87970000D03*
D37*
X134980000Y-88720000D03*
D38*
X135730000Y-85720000D03*
X135730000Y-87220000D03*
X135730000Y-88720000D03*
D37*
X136480000Y-85720000D03*
D38*
X136480000Y-86470000D03*
D37*
X136480000Y-87220000D03*
D38*
X136480000Y-87970000D03*
D37*
X136480000Y-88720000D03*
D38*
X137230000Y-85720000D03*
X137230000Y-87220000D03*
X137230000Y-88720000D03*
D37*
X137980000Y-85720000D03*
D38*
X137980000Y-86470000D03*
D37*
X137980000Y-87220000D03*
D38*
X137980000Y-87970000D03*
D37*
X137980000Y-88720000D03*
%TD*%
M02*
