%TF.GenerationSoftware,KiCad,Pcbnew,10.0.4*%
%TF.CreationDate,2026-07-01T10:43:04-04:00*%
%TF.ProjectId,Kicad,4b696361-642e-46b6-9963-61645f706362,rev?*%
%TF.SameCoordinates,Original*%
%TF.FileFunction,Paste,Top*%
%TF.FilePolarity,Positive*%
%FSLAX46Y46*%
G04 Gerber Fmt 4.6, Leading zero omitted, Abs format (unit mm)*
G04 Created by KiCad (PCBNEW 10.0.4) date 2026-07-01 10:43:04*
%MOMM*%
%LPD*%
G01*
G04 APERTURE LIST*
G04 Aperture macros list*
%AMRoundRect*
0 Rectangle with rounded corners*
0 $1 Rounding radius*
0 $2 $3 $4 $5 $6 $7 $8 $9 X,Y pos of 4 corners*
0 Add a 4 corners polygon primitive as box body*
4,1,4,$2,$3,$4,$5,$6,$7,$8,$9,$2,$3,0*
0 Add four circle primitives for the rounded corners*
1,1,$1+$1,$2,$3*
1,1,$1+$1,$4,$5*
1,1,$1+$1,$6,$7*
1,1,$1+$1,$8,$9*
0 Add four rect primitives between the rounded corners*
20,1,$1+$1,$2,$3,$4,$5,0*
20,1,$1+$1,$4,$5,$6,$7,0*
20,1,$1+$1,$6,$7,$8,$9,0*
20,1,$1+$1,$8,$9,$2,$3,0*%
G04 Aperture macros list end*
%ADD10RoundRect,0.125000X-0.125000X-0.137500X0.125000X-0.137500X0.125000X0.137500X-0.125000X0.137500X0*%
%ADD11RoundRect,0.160000X-0.245000X-0.160000X0.245000X-0.160000X0.245000X0.160000X-0.245000X0.160000X0*%
%ADD12RoundRect,0.093750X-0.093750X-0.106250X0.093750X-0.106250X0.093750X0.106250X-0.093750X0.106250X0*%
%ADD13RoundRect,0.067500X-0.067500X-0.067500X0.067500X-0.067500X0.067500X0.067500X-0.067500X0.067500X0*%
%ADD14R,0.900000X1.700000*%
%ADD15RoundRect,0.079500X0.100500X-0.079500X0.100500X0.079500X-0.100500X0.079500X-0.100500X-0.079500X0*%
%ADD16RoundRect,0.067500X0.067500X-0.067500X0.067500X0.067500X-0.067500X0.067500X-0.067500X-0.067500X0*%
%ADD17RoundRect,0.067500X-0.067500X0.067500X-0.067500X-0.067500X0.067500X-0.067500X0.067500X0.067500X0*%
%ADD18RoundRect,0.079500X-0.127279X-0.014849X-0.014849X-0.127279X0.127279X0.014849X0.014849X0.127279X0*%
%ADD19RoundRect,0.087500X-0.087500X-0.087500X0.087500X-0.087500X0.087500X0.087500X-0.087500X0.087500X0*%
%ADD20RoundRect,0.079500X-0.100500X0.079500X-0.100500X-0.079500X0.100500X-0.079500X0.100500X0.079500X0*%
%ADD21RoundRect,0.067500X0.067500X0.067500X-0.067500X0.067500X-0.067500X-0.067500X0.067500X-0.067500X0*%
%ADD22RoundRect,0.079500X0.079500X0.100500X-0.079500X0.100500X-0.079500X-0.100500X0.079500X-0.100500X0*%
%ADD23RoundRect,0.250000X0.255000X-0.255000X0.255000X0.255000X-0.255000X0.255000X-0.255000X-0.255000X0*%
%ADD24RoundRect,0.062500X0.062500X-0.350000X0.062500X0.350000X-0.062500X0.350000X-0.062500X-0.350000X0*%
%ADD25RoundRect,0.062500X0.350000X-0.062500X0.350000X0.062500X-0.350000X0.062500X-0.350000X-0.062500X0*%
%ADD26RoundRect,0.075000X-0.075000X-0.275000X0.075000X-0.275000X0.075000X0.275000X-0.075000X0.275000X0*%
%ADD27RoundRect,0.100000X-0.125000X0.100000X-0.125000X-0.100000X0.125000X-0.100000X0.125000X0.100000X0*%
%ADD28RoundRect,0.050000X-0.225000X-0.050000X0.225000X-0.050000X0.225000X0.050000X-0.225000X0.050000X0*%
%ADD29RoundRect,0.050000X0.050000X-0.225000X0.050000X0.225000X-0.050000X0.225000X-0.050000X-0.225000X0*%
%ADD30RoundRect,0.087500X-0.087500X0.087500X-0.087500X-0.087500X0.087500X-0.087500X0.087500X0.087500X0*%
%ADD31RoundRect,0.079500X-0.079500X-0.100500X0.079500X-0.100500X0.079500X0.100500X-0.079500X0.100500X0*%
%ADD32R,1.500000X0.900000*%
%ADD33R,0.900000X1.500000*%
%ADD34R,1.000000X1.000000*%
G04 APERTURE END LIST*
D10*
%TO.C,U7*%
X134195000Y-102330000D03*
X134995000Y-102330000D03*
X135795000Y-102330000D03*
X136595000Y-102330000D03*
X136595000Y-104705000D03*
X135795000Y-104705000D03*
X134995000Y-104705000D03*
X134195000Y-104705000D03*
%TD*%
D11*
%TO.C,U2*%
X140782500Y-102455000D03*
X140782500Y-103255000D03*
D12*
X139895000Y-102205000D03*
X139895000Y-102855000D03*
X139895000Y-103505000D03*
X141670000Y-103505000D03*
X141670000Y-102855000D03*
X141670000Y-102205000D03*
%TD*%
D13*
%TO.C,C14*%
X144895000Y-102592500D03*
X145445000Y-102592500D03*
%TD*%
D14*
%TO.C,SW2*%
X139445000Y-110380000D03*
X136045000Y-110380000D03*
%TD*%
D15*
%TO.C,R11*%
X126675000Y-118095000D03*
X126675000Y-117405000D03*
%TD*%
D13*
%TO.C,C8*%
X135095000Y-106455000D03*
X135645000Y-106455000D03*
%TD*%
D16*
%TO.C,C15*%
X133970000Y-109755000D03*
X133970000Y-109205000D03*
%TD*%
D17*
%TO.C,C6*%
X139120000Y-102655000D03*
X139120000Y-103205000D03*
%TD*%
D15*
%TO.C,R9*%
X148220000Y-99055000D03*
X148220000Y-98365000D03*
%TD*%
D18*
%TO.C,R17*%
X148301048Y-87011048D03*
X148788952Y-87498952D03*
%TD*%
D19*
%TO.C,D3*%
X130645000Y-104155000D03*
X132095000Y-104155000D03*
%TD*%
D20*
%TO.C,R4*%
X145770000Y-110435000D03*
X145770000Y-111125000D03*
%TD*%
D18*
%TO.C,R16*%
X148545000Y-85955000D03*
X149032904Y-86442904D03*
%TD*%
D15*
%TO.C,R2*%
X139265000Y-115870000D03*
X139265000Y-115180000D03*
%TD*%
D17*
%TO.C,C18*%
X141195000Y-106580000D03*
X141195000Y-107130000D03*
%TD*%
D21*
%TO.C,C13*%
X145445000Y-101867500D03*
X144895000Y-101867500D03*
%TD*%
D22*
%TO.C,R12*%
X127620000Y-97180000D03*
X126930000Y-97180000D03*
%TD*%
D21*
%TO.C,C5*%
X141645000Y-101205000D03*
X141095000Y-101205000D03*
%TD*%
D20*
%TO.C,R14*%
X126070000Y-97435000D03*
X126070000Y-98125000D03*
%TD*%
D19*
%TO.C,D4*%
X130645000Y-105730000D03*
X132095000Y-105730000D03*
%TD*%
D21*
%TO.C,C16*%
X129970000Y-111905000D03*
X129420000Y-111905000D03*
%TD*%
D16*
%TO.C,C20*%
X141895000Y-107130000D03*
X141895000Y-106580000D03*
%TD*%
D17*
%TO.C,C3*%
X127670000Y-82330000D03*
X127670000Y-82880000D03*
%TD*%
D23*
%TO.C,U9*%
X144295000Y-106205000D03*
X145545000Y-106205000D03*
X144295000Y-104955000D03*
X145545000Y-104955000D03*
D24*
X143920000Y-107517500D03*
X144420000Y-107517500D03*
X144920000Y-107517500D03*
X145420000Y-107517500D03*
X145920000Y-107517500D03*
D25*
X146857500Y-106580000D03*
X146857500Y-106080000D03*
X146857500Y-105580000D03*
X146857500Y-105080000D03*
X146857500Y-104580000D03*
D24*
X145920000Y-103642500D03*
X145420000Y-103642500D03*
X144920000Y-103642500D03*
X144420000Y-103642500D03*
X143920000Y-103642500D03*
D25*
X142982500Y-104580000D03*
X142982500Y-105080000D03*
X142982500Y-105580000D03*
X142982500Y-106080000D03*
X142982500Y-106580000D03*
%TD*%
D16*
%TO.C,C12*%
X126945000Y-82880000D03*
X126945000Y-82330000D03*
%TD*%
D20*
%TO.C,R13*%
X127620000Y-98410000D03*
X127620000Y-99100000D03*
%TD*%
%TO.C,R5*%
X137340000Y-106630000D03*
X137340000Y-107320000D03*
%TD*%
D17*
%TO.C,FB1*%
X134395000Y-112130000D03*
X134395000Y-112680000D03*
%TD*%
D20*
%TO.C,R7*%
X141390000Y-105080000D03*
X141390000Y-105770000D03*
%TD*%
D16*
%TO.C,C9*%
X133270000Y-109755000D03*
X133270000Y-109205000D03*
%TD*%
D22*
%TO.C,R1*%
X144110000Y-112570000D03*
X143420000Y-112570000D03*
%TD*%
D20*
%TO.C,R15*%
X126845000Y-98405000D03*
X126845000Y-99095000D03*
%TD*%
D13*
%TO.C,C10*%
X129420000Y-111205000D03*
X129970000Y-111205000D03*
%TD*%
D20*
%TO.C,R3*%
X126095000Y-82940000D03*
X126095000Y-83630000D03*
%TD*%
D26*
%TO.C,J1*%
X142270000Y-113910000D03*
X142770000Y-113910000D03*
X143270000Y-113910000D03*
X143770000Y-113910000D03*
X144270000Y-113910000D03*
X144770000Y-113910000D03*
X145270000Y-113910000D03*
X145770000Y-113910000D03*
X146270000Y-113910000D03*
X146770000Y-113910000D03*
X147270000Y-113910000D03*
X147770000Y-113910000D03*
X147520000Y-115610000D03*
X147020000Y-115610000D03*
X146520000Y-115610000D03*
X146020000Y-115610000D03*
X145520000Y-115610000D03*
X145020000Y-115610000D03*
X144520000Y-115610000D03*
X144020000Y-115610000D03*
X143520000Y-115610000D03*
X143020000Y-115610000D03*
X142520000Y-115610000D03*
X142020000Y-115610000D03*
%TD*%
D17*
%TO.C,FB2*%
X147620000Y-111830000D03*
X147620000Y-112380000D03*
%TD*%
D27*
%TO.C,Q1*%
X139340000Y-104575000D03*
X139340000Y-105375000D03*
X140390000Y-104975000D03*
%TD*%
D22*
%TO.C,R10*%
X131725000Y-112730000D03*
X131035000Y-112730000D03*
%TD*%
D26*
%TO.C,J2*%
X129910000Y-114095000D03*
X130410000Y-114095000D03*
X130910000Y-114095000D03*
X131410000Y-114095000D03*
X131910000Y-114095000D03*
X132410000Y-114095000D03*
X132910000Y-114095000D03*
X133410000Y-114095000D03*
X133910000Y-114095000D03*
X134410000Y-114095000D03*
X134910000Y-114095000D03*
X135410000Y-114095000D03*
X135160000Y-115795000D03*
X134660000Y-115795000D03*
X134160000Y-115795000D03*
X133660000Y-115795000D03*
X133160000Y-115795000D03*
X132660000Y-115795000D03*
X132160000Y-115795000D03*
X131660000Y-115795000D03*
X131160000Y-115795000D03*
X130660000Y-115795000D03*
X130160000Y-115795000D03*
X129660000Y-115795000D03*
%TD*%
D20*
%TO.C,R8*%
X134895000Y-109640000D03*
X134895000Y-110330000D03*
%TD*%
D16*
%TO.C,C4*%
X147820000Y-104530000D03*
X147820000Y-103980000D03*
%TD*%
D13*
%TO.C,C19*%
X133770000Y-106455000D03*
X134320000Y-106455000D03*
%TD*%
%TO.C,C17*%
X135095000Y-105755000D03*
X135645000Y-105755000D03*
%TD*%
D28*
%TO.C,U8*%
X129295000Y-107730000D03*
X129295000Y-108130000D03*
X129295000Y-108530000D03*
X129295000Y-108930000D03*
X129295000Y-109330000D03*
X129295000Y-109730000D03*
D29*
X129795000Y-110230000D03*
X130195000Y-110230000D03*
X130595000Y-110230000D03*
X130995000Y-110230000D03*
X131395000Y-110230000D03*
X131795000Y-110230000D03*
D28*
X132295000Y-109730000D03*
X132295000Y-109330000D03*
X132295000Y-108930000D03*
X132295000Y-108530000D03*
X132295000Y-108130000D03*
X132295000Y-107730000D03*
D29*
X131795000Y-107230000D03*
X131395000Y-107230000D03*
X130995000Y-107230000D03*
X130595000Y-107230000D03*
X130195000Y-107230000D03*
X129795000Y-107230000D03*
%TD*%
D27*
%TO.C,Q2*%
X139250000Y-106560000D03*
X139250000Y-107360000D03*
X140300000Y-106960000D03*
%TD*%
D30*
%TO.C,D2*%
X129370000Y-104105000D03*
X129370000Y-105555000D03*
%TD*%
D13*
%TO.C,C7*%
X133770000Y-105755000D03*
X134320000Y-105755000D03*
%TD*%
D15*
%TO.C,R6*%
X138165000Y-106245000D03*
X138165000Y-105555000D03*
%TD*%
D14*
%TO.C,SW1*%
X144545000Y-110380000D03*
X141145000Y-110380000D03*
%TD*%
D31*
%TO.C,C11*%
X131230000Y-111280000D03*
X131920000Y-111280000D03*
%TD*%
D32*
%TO.C,U1*%
X129090000Y-81870000D03*
X129090000Y-83140000D03*
X129090000Y-84410000D03*
X129090000Y-85680000D03*
X129090000Y-86950000D03*
X129090000Y-88220000D03*
X129090000Y-89490000D03*
X129090000Y-90760000D03*
X129090000Y-92030000D03*
X129090000Y-93300000D03*
X129090000Y-94570000D03*
X129090000Y-95840000D03*
X129090000Y-97110000D03*
X129090000Y-98380000D03*
D33*
X130855000Y-99630000D03*
X132125000Y-99630000D03*
X133395000Y-99630000D03*
X134665000Y-99630000D03*
X135935000Y-99630000D03*
X137205000Y-99630000D03*
X138475000Y-99630000D03*
X139745000Y-99630000D03*
X141015000Y-99630000D03*
X142285000Y-99630000D03*
X143555000Y-99630000D03*
X144825000Y-99630000D03*
D32*
X146590000Y-98380000D03*
X146590000Y-97110000D03*
X146590000Y-95840000D03*
X146590000Y-94570000D03*
X146590000Y-93300000D03*
X146590000Y-92030000D03*
X146590000Y-90760000D03*
X146590000Y-89490000D03*
X146590000Y-88220000D03*
X146590000Y-86950000D03*
X146590000Y-85680000D03*
X146590000Y-84410000D03*
X146590000Y-83140000D03*
X146590000Y-81870000D03*
D34*
X134980000Y-85720000D03*
X134980000Y-87220000D03*
X134980000Y-88720000D03*
X136480000Y-85720000D03*
X136480000Y-87220000D03*
X136480000Y-88720000D03*
X137980000Y-85720000D03*
X137980000Y-87220000D03*
X137980000Y-88720000D03*
%TD*%
M02*
