%TF.GenerationSoftware,KiCad,Pcbnew,10.0.1*%
%TF.CreationDate,2026-06-17T19:12:30-04:00*%
%TF.ProjectId,Kicad,4b696361-642e-46b6-9963-61645f706362,rev?*%
%TF.SameCoordinates,Original*%
%TF.FileFunction,Soldermask,Top*%
%TF.FilePolarity,Negative*%
%FSLAX46Y46*%
G04 Gerber Fmt 4.6, Leading zero omitted, Abs format (unit mm)*
G04 Created by KiCad (PCBNEW 10.0.1) date 2026-06-17 19:12:30*
%MOMM*%
%LPD*%
G01*
G04 APERTURE LIST*
G04 Aperture macros list*
%AMRoundRect*
0 Rectangle with rounded corners*
0 $1 Rounding radius*
0 $2 $3 $4 $5 $6 $7 $8 $9 X,Y pos of 4 corners*
0 Add a 4 corners polygon primitive as box body*
4,1,4,$2,$3,$4,$5,$6,$7,$8,$9,$2,$3,0*
0 Add four circle primitives for the rounded corners*
1,1,$1+$1,$2,$3*
1,1,$1+$1,$4,$5*
1,1,$1+$1,$6,$7*
1,1,$1+$1,$8,$9*
0 Add four rect primitives between the rounded corners*
20,1,$1+$1,$2,$3,$4,$5,0*
20,1,$1+$1,$4,$5,$6,$7,0*
20,1,$1+$1,$6,$7,$8,$9,0*
20,1,$1+$1,$8,$9,$2,$3,0*%
G04 Aperture macros list end*
%ADD10RoundRect,0.250000X-0.250000X-0.475000X0.250000X-0.475000X0.250000X0.475000X-0.250000X0.475000X0*%
%ADD11RoundRect,0.237500X-0.250000X-0.237500X0.250000X-0.237500X0.250000X0.237500X-0.250000X0.237500X0*%
%ADD12RoundRect,0.237500X0.237500X-0.250000X0.237500X0.250000X-0.237500X0.250000X-0.237500X-0.250000X0*%
%ADD13R,1.700000X1.700000*%
%ADD14C,1.700000*%
%ADD15RoundRect,0.225000X-0.225000X-0.375000X0.225000X-0.375000X0.225000X0.375000X-0.225000X0.375000X0*%
%ADD16RoundRect,0.050000X-0.225000X-0.050000X0.225000X-0.050000X0.225000X0.050000X-0.225000X0.050000X0*%
%ADD17RoundRect,0.050000X0.050000X-0.225000X0.050000X0.225000X-0.050000X0.225000X-0.050000X-0.225000X0*%
%ADD18RoundRect,0.237500X-0.237500X0.250000X-0.237500X-0.250000X0.237500X-0.250000X0.237500X0.250000X0*%
%ADD19RoundRect,0.062500X-0.350000X-0.062500X0.350000X-0.062500X0.350000X0.062500X-0.350000X0.062500X0*%
%ADD20RoundRect,0.062500X-0.062500X-0.350000X0.062500X-0.350000X0.062500X0.350000X-0.062500X0.350000X0*%
%ADD21R,2.500000X2.500000*%
%ADD22RoundRect,0.250000X-0.275000X-0.350000X0.275000X-0.350000X0.275000X0.350000X-0.275000X0.350000X0*%
%ADD23C,0.650000*%
%ADD24O,0.950000X0.650000*%
%ADD25RoundRect,0.075000X-0.075000X-0.275000X0.075000X-0.275000X0.075000X0.275000X-0.075000X0.275000X0*%
%ADD26O,0.800000X1.400000*%
%ADD27C,3.200000*%
%ADD28R,1.500000X1.500000*%
%ADD29C,1.500000*%
%ADD30R,1.500000X0.900000*%
%ADD31R,0.900000X1.500000*%
%ADD32R,1.000000X1.000000*%
%ADD33C,0.600000*%
%ADD34RoundRect,0.125000X-0.125000X-0.137500X0.125000X-0.137500X0.125000X0.137500X-0.125000X0.137500X0*%
%ADD35RoundRect,0.375000X-0.625000X-0.375000X0.625000X-0.375000X0.625000X0.375000X-0.625000X0.375000X0*%
%ADD36RoundRect,0.500000X-0.500000X-1.400000X0.500000X-1.400000X0.500000X1.400000X-0.500000X1.400000X0*%
%ADD37RoundRect,0.237500X0.250000X0.237500X-0.250000X0.237500X-0.250000X-0.237500X0.250000X-0.237500X0*%
%ADD38RoundRect,0.250000X0.275000X0.600000X-0.275000X0.600000X-0.275000X-0.600000X0.275000X-0.600000X0*%
%ADD39O,1.050000X1.700000*%
%ADD40RoundRect,0.250000X-0.475000X-0.250000X0.475000X-0.250000X0.475000X0.250000X-0.475000X0.250000X0*%
G04 APERTURE END LIST*
D10*
%TO.C,C9*%
X161550000Y-62000000D03*
X163450000Y-62000000D03*
%TD*%
D11*
%TO.C,R8*%
X138000000Y-59500000D03*
X139825000Y-59500000D03*
%TD*%
D10*
%TO.C,C8*%
X143600000Y-53500000D03*
X145500000Y-53500000D03*
%TD*%
D11*
%TO.C,R5*%
X170087500Y-69000000D03*
X171912500Y-69000000D03*
%TD*%
D12*
%TO.C,R1*%
X157087500Y-69412500D03*
X157087500Y-67587500D03*
%TD*%
D13*
%TO.C,J4*%
X130500000Y-34800000D03*
D14*
X130500000Y-37340000D03*
X130500000Y-39880000D03*
X130500000Y-42420000D03*
X130500000Y-44960000D03*
X130500000Y-47500000D03*
X130500000Y-50040000D03*
X130500000Y-52580000D03*
X130500000Y-55120000D03*
X130500000Y-57660000D03*
X130500000Y-60200000D03*
X130500000Y-62740000D03*
X130500000Y-65280000D03*
X130500000Y-67820000D03*
X130500000Y-70360000D03*
X130500000Y-72900000D03*
X130500000Y-75440000D03*
X130500000Y-77980000D03*
X130500000Y-80520000D03*
X130500000Y-83060000D03*
%TD*%
D15*
%TO.C,D1*%
X143700000Y-57500000D03*
X147000000Y-57500000D03*
%TD*%
D16*
%TO.C,U8*%
X169000000Y-62000000D03*
X169000000Y-62400000D03*
X169000000Y-62800000D03*
X169000000Y-63200000D03*
X169000000Y-63600000D03*
X169000000Y-64000000D03*
D17*
X169500000Y-64500000D03*
X169900000Y-64500000D03*
X170300000Y-64500000D03*
X170700000Y-64500000D03*
X171100000Y-64500000D03*
X171500000Y-64500000D03*
D16*
X172000000Y-64000000D03*
X172000000Y-63600000D03*
X172000000Y-63200000D03*
X172000000Y-62800000D03*
X172000000Y-62400000D03*
X172000000Y-62000000D03*
D17*
X171500000Y-61500000D03*
X171100000Y-61500000D03*
X170700000Y-61500000D03*
X170300000Y-61500000D03*
X169900000Y-61500000D03*
X169500000Y-61500000D03*
%TD*%
D18*
%TO.C,R3*%
X153500000Y-42587500D03*
X153500000Y-44412500D03*
%TD*%
D10*
%TO.C,C11*%
X174050000Y-62500000D03*
X175950000Y-62500000D03*
%TD*%
D19*
%TO.C,U9*%
X152125000Y-64000000D03*
X152125000Y-64500000D03*
X152125000Y-65000000D03*
X152125000Y-65500000D03*
X152125000Y-66000000D03*
D20*
X153062500Y-66937500D03*
X153562500Y-66937500D03*
X154062500Y-66937500D03*
X154562500Y-66937500D03*
X155062500Y-66937500D03*
D19*
X156000000Y-66000000D03*
X156000000Y-65500000D03*
X156000000Y-65000000D03*
X156000000Y-64500000D03*
X156000000Y-64000000D03*
D20*
X155062500Y-63062500D03*
X154562500Y-63062500D03*
X154062500Y-63062500D03*
X153562500Y-63062500D03*
X153062500Y-63062500D03*
D21*
X154062500Y-65000000D03*
%TD*%
D22*
%TO.C,FB2*%
X148700000Y-68500000D03*
X151000000Y-68500000D03*
%TD*%
D12*
%TO.C,R2*%
X159500000Y-65412500D03*
X159500000Y-63587500D03*
%TD*%
D18*
%TO.C,R10*%
X172587500Y-74087500D03*
X172587500Y-75912500D03*
%TD*%
D15*
%TO.C,D4*%
X146350000Y-61500000D03*
X149650000Y-61500000D03*
%TD*%
D11*
%TO.C,R6*%
X165675000Y-67000000D03*
X167500000Y-67000000D03*
%TD*%
D23*
%TO.C,J2*%
X161740000Y-76140000D03*
D24*
X168940000Y-76140000D03*
D25*
X162590000Y-75480000D03*
X163090000Y-75480000D03*
X163590000Y-75480000D03*
X164090000Y-75480000D03*
X164590000Y-75480000D03*
X165090000Y-75480000D03*
X165590000Y-75480000D03*
X166090000Y-75480000D03*
X166590000Y-75480000D03*
X167090000Y-75480000D03*
X167590000Y-75480000D03*
X168090000Y-75480000D03*
X167840000Y-77180000D03*
X167340000Y-77180000D03*
X166840000Y-77180000D03*
X166340000Y-77180000D03*
X165840000Y-77180000D03*
X165340000Y-77180000D03*
X164840000Y-77180000D03*
X164340000Y-77180000D03*
X163840000Y-77180000D03*
X163340000Y-77180000D03*
X162840000Y-77180000D03*
X162340000Y-77180000D03*
D26*
X160850000Y-83340000D03*
X161210000Y-77390000D03*
X169470000Y-77390000D03*
X169830000Y-83340000D03*
%TD*%
D27*
%TO.C,J6*%
X181730000Y-78350000D03*
X193160000Y-78350000D03*
D28*
X183000000Y-72000000D03*
D29*
X184270000Y-69460000D03*
X185540000Y-72000000D03*
X186810000Y-69460000D03*
X188080000Y-72000000D03*
X189350000Y-69460000D03*
X190620000Y-72000000D03*
X191890000Y-69460000D03*
%TD*%
D30*
%TO.C,U1*%
X155610000Y-40150000D03*
X155610000Y-41420000D03*
X155610000Y-42690000D03*
X155610000Y-43960000D03*
X155610000Y-45230000D03*
X155610000Y-46500000D03*
X155610000Y-47770000D03*
X155610000Y-49040000D03*
X155610000Y-50310000D03*
X155610000Y-51580000D03*
X155610000Y-52850000D03*
X155610000Y-54120000D03*
X155610000Y-55390000D03*
X155610000Y-56660000D03*
D31*
X157375000Y-57910000D03*
X158645000Y-57910000D03*
X159915000Y-57910000D03*
X161185000Y-57910000D03*
X162455000Y-57910000D03*
X163725000Y-57910000D03*
X164995000Y-57910000D03*
X166265000Y-57910000D03*
X167535000Y-57910000D03*
X168805000Y-57910000D03*
X170075000Y-57910000D03*
X171345000Y-57910000D03*
D30*
X173110000Y-56660000D03*
X173110000Y-55390000D03*
X173110000Y-54120000D03*
X173110000Y-52850000D03*
X173110000Y-51580000D03*
X173110000Y-50310000D03*
X173110000Y-49040000D03*
X173110000Y-47770000D03*
X173110000Y-46500000D03*
X173110000Y-45230000D03*
X173110000Y-43960000D03*
X173110000Y-42690000D03*
X173110000Y-41420000D03*
X173110000Y-40150000D03*
D32*
X161500000Y-44000000D03*
D33*
X161500000Y-44750000D03*
D32*
X161500000Y-45500000D03*
D33*
X161500000Y-46250000D03*
D32*
X161500000Y-47000000D03*
D33*
X162250000Y-44000000D03*
X162250000Y-45500000D03*
X162250000Y-47000000D03*
D32*
X163000000Y-44000000D03*
D33*
X163000000Y-44750000D03*
D32*
X163000000Y-45500000D03*
D33*
X163000000Y-46250000D03*
D32*
X163000000Y-47000000D03*
D33*
X163750000Y-44000000D03*
X163750000Y-45500000D03*
X163750000Y-47000000D03*
D32*
X164500000Y-44000000D03*
D33*
X164500000Y-44750000D03*
D32*
X164500000Y-45500000D03*
D33*
X164500000Y-46250000D03*
D32*
X164500000Y-47000000D03*
%TD*%
D34*
%TO.C,U7*%
X149600000Y-53125000D03*
X150400000Y-53125000D03*
X151200000Y-53125000D03*
X152000000Y-53125000D03*
X152000000Y-55500000D03*
X151200000Y-55500000D03*
X150400000Y-55500000D03*
X149600000Y-55500000D03*
%TD*%
D35*
%TO.C,U3*%
X184200000Y-44200000D03*
X184200000Y-46500000D03*
D36*
X190500000Y-46500000D03*
D35*
X184200000Y-48800000D03*
%TD*%
D10*
%TO.C,C10*%
X165100000Y-60500000D03*
X167000000Y-60500000D03*
%TD*%
D37*
%TO.C,R9*%
X179912500Y-57500000D03*
X178087500Y-57500000D03*
%TD*%
D38*
%TO.C,Q1*%
X173960000Y-68000000D03*
D39*
X175230000Y-68000000D03*
X176500000Y-68000000D03*
%TD*%
D40*
%TO.C,SW1*%
X136350000Y-44300000D03*
X141500000Y-44300000D03*
X136350000Y-46000000D03*
X141500000Y-46000000D03*
%TD*%
%TO.C,SW2*%
X135350000Y-54300000D03*
X140500000Y-54300000D03*
X135350000Y-56000000D03*
X140500000Y-56000000D03*
%TD*%
D38*
%TO.C,Q2*%
X174960000Y-72500000D03*
D39*
X176230000Y-72500000D03*
X177500000Y-72500000D03*
%TD*%
D23*
%TO.C,J1*%
X149910000Y-76140000D03*
D24*
X157110000Y-76140000D03*
D25*
X150760000Y-75480000D03*
X151260000Y-75480000D03*
X151760000Y-75480000D03*
X152260000Y-75480000D03*
X152760000Y-75480000D03*
X153260000Y-75480000D03*
X153760000Y-75480000D03*
X154260000Y-75480000D03*
X154760000Y-75480000D03*
X155260000Y-75480000D03*
X155760000Y-75480000D03*
X156260000Y-75480000D03*
X156010000Y-77180000D03*
X155510000Y-77180000D03*
X155010000Y-77180000D03*
X154510000Y-77180000D03*
X154010000Y-77180000D03*
X153510000Y-77180000D03*
X153010000Y-77180000D03*
X152510000Y-77180000D03*
X152010000Y-77180000D03*
X151510000Y-77180000D03*
X151010000Y-77180000D03*
X150510000Y-77180000D03*
D26*
X149020000Y-83340000D03*
X149380000Y-77390000D03*
X157640000Y-77390000D03*
X158000000Y-83340000D03*
%TD*%
D15*
%TO.C,D3*%
X161200000Y-64500000D03*
X164500000Y-64500000D03*
%TD*%
D13*
%TO.C,J3*%
X125000000Y-34760000D03*
D14*
X125000000Y-37300000D03*
X125000000Y-39840000D03*
X125000000Y-42380000D03*
X125000000Y-44920000D03*
X125000000Y-47460000D03*
X125000000Y-50000000D03*
X125000000Y-52540000D03*
X125000000Y-55080000D03*
X125000000Y-57620000D03*
X125000000Y-60160000D03*
X125000000Y-62700000D03*
X125000000Y-65240000D03*
X125000000Y-67780000D03*
X125000000Y-70320000D03*
X125000000Y-72860000D03*
X125000000Y-75400000D03*
X125000000Y-77940000D03*
X125000000Y-80480000D03*
X125000000Y-83020000D03*
%TD*%
D11*
%TO.C,R11*%
X174675000Y-76500000D03*
X176500000Y-76500000D03*
%TD*%
D10*
%TO.C,C4*%
X151550000Y-61000000D03*
X153450000Y-61000000D03*
%TD*%
D12*
%TO.C,R7*%
X176000000Y-55412500D03*
X176000000Y-53587500D03*
%TD*%
D11*
%TO.C,R4*%
X142175000Y-41000000D03*
X144000000Y-41000000D03*
%TD*%
D10*
%TO.C,C3*%
X149550000Y-42000000D03*
X151450000Y-42000000D03*
%TD*%
D15*
%TO.C,D2*%
X143350000Y-66000000D03*
X146650000Y-66000000D03*
%TD*%
D22*
%TO.C,FB1*%
X161200000Y-68000000D03*
X163500000Y-68000000D03*
%TD*%
D10*
%TO.C,C7*%
X145600000Y-46000000D03*
X147500000Y-46000000D03*
%TD*%
M02*
