%TF.GenerationSoftware,KiCad,Pcbnew,10.0.4*%
%TF.CreationDate,2026-07-05T11:03:36-04:00*%
%TF.ProjectId,Kicad,4b696361-642e-46b6-9963-61645f706362,rev?*%
%TF.SameCoordinates,Original*%
%TF.FileFunction,Paste,Top*%
%TF.FilePolarity,Positive*%
%FSLAX46Y46*%
G04 Gerber Fmt 4.6, Leading zero omitted, Abs format (unit mm)*
G04 Created by KiCad (PCBNEW 10.0.4) date 2026-07-05 11:03:36*
%MOMM*%
%LPD*%
G01*
G04 APERTURE LIST*
G04 Aperture macros list*
%AMRoundRect*
0 Rectangle with rounded corners*
0 $1 Rounding radius*
0 $2 $3 $4 $5 $6 $7 $8 $9 X,Y pos of 4 corners*
0 Add a 4 corners polygon primitive as box body*
4,1,4,$2,$3,$4,$5,$6,$7,$8,$9,$2,$3,0*
0 Add four circle primitives for the rounded corners*
1,1,$1+$1,$2,$3*
1,1,$1+$1,$4,$5*
1,1,$1+$1,$6,$7*
1,1,$1+$1,$8,$9*
0 Add four rect primitives between the rounded corners*
20,1,$1+$1,$2,$3,$4,$5,0*
20,1,$1+$1,$4,$5,$6,$7,0*
20,1,$1+$1,$6,$7,$8,$9,0*
20,1,$1+$1,$8,$9,$2,$3,0*%
G04 Aperture macros list end*
%ADD10RoundRect,0.079500X-0.079500X-0.100500X0.079500X-0.100500X0.079500X0.100500X-0.079500X0.100500X0*%
%ADD11RoundRect,0.067500X0.067500X0.067500X-0.067500X0.067500X-0.067500X-0.067500X0.067500X-0.067500X0*%
%ADD12RoundRect,0.079500X-0.100500X0.079500X-0.100500X-0.079500X0.100500X-0.079500X0.100500X0.079500X0*%
%ADD13RoundRect,0.067500X-0.067500X0.067500X-0.067500X-0.067500X0.067500X-0.067500X0.067500X0.067500X0*%
%ADD14R,0.900000X1.700000*%
%ADD15RoundRect,0.070000X-0.070000X-0.345000X0.070000X-0.345000X0.070000X0.345000X-0.070000X0.345000X0*%
%ADD16RoundRect,0.112500X-0.112500X-0.302500X0.112500X-0.302500X0.112500X0.302500X-0.112500X0.302500X0*%
%ADD17R,1.500000X0.900000*%
%ADD18R,0.900000X1.500000*%
%ADD19R,1.000000X1.000000*%
%ADD20RoundRect,0.067500X0.067500X-0.067500X0.067500X0.067500X-0.067500X0.067500X-0.067500X-0.067500X0*%
%ADD21RoundRect,0.079500X0.079500X0.100500X-0.079500X0.100500X-0.079500X-0.100500X0.079500X-0.100500X0*%
%ADD22RoundRect,0.079500X0.100500X-0.079500X0.100500X0.079500X-0.100500X0.079500X-0.100500X-0.079500X0*%
%ADD23RoundRect,0.150000X0.587500X0.150000X-0.587500X0.150000X-0.587500X-0.150000X0.587500X-0.150000X0*%
%ADD24RoundRect,0.150000X-0.587500X-0.150000X0.587500X-0.150000X0.587500X0.150000X-0.587500X0.150000X0*%
%ADD25RoundRect,0.160000X-0.245000X-0.160000X0.245000X-0.160000X0.245000X0.160000X-0.245000X0.160000X0*%
%ADD26RoundRect,0.093750X-0.093750X-0.106250X0.093750X-0.106250X0.093750X0.106250X-0.093750X0.106250X0*%
%ADD27RoundRect,0.087500X-0.662500X-0.087500X0.662500X-0.087500X0.662500X0.087500X-0.662500X0.087500X0*%
G04 APERTURE END LIST*
D10*
%TO.C,R6*%
X187755000Y-83100000D03*
X188445000Y-83100000D03*
%TD*%
D11*
%TO.C,R12*%
X177450000Y-88100000D03*
X176900000Y-88100000D03*
%TD*%
D12*
%TO.C,D1*%
X176100000Y-87360000D03*
X176100000Y-88050000D03*
%TD*%
D13*
%TO.C,C5*%
X176475000Y-84425000D03*
X176475000Y-84975000D03*
%TD*%
D14*
%TO.C,SW1*%
X191500000Y-94500000D03*
X194900000Y-94500000D03*
%TD*%
D15*
%TO.C,J1*%
X175550000Y-89710000D03*
X176350000Y-89710000D03*
X177150000Y-89710000D03*
X177950000Y-89710000D03*
X178350000Y-89710000D03*
X178750000Y-89710000D03*
X180350000Y-89710000D03*
X181150000Y-89710000D03*
X181550000Y-89710000D03*
X180750000Y-89710000D03*
X179950000Y-89710000D03*
X179550000Y-89710000D03*
X179150000Y-89710000D03*
X177550000Y-89710000D03*
X176750000Y-89710000D03*
X175950000Y-89710000D03*
D16*
X175035000Y-89710000D03*
X182065000Y-89710000D03*
%TD*%
D17*
%TO.C,U1*%
X174310000Y-63850000D03*
X174310000Y-65120000D03*
X174310000Y-66390000D03*
X174310000Y-67660000D03*
X174310000Y-68930000D03*
X174310000Y-70200000D03*
X174310000Y-71470000D03*
X174310000Y-72740000D03*
X174310000Y-74010000D03*
X174310000Y-75280000D03*
X174310000Y-76550000D03*
X174310000Y-77820000D03*
X174310000Y-79090000D03*
X174310000Y-80360000D03*
D18*
X176075000Y-81610000D03*
X177345000Y-81610000D03*
X178615000Y-81610000D03*
X179885000Y-81610000D03*
X181155000Y-81610000D03*
X182425000Y-81610000D03*
X183695000Y-81610000D03*
X184965000Y-81610000D03*
X186235000Y-81610000D03*
X187505000Y-81610000D03*
X188775000Y-81610000D03*
X190045000Y-81610000D03*
D17*
X191810000Y-80360000D03*
X191810000Y-79090000D03*
X191810000Y-77820000D03*
X191810000Y-76550000D03*
X191810000Y-75280000D03*
X191810000Y-74010000D03*
X191810000Y-72740000D03*
X191810000Y-71470000D03*
X191810000Y-70200000D03*
X191810000Y-68930000D03*
X191810000Y-67660000D03*
X191810000Y-66390000D03*
X191810000Y-65120000D03*
X191810000Y-63850000D03*
D19*
X180200000Y-67700000D03*
X180200000Y-69200000D03*
X180200000Y-70700000D03*
X181700000Y-67700000D03*
X181700000Y-69200000D03*
X181700000Y-70700000D03*
X183200000Y-67700000D03*
X183200000Y-69200000D03*
X183200000Y-70700000D03*
%TD*%
D20*
%TO.C,C4*%
X193150000Y-86675000D03*
X193150000Y-86125000D03*
%TD*%
D21*
%TO.C,R9*%
X192995000Y-85400000D03*
X192305000Y-85400000D03*
%TD*%
D22*
%TO.C,R4*%
X190300000Y-95445000D03*
X190300000Y-94755000D03*
%TD*%
D20*
%TO.C,C1*%
X172000000Y-64775000D03*
X172000000Y-64225000D03*
%TD*%
D23*
%TO.C,Q3*%
X187137500Y-92000000D03*
X187137500Y-90100000D03*
X185262500Y-91050000D03*
%TD*%
D13*
%TO.C,C6*%
X179975000Y-84425000D03*
X179975000Y-84975000D03*
%TD*%
%TO.C,C3*%
X192200000Y-83325000D03*
X192200000Y-83875000D03*
%TD*%
%TO.C,C2*%
X172800000Y-64200000D03*
X172800000Y-64750000D03*
%TD*%
D22*
%TO.C,R2*%
X189100000Y-90095000D03*
X189100000Y-89405000D03*
%TD*%
D21*
%TO.C,R11*%
X182140000Y-86350000D03*
X181450000Y-86350000D03*
%TD*%
D10*
%TO.C,R10*%
X175400000Y-86400000D03*
X176090000Y-86400000D03*
%TD*%
D14*
%TO.C,SW2*%
X185450000Y-94600000D03*
X188850000Y-94600000D03*
%TD*%
D22*
%TO.C,R3*%
X193150000Y-89025000D03*
X193150000Y-88335000D03*
%TD*%
D12*
%TO.C,R7*%
X190300000Y-93155000D03*
X190300000Y-93845000D03*
%TD*%
D21*
%TO.C,R8*%
X192990000Y-84600000D03*
X192300000Y-84600000D03*
%TD*%
D24*
%TO.C,Q4*%
X190850000Y-89500000D03*
X190850000Y-91400000D03*
X192725000Y-90450000D03*
%TD*%
D25*
%TO.C,U2*%
X178337500Y-84700000D03*
X178337500Y-85500000D03*
D26*
X177450000Y-84450000D03*
X177450000Y-85100000D03*
X177450000Y-85750000D03*
X179225000Y-85750000D03*
X179225000Y-85100000D03*
X179225000Y-84450000D03*
%TD*%
D12*
%TO.C,R1*%
X189050000Y-91235000D03*
X189050000Y-91925000D03*
%TD*%
D27*
%TO.C,U3*%
X186550000Y-84250000D03*
X186550000Y-84750000D03*
X186550000Y-85250000D03*
X186550000Y-85750000D03*
X186550000Y-86250000D03*
X190750000Y-86250000D03*
X190750000Y-85750000D03*
X190750000Y-85250000D03*
X190750000Y-84750000D03*
X190750000Y-84250000D03*
%TD*%
D12*
%TO.C,R5*%
X172800000Y-65455000D03*
X172800000Y-66145000D03*
%TD*%
M02*
