%TF.GenerationSoftware,KiCad,Pcbnew,10.0.4*%
%TF.CreationDate,2026-07-05T11:03:36-04:00*%
%TF.ProjectId,Kicad,4b696361-642e-46b6-9963-61645f706362,rev?*%
%TF.SameCoordinates,Original*%
%TF.FileFunction,Copper,L2,Bot*%
%TF.FilePolarity,Positive*%
%FSLAX46Y46*%
G04 Gerber Fmt 4.6, Leading zero omitted, Abs format (unit mm)*
G04 Created by KiCad (PCBNEW 10.0.4) date 2026-07-05 11:03:36*
%MOMM*%
%LPD*%
G01*
G04 APERTURE LIST*
G04 Aperture macros list*
%AMRoundRect*
0 Rectangle with rounded corners*
0 $1 Rounding radius*
0 $2 $3 $4 $5 $6 $7 $8 $9 X,Y pos of 4 corners*
0 Add a 4 corners polygon primitive as box body*
4,1,4,$2,$3,$4,$5,$6,$7,$8,$9,$2,$3,0*
0 Add four circle primitives for the rounded corners*
1,1,$1+$1,$2,$3*
1,1,$1+$1,$4,$5*
1,1,$1+$1,$6,$7*
1,1,$1+$1,$8,$9*
0 Add four rect primitives between the rounded corners*
20,1,$1+$1,$2,$3,$4,$5,0*
20,1,$1+$1,$4,$5,$6,$7,0*
20,1,$1+$1,$6,$7,$8,$9,0*
20,1,$1+$1,$8,$9,$2,$3,0*%
G04 Aperture macros list end*
%TA.AperFunction,ComponentPad*%
%ADD10C,0.850000*%
%TD*%
%TA.AperFunction,ComponentPad*%
%ADD11O,0.550000X2.050000*%
%TD*%
%TA.AperFunction,HeatsinkPad*%
%ADD12C,0.600000*%
%TD*%
%TA.AperFunction,ComponentPad*%
%ADD13RoundRect,0.250000X0.725000X-0.600000X0.725000X0.600000X-0.725000X0.600000X-0.725000X-0.600000X0*%
%TD*%
%TA.AperFunction,ComponentPad*%
%ADD14O,1.950000X1.700000*%
%TD*%
%TA.AperFunction,ViaPad*%
%ADD15C,0.600000*%
%TD*%
%TA.AperFunction,Conductor*%
%ADD16C,0.200000*%
%TD*%
G04 APERTURE END LIST*
D10*
%TO.P,J1,SH,SHIELD_SH*%
%TO.N,GND*%
X173955000Y-90470000D03*
D11*
X173955000Y-93450000D03*
D10*
X183145000Y-90470000D03*
D11*
X183145000Y-93450000D03*
%TD*%
D12*
%TO.P,U1,41,GND_41*%
%TO.N,GND*%
X180200000Y-68450000D03*
X180200000Y-69950000D03*
X180950000Y-67700000D03*
X180950000Y-69200000D03*
X180950000Y-70700000D03*
X181700000Y-68450000D03*
X181700000Y-69950000D03*
X182450000Y-67700000D03*
X182450000Y-69200000D03*
X182450000Y-70700000D03*
X183200000Y-68450000D03*
X183200000Y-69950000D03*
%TD*%
D13*
%TO.P,J2,1,Pin_1_1*%
%TO.N,/MISO*%
X170150000Y-89400000D03*
D14*
%TO.P,J2,2,Pin_2_2*%
%TO.N,/SCK*%
X170150000Y-86900000D03*
%TO.P,J2,3,Pin_3_3*%
%TO.N,/MOSI*%
X170150000Y-84400000D03*
%TO.P,J2,4,Pin_4_4*%
%TO.N,/CS*%
X170150000Y-81900000D03*
%TO.P,J2,5,Pin_5_5*%
%TO.N,/IO18*%
X170150000Y-79400000D03*
%TO.P,J2,6,Pin_6_6*%
%TO.N,/IO17*%
X170150000Y-76900000D03*
%TO.P,J2,7,Pin_7_7*%
%TO.N,/IO16*%
X170150000Y-74400000D03*
%TO.P,J2,8,Pin_8_8*%
%TO.N,/IO15*%
X170150000Y-71900000D03*
%TD*%
D15*
%TO.N,GND*%
X187750000Y-94650000D03*
X192665484Y-86650000D03*
X189607072Y-92707072D03*
X187800000Y-85300000D03*
%TO.N,/ESP32_AUTORST*%
X191300000Y-92650000D03*
X183800000Y-86950000D03*
X174310000Y-66390000D03*
%TO.N,/5V_USB_1*%
X180400000Y-88850000D03*
X176950000Y-88800000D03*
%TO.N,/SERIAL_D+*%
X184449479Y-84349479D03*
X178275000Y-86560000D03*
%TO.N,/SERIAL_D-*%
X179125000Y-86560000D03*
X185050521Y-84950521D03*
%TO.N,VCC*%
X175550000Y-84950000D03*
X172850000Y-71700000D03*
X186650000Y-87927180D03*
X185100001Y-87542894D03*
X193632891Y-87927180D03*
%TD*%
%TO.N,GND*%
D16*
X192665484Y-86650000D02*
X191315484Y-85300000D01*
X187750000Y-94650000D02*
X187750000Y-93950000D01*
X191315484Y-85300000D02*
X187800000Y-85300000D01*
X187250000Y-93450000D02*
X183145000Y-93450000D01*
X187750000Y-93950000D02*
X187250000Y-93450000D01*
X188864144Y-93450000D02*
X187250000Y-93450000D01*
X189607072Y-92707072D02*
X188864144Y-93450000D01*
%TO.N,/ESP32_AUTORST*%
X185550521Y-77630521D02*
X174310000Y-66390000D01*
X191300000Y-92650000D02*
X194132891Y-89817109D01*
X194132891Y-87720073D02*
X193655712Y-87242894D01*
X183800000Y-86950000D02*
X185550521Y-85199479D01*
X194132891Y-89817109D02*
X194132891Y-87720073D01*
X185214214Y-86950000D02*
X183800000Y-86950000D01*
X185550521Y-85199479D02*
X185550521Y-77630521D01*
X193655712Y-87242894D02*
X185507108Y-87242894D01*
X185507108Y-87242894D02*
X185214214Y-86950000D01*
%TO.N,/5V_USB_1*%
X176950000Y-88800000D02*
X180350000Y-88800000D01*
X180350000Y-88800000D02*
X180400000Y-88850000D01*
%TO.N,/SERIAL_D+*%
X179332107Y-86060000D02*
X179382107Y-86110000D01*
X178867893Y-86110000D02*
X178917893Y-86060000D01*
X178917893Y-86060000D02*
X179332107Y-86060000D01*
X184449479Y-84632322D02*
X184449479Y-84349479D01*
X182971801Y-86110000D02*
X184449479Y-84632322D01*
X178275000Y-86560000D02*
X178725000Y-86110000D01*
X179382107Y-86110000D02*
X182971801Y-86110000D01*
X178725000Y-86110000D02*
X178867893Y-86110000D01*
%TO.N,/SERIAL_D-*%
X183158199Y-86560000D02*
X184767678Y-84950521D01*
X184767678Y-84950521D02*
X185050521Y-84950521D01*
X179125000Y-86560000D02*
X183158199Y-86560000D01*
%TO.N,VCC*%
X178527180Y-87927180D02*
X186650000Y-87927180D01*
X172850000Y-71700000D02*
X172850000Y-82250000D01*
X185100001Y-87542894D02*
X186265714Y-87542894D01*
X186265714Y-87542894D02*
X186650000Y-87927180D01*
X186650000Y-87927180D02*
X193632891Y-87927180D01*
X175550000Y-84950000D02*
X178527180Y-87927180D01*
X172850000Y-82250000D02*
X175550000Y-84950000D01*
%TD*%
M02*
