M48
; DRILL file KiCad 10.0.1 date 2026-06-17T18:05:23
; FORMAT={-:-/ absolute / metric / decimal}
; #@! TF.CreationDate,2026-06-17T18:05:23-04:00
; #@! TF.GenerationSoftware,Kicad,Pcbnew,10.0.1
; #@! TF.FileFunction,Plated,1,6,PTH
FMAT,2
METRIC
; #@! TA.AperFunction,Plated,PTH,ComponentDrill
T1C0.200
; #@! TA.AperFunction,Plated,PTH,ViaDrill
T2C0.300
; #@! TA.AperFunction,Plated,PTH,ComponentDrill
T3C0.500
; #@! TA.AperFunction,Plated,PTH,ComponentDrill
T4C0.750
; #@! TA.AperFunction,Plated,PTH,ComponentDrill
T5C0.760
; #@! TA.AperFunction,Plated,PTH,ComponentDrill
T6C1.000
%
G90
G05
T1
X161.5Y-44.75
X161.5Y-46.25
X162.25Y-44.0
X162.25Y-45.5
X162.25Y-47.0
X163.0Y-44.75
X163.0Y-46.25
X163.75Y-44.0
X163.75Y-45.5
X163.75Y-47.0
X164.5Y-44.75
X164.5Y-46.25
T2
X140.5Y-54.3
X143.326Y-56.686
X148.0Y-42.0
X148.5Y-66.5
X151.35Y-66.5
X151.432Y-73.19
X152.5Y-68.5
X152.6Y-69.5
X152.837Y-74.7
X153.0Y-52.0
X153.418Y-62.225
X153.5Y-55.0
X153.5Y-73.5
X153.5Y-80.0
X153.608Y-67.932
X153.96Y-56.0
X154.0Y-52.5
X154.0Y-53.5
X154.0Y-69.5
X154.463Y-68.0
X154.6Y-79.5
X154.746Y-69.79
X155.0Y-73.5
X155.0Y-78.5
X155.276Y-62.124
X155.4Y-56.5
X155.4Y-58.4
X155.61Y-43.96
X155.61Y-45.23
X155.61Y-46.5
X155.61Y-47.77
X156.0Y-62.5
X157.0Y-42.5
X157.0Y-49.5
X157.0Y-50.5
X157.0Y-56.0
X157.5Y-54.4
X157.6Y-57.8
X157.64Y-72.55
X158.0Y-63.0
X158.5Y-56.5
X158.645Y-57.8
X159.0Y-66.5
X159.5Y-78.5
X159.915Y-57.8
X160.0Y-60.5
X160.0Y-66.5
X161.5Y-56.5
X162.3Y-56.5
X163.832Y-58.017
X164.5Y-56.5
X164.639Y-71.95
X164.69Y-69.5
X165.0Y-78.5
X165.19Y-74.7
X166.0Y-55.0
X166.5Y-54.0
X167.0Y-64.0
X167.294Y-58.151
X167.806Y-62.694
X168.058Y-61.334
X168.455Y-56.99
X168.613Y-73.15
X169.472Y-55.972
X171.345Y-57.91
X173.11Y-41.42
X173.11Y-42.69
X173.11Y-45.23
X173.11Y-46.5
X173.11Y-47.77
X173.11Y-49.04
X173.11Y-50.31
X173.11Y-51.58
X173.45Y-65.0
X174.0Y-60.5
X174.924Y-58.924
X175.0Y-43.4
X175.0Y-56.5
X176.5Y-61.0
X178.0Y-70.5
X183.0Y-42.5
T4
X173.96Y-68.0
X174.96Y-72.5
X175.23Y-68.0
X176.23Y-72.5
X176.5Y-68.0
X177.5Y-72.5
T5
X183.0Y-72.0
X184.27Y-69.46
X185.54Y-72.0
X186.81Y-69.46
X188.08Y-72.0
X189.35Y-69.46
X190.62Y-72.0
X191.89Y-69.46
T6
X125.0Y-34.76
X125.0Y-37.3
X125.0Y-39.84
X125.0Y-42.38
X125.0Y-44.92
X125.0Y-47.46
X125.0Y-50.0
X125.0Y-52.54
X125.0Y-55.08
X125.0Y-57.62
X125.0Y-60.16
X125.0Y-62.7
X125.0Y-65.24
X125.0Y-67.78
X125.0Y-70.32
X125.0Y-72.86
X125.0Y-75.4
X125.0Y-77.94
X125.0Y-80.48
X125.0Y-83.02
X130.5Y-34.8
X130.5Y-37.34
X130.5Y-39.88
X130.5Y-42.42
X130.5Y-44.96
X130.5Y-47.5
X130.5Y-50.04
X130.5Y-52.58
X130.5Y-55.12
X130.5Y-57.66
X130.5Y-60.2
X130.5Y-62.74
X130.5Y-65.28
X130.5Y-67.82
X130.5Y-70.36
X130.5Y-72.9
X130.5Y-75.44
X130.5Y-77.98
X130.5Y-80.52
X130.5Y-83.06
T3
G00X149.02Y-83.04
M15
G01X149.02Y-83.64
M16
G05
G00X149.38Y-77.09
M15
G01X149.38Y-77.69
M16
G05
G00X157.64Y-77.09
M15
G01X157.64Y-77.69
M16
G05
G00X158.0Y-83.04
M15
G01X158.0Y-83.64
M16
G05
G00X160.85Y-83.04
M15
G01X160.85Y-83.64
M16
G05
G00X161.21Y-77.09
M15
G01X161.21Y-77.69
M16
G05
G00X169.47Y-77.09
M15
G01X169.47Y-77.69
M16
G05
G00X169.83Y-83.04
M15
G01X169.83Y-83.64
M16
G05
M30
