%TF.GenerationSoftware,KiCad,Pcbnew,10.0.4*%
%TF.CreationDate,2026-07-04T11:06:09-04:00*%
%TF.ProjectId,Kicad,4b696361-642e-46b6-9963-61645f706362,rev?*%
%TF.SameCoordinates,Original*%
%TF.FileFunction,Paste,Top*%
%TF.FilePolarity,Positive*%
%FSLAX46Y46*%
G04 Gerber Fmt 4.6, Leading zero omitted, Abs format (unit mm)*
G04 Created by KiCad (PCBNEW 10.0.4) date 2026-07-04 11:06:09*
%MOMM*%
%LPD*%
G01*
G04 APERTURE LIST*
G04 Aperture macros list*
%AMRoundRect*
0 Rectangle with rounded corners*
0 $1 Rounding radius*
0 $2 $3 $4 $5 $6 $7 $8 $9 X,Y pos of 4 corners*
0 Add a 4 corners polygon primitive as box body*
4,1,4,$2,$3,$4,$5,$6,$7,$8,$9,$2,$3,0*
0 Add four circle primitives for the rounded corners*
1,1,$1+$1,$2,$3*
1,1,$1+$1,$4,$5*
1,1,$1+$1,$6,$7*
1,1,$1+$1,$8,$9*
0 Add four rect primitives between the rounded corners*
20,1,$1+$1,$2,$3,$4,$5,0*
20,1,$1+$1,$4,$5,$6,$7,0*
20,1,$1+$1,$6,$7,$8,$9,0*
20,1,$1+$1,$8,$9,$2,$3,0*%
G04 Aperture macros list end*
%ADD10RoundRect,0.067500X-0.067500X0.067500X-0.067500X-0.067500X0.067500X-0.067500X0.067500X0.067500X0*%
%ADD11R,0.900000X1.700000*%
%ADD12RoundRect,0.067500X0.067500X0.067500X-0.067500X0.067500X-0.067500X-0.067500X0.067500X-0.067500X0*%
%ADD13RoundRect,0.079500X-0.100500X0.079500X-0.100500X-0.079500X0.100500X-0.079500X0.100500X0.079500X0*%
%ADD14R,1.500000X0.900000*%
%ADD15R,0.900000X1.500000*%
%ADD16R,1.000000X1.000000*%
%ADD17RoundRect,0.079500X-0.079500X-0.100500X0.079500X-0.100500X0.079500X0.100500X-0.079500X0.100500X0*%
%ADD18RoundRect,0.079500X0.079500X0.100500X-0.079500X0.100500X-0.079500X-0.100500X0.079500X-0.100500X0*%
%ADD19RoundRect,0.067500X0.067500X-0.067500X0.067500X0.067500X-0.067500X0.067500X-0.067500X-0.067500X0*%
%ADD20RoundRect,0.070000X-0.070000X-0.345000X0.070000X-0.345000X0.070000X0.345000X-0.070000X0.345000X0*%
%ADD21RoundRect,0.112500X-0.112500X-0.302500X0.112500X-0.302500X0.112500X0.302500X-0.112500X0.302500X0*%
%ADD22RoundRect,0.067500X-0.067500X-0.067500X0.067500X-0.067500X0.067500X0.067500X-0.067500X0.067500X0*%
%ADD23RoundRect,0.079500X0.100500X-0.079500X0.100500X0.079500X-0.100500X0.079500X-0.100500X-0.079500X0*%
%ADD24RoundRect,0.250000X-0.255000X-0.255000X0.255000X-0.255000X0.255000X0.255000X-0.255000X0.255000X0*%
%ADD25RoundRect,0.062500X-0.350000X-0.062500X0.350000X-0.062500X0.350000X0.062500X-0.350000X0.062500X0*%
%ADD26RoundRect,0.062500X-0.062500X-0.350000X0.062500X-0.350000X0.062500X0.350000X-0.062500X0.350000X0*%
%ADD27RoundRect,0.160000X-0.245000X-0.160000X0.245000X-0.160000X0.245000X0.160000X-0.245000X0.160000X0*%
%ADD28RoundRect,0.093750X-0.093750X-0.106250X0.093750X-0.106250X0.093750X0.106250X-0.093750X0.106250X0*%
G04 APERTURE END LIST*
D10*
%TO.C,C3*%
X135510000Y-104225000D03*
X135510000Y-104775000D03*
%TD*%
D11*
%TO.C,SW1*%
X143510000Y-128500000D03*
X146910000Y-128500000D03*
%TD*%
D12*
%TO.C,C5*%
X155135000Y-135100000D03*
X154585000Y-135100000D03*
%TD*%
D13*
%TO.C,R16*%
X153310000Y-123755000D03*
X153310000Y-124445000D03*
%TD*%
D14*
%TO.C,U1*%
X136885000Y-103840000D03*
X136885000Y-105110000D03*
X136885000Y-106380000D03*
X136885000Y-107650000D03*
X136885000Y-108920000D03*
X136885000Y-110190000D03*
X136885000Y-111460000D03*
X136885000Y-112730000D03*
X136885000Y-114000000D03*
X136885000Y-115270000D03*
X136885000Y-116540000D03*
X136885000Y-117810000D03*
X136885000Y-119080000D03*
X136885000Y-120350000D03*
D15*
X138650000Y-121600000D03*
X139920000Y-121600000D03*
X141190000Y-121600000D03*
X142460000Y-121600000D03*
X143730000Y-121600000D03*
X145000000Y-121600000D03*
X146270000Y-121600000D03*
X147540000Y-121600000D03*
X148810000Y-121600000D03*
X150080000Y-121600000D03*
X151350000Y-121600000D03*
X152620000Y-121600000D03*
D14*
X154385000Y-120350000D03*
X154385000Y-119080000D03*
X154385000Y-117810000D03*
X154385000Y-116540000D03*
X154385000Y-115270000D03*
X154385000Y-114000000D03*
X154385000Y-112730000D03*
X154385000Y-111460000D03*
X154385000Y-110190000D03*
X154385000Y-108920000D03*
X154385000Y-107650000D03*
X154385000Y-106380000D03*
X154385000Y-105110000D03*
X154385000Y-103840000D03*
D16*
X142775000Y-107690000D03*
X142775000Y-109190000D03*
X142775000Y-110690000D03*
X144275000Y-107690000D03*
X144275000Y-109190000D03*
X144275000Y-110690000D03*
X145775000Y-107690000D03*
X145775000Y-109190000D03*
X145775000Y-110690000D03*
%TD*%
D17*
%TO.C,R7*%
X140485000Y-132235000D03*
X141175000Y-132235000D03*
%TD*%
D13*
%TO.C,R17*%
X154310000Y-123755000D03*
X154310000Y-124445000D03*
%TD*%
D17*
%TO.C,C11*%
X139220000Y-129300000D03*
X139910000Y-129300000D03*
%TD*%
D18*
%TO.C,R1*%
X150255000Y-134900000D03*
X149565000Y-134900000D03*
%TD*%
%TO.C,R8*%
X144200000Y-134500000D03*
X143510000Y-134500000D03*
%TD*%
D13*
%TO.C,R4*%
X141910000Y-130010000D03*
X141910000Y-130700000D03*
%TD*%
D17*
%TO.C,R9*%
X151645000Y-123500000D03*
X152335000Y-123500000D03*
%TD*%
%TO.C,R2*%
X152820000Y-134900000D03*
X153510000Y-134900000D03*
%TD*%
D19*
%TO.C,C13*%
X154910000Y-129775000D03*
X154910000Y-129225000D03*
%TD*%
D20*
%TO.C,J1*%
X148560000Y-136360000D03*
X149360000Y-136360000D03*
X150160000Y-136360000D03*
X150960000Y-136360000D03*
X151360000Y-136360000D03*
X151760000Y-136360000D03*
X153360000Y-136360000D03*
X154160000Y-136360000D03*
X154560000Y-136360000D03*
X153760000Y-136360000D03*
X152960000Y-136360000D03*
X152560000Y-136360000D03*
X152160000Y-136360000D03*
X150560000Y-136360000D03*
X149760000Y-136360000D03*
X148960000Y-136360000D03*
D21*
X148045000Y-136360000D03*
X155075000Y-136360000D03*
%TD*%
D22*
%TO.C,C20*%
X149435000Y-126100000D03*
X149985000Y-126100000D03*
%TD*%
D12*
%TO.C,C18*%
X149935000Y-125300000D03*
X149385000Y-125300000D03*
%TD*%
D22*
%TO.C,C6*%
X155510000Y-131500000D03*
X156060000Y-131500000D03*
%TD*%
D13*
%TO.C,R5*%
X137575000Y-137090000D03*
X137575000Y-137780000D03*
%TD*%
D11*
%TO.C,SW2*%
X146910000Y-132300000D03*
X143510000Y-132300000D03*
%TD*%
D10*
%TO.C,C14*%
X154110000Y-129150000D03*
X154110000Y-129700000D03*
%TD*%
D19*
%TO.C,C9*%
X141510000Y-127625000D03*
X141510000Y-127075000D03*
%TD*%
D23*
%TO.C,R6*%
X138375000Y-136925000D03*
X138375000Y-136235000D03*
%TD*%
D22*
%TO.C,C16*%
X138435000Y-131100000D03*
X138985000Y-131100000D03*
%TD*%
D19*
%TO.C,C12*%
X134710000Y-104725000D03*
X134710000Y-104175000D03*
%TD*%
D22*
%TO.C,C4*%
X153160000Y-131900000D03*
X153710000Y-131900000D03*
%TD*%
D13*
%TO.C,R3*%
X135200000Y-105655000D03*
X135200000Y-106345000D03*
%TD*%
D24*
%TO.C,U9*%
X150485000Y-128537500D03*
X150485000Y-129787500D03*
X151735000Y-128537500D03*
X151735000Y-129787500D03*
D25*
X149172500Y-128162500D03*
X149172500Y-128662500D03*
X149172500Y-129162500D03*
X149172500Y-129662500D03*
X149172500Y-130162500D03*
D26*
X150110000Y-131100000D03*
X150610000Y-131100000D03*
X151110000Y-131100000D03*
X151610000Y-131100000D03*
X152110000Y-131100000D03*
D25*
X153047500Y-130162500D03*
X153047500Y-129662500D03*
X153047500Y-129162500D03*
X153047500Y-128662500D03*
X153047500Y-128162500D03*
D26*
X152110000Y-127225000D03*
X151610000Y-127225000D03*
X151110000Y-127225000D03*
X150610000Y-127225000D03*
X150110000Y-127225000D03*
%TD*%
D19*
%TO.C,C15*%
X142310000Y-127700000D03*
X142310000Y-127150000D03*
%TD*%
D27*
%TO.C,U2*%
X155622500Y-133050000D03*
X155622500Y-133850000D03*
D28*
X154735000Y-132800000D03*
X154735000Y-133450000D03*
X154735000Y-134100000D03*
X156510000Y-134100000D03*
X156510000Y-133450000D03*
X156510000Y-132800000D03*
%TD*%
D12*
%TO.C,C10*%
X138910000Y-130100000D03*
X138360000Y-130100000D03*
%TD*%
M02*
