M48
; DRILL file KiCad 10.0.4 date 2026-07-04T11:06:14
; FORMAT={-:-/ absolute / metric / decimal}
; #@! TF.CreationDate,2026-07-04T11:06:14-04:00
; #@! TF.GenerationSoftware,Kicad,Pcbnew,10.0.4
; #@! TF.FileFunction,Plated,1,2,PTH
FMAT,2
METRIC
; #@! TA.AperFunction,Plated,PTH,ComponentDrill
T1C0.200
; #@! TA.AperFunction,Plated,PTH,ComponentDrill
T2C0.250
; #@! TA.AperFunction,Plated,PTH,ViaDrill
T3C0.300
; #@! TA.AperFunction,Plated,PTH,ComponentDrill
T4C0.550
; #@! TA.AperFunction,Plated,PTH,ComponentDrill
T5C0.750
%
G90
G05
T1
X142.775Y-108.44
X142.775Y-109.94
X143.525Y-107.69
X143.525Y-109.19
X143.525Y-110.69
X144.275Y-108.44
X144.275Y-109.94
X145.025Y-107.69
X145.025Y-109.19
X145.025Y-110.69
X145.775Y-108.44
X145.775Y-109.94
T3
X135.51Y-107.2
X136.4Y-126.0
X136.91Y-135.9
X138.51Y-128.9
X139.11Y-137.7
X139.71Y-124.3
X141.11Y-131.3
X141.6Y-125.4
X142.31Y-128.5
X142.51Y-121.9
X145.91Y-123.1
X146.91Y-128.5
X146.91Y-132.3
X150.51Y-125.3
X150.56Y-126.111
X150.685Y-132.5
X150.71Y-123.7
X151.156Y-126.478
X153.71Y-132.5
X155.51Y-107.9
X155.516Y-109.506
X155.71Y-129.9
T4
X146.965Y-137.12
X156.155Y-137.12
T5
X137.235Y-134.235
X137.235Y-139.635
X138.505Y-134.235
X138.505Y-139.635
X139.775Y-134.235
X139.775Y-139.635
T2
G00X146.965Y-139.35
M15
G01X146.965Y-140.85
M16
G05
G00X156.155Y-139.35
M15
G01X156.155Y-140.85
M16
G05
M30
