%TF.GenerationSoftware,KiCad,Pcbnew,10.0.1*%
%TF.CreationDate,2026-06-17T19:12:29-04:00*%
%TF.ProjectId,Kicad,4b696361-642e-46b6-9963-61645f706362,rev?*%
%TF.SameCoordinates,Original*%
%TF.FileFunction,Copper,L1,Top*%
%TF.FilePolarity,Positive*%
%FSLAX46Y46*%
G04 Gerber Fmt 4.6, Leading zero omitted, Abs format (unit mm)*
G04 Created by KiCad (PCBNEW 10.0.1) date 2026-06-17 19:12:29*
%MOMM*%
%LPD*%
G01*
G04 APERTURE LIST*
G04 Aperture macros list*
%AMRoundRect*
0 Rectangle with rounded corners*
0 $1 Rounding radius*
0 $2 $3 $4 $5 $6 $7 $8 $9 X,Y pos of 4 corners*
0 Add a 4 corners polygon primitive as box body*
4,1,4,$2,$3,$4,$5,$6,$7,$8,$9,$2,$3,0*
0 Add four circle primitives for the rounded corners*
1,1,$1+$1,$2,$3*
1,1,$1+$1,$4,$5*
1,1,$1+$1,$6,$7*
1,1,$1+$1,$8,$9*
0 Add four rect primitives between the rounded corners*
20,1,$1+$1,$2,$3,$4,$5,0*
20,1,$1+$1,$4,$5,$6,$7,0*
20,1,$1+$1,$6,$7,$8,$9,0*
20,1,$1+$1,$8,$9,$2,$3,0*%
G04 Aperture macros list end*
%TA.AperFunction,SMDPad,CuDef*%
%ADD10RoundRect,0.250000X-0.250000X-0.475000X0.250000X-0.475000X0.250000X0.475000X-0.250000X0.475000X0*%
%TD*%
%TA.AperFunction,SMDPad,CuDef*%
%ADD11RoundRect,0.237500X-0.250000X-0.237500X0.250000X-0.237500X0.250000X0.237500X-0.250000X0.237500X0*%
%TD*%
%TA.AperFunction,SMDPad,CuDef*%
%ADD12RoundRect,0.237500X0.237500X-0.250000X0.237500X0.250000X-0.237500X0.250000X-0.237500X-0.250000X0*%
%TD*%
%TA.AperFunction,ComponentPad*%
%ADD13R,1.700000X1.700000*%
%TD*%
%TA.AperFunction,ComponentPad*%
%ADD14C,1.700000*%
%TD*%
%TA.AperFunction,SMDPad,CuDef*%
%ADD15RoundRect,0.225000X-0.225000X-0.375000X0.225000X-0.375000X0.225000X0.375000X-0.225000X0.375000X0*%
%TD*%
%TA.AperFunction,SMDPad,CuDef*%
%ADD16RoundRect,0.050000X-0.225000X-0.050000X0.225000X-0.050000X0.225000X0.050000X-0.225000X0.050000X0*%
%TD*%
%TA.AperFunction,SMDPad,CuDef*%
%ADD17RoundRect,0.050000X0.050000X-0.225000X0.050000X0.225000X-0.050000X0.225000X-0.050000X-0.225000X0*%
%TD*%
%TA.AperFunction,SMDPad,CuDef*%
%ADD18RoundRect,0.237500X-0.237500X0.250000X-0.237500X-0.250000X0.237500X-0.250000X0.237500X0.250000X0*%
%TD*%
%TA.AperFunction,SMDPad,CuDef*%
%ADD19RoundRect,0.062500X-0.350000X-0.062500X0.350000X-0.062500X0.350000X0.062500X-0.350000X0.062500X0*%
%TD*%
%TA.AperFunction,SMDPad,CuDef*%
%ADD20RoundRect,0.062500X-0.062500X-0.350000X0.062500X-0.350000X0.062500X0.350000X-0.062500X0.350000X0*%
%TD*%
%TA.AperFunction,HeatsinkPad*%
%ADD21R,2.500000X2.500000*%
%TD*%
%TA.AperFunction,SMDPad,CuDef*%
%ADD22RoundRect,0.250000X-0.275000X-0.350000X0.275000X-0.350000X0.275000X0.350000X-0.275000X0.350000X0*%
%TD*%
%TA.AperFunction,SMDPad,CuDef*%
%ADD23RoundRect,0.075000X-0.075000X-0.275000X0.075000X-0.275000X0.075000X0.275000X-0.075000X0.275000X0*%
%TD*%
%TA.AperFunction,ComponentPad*%
%ADD24O,0.800000X1.400000*%
%TD*%
%TA.AperFunction,ComponentPad*%
%ADD25R,1.500000X1.500000*%
%TD*%
%TA.AperFunction,ComponentPad*%
%ADD26C,1.500000*%
%TD*%
%TA.AperFunction,SMDPad,CuDef*%
%ADD27R,1.500000X0.900000*%
%TD*%
%TA.AperFunction,SMDPad,CuDef*%
%ADD28R,0.900000X1.500000*%
%TD*%
%TA.AperFunction,HeatsinkPad*%
%ADD29R,1.000000X1.000000*%
%TD*%
%TA.AperFunction,HeatsinkPad*%
%ADD30C,0.600000*%
%TD*%
%TA.AperFunction,SMDPad,CuDef*%
%ADD31RoundRect,0.125000X-0.125000X-0.137500X0.125000X-0.137500X0.125000X0.137500X-0.125000X0.137500X0*%
%TD*%
%TA.AperFunction,SMDPad,CuDef*%
%ADD32RoundRect,0.375000X-0.625000X-0.375000X0.625000X-0.375000X0.625000X0.375000X-0.625000X0.375000X0*%
%TD*%
%TA.AperFunction,SMDPad,CuDef*%
%ADD33RoundRect,0.500000X-0.500000X-1.400000X0.500000X-1.400000X0.500000X1.400000X-0.500000X1.400000X0*%
%TD*%
%TA.AperFunction,SMDPad,CuDef*%
%ADD34RoundRect,0.237500X0.250000X0.237500X-0.250000X0.237500X-0.250000X-0.237500X0.250000X-0.237500X0*%
%TD*%
%TA.AperFunction,ComponentPad*%
%ADD35RoundRect,0.250000X0.275000X0.600000X-0.275000X0.600000X-0.275000X-0.600000X0.275000X-0.600000X0*%
%TD*%
%TA.AperFunction,ComponentPad*%
%ADD36O,1.050000X1.700000*%
%TD*%
%TA.AperFunction,SMDPad,CuDef*%
%ADD37RoundRect,0.250000X-0.475000X-0.250000X0.475000X-0.250000X0.475000X0.250000X-0.475000X0.250000X0*%
%TD*%
%TA.AperFunction,ViaPad*%
%ADD38C,0.600000*%
%TD*%
%TA.AperFunction,Conductor*%
%ADD39C,0.200000*%
%TD*%
G04 APERTURE END LIST*
D10*
%TO.P,C9,1*%
%TO.N,/VCC0*%
X161550000Y-62000000D03*
%TO.P,C9,2*%
%TO.N,Net-(U8-VDD)*%
X163450000Y-62000000D03*
%TD*%
D11*
%TO.P,R8,1*%
%TO.N,/GND*%
X138000000Y-59500000D03*
%TO.P,R8,2*%
%TO.N,Net-(R8-Pad2)*%
X139825000Y-59500000D03*
%TD*%
D10*
%TO.P,C8,1*%
%TO.N,/VCC0*%
X143600000Y-53500000D03*
%TO.P,C8,2*%
%TO.N,Net-(U7-VDDIO)*%
X145500000Y-53500000D03*
%TD*%
D11*
%TO.P,R5,1*%
%TO.N,/DTR_A*%
X170087500Y-69000000D03*
%TO.P,R5,2*%
%TO.N,Net-(Q2-B)*%
X171912500Y-69000000D03*
%TD*%
D12*
%TO.P,R1,1*%
%TO.N,Net-(J1-CC1)*%
X157087500Y-69412500D03*
%TO.P,R1,2*%
%TO.N,/GND*%
X157087500Y-67587500D03*
%TD*%
D13*
%TO.P,J4,1,Pin_1_1*%
%TO.N,/OROUT*%
X130500000Y-34800000D03*
D14*
%TO.P,J4,2,Pin_2_2*%
%TO.N,/GND*%
X130500000Y-37340000D03*
%TO.P,J4,3,Pin_3_3*%
X130500000Y-39880000D03*
%TO.P,J4,4,Pin_4_4*%
%TO.N,/VCC0*%
X130500000Y-42420000D03*
%TO.P,J4,5,Pin_5_5*%
%TO.N,/RJ43_P8*%
X130500000Y-44960000D03*
%TO.P,J4,6,Pin_6_6*%
%TO.N,/RJ43_P7*%
X130500000Y-47500000D03*
%TO.P,J4,7,Pin_7_7*%
%TO.N,/BOOT*%
X130500000Y-50040000D03*
%TO.P,J4,8,Pin_8_8*%
%TO.N,/IO1*%
X130500000Y-52580000D03*
%TO.P,J4,9,Pin_9_9*%
%TO.N,/IO2*%
X130500000Y-55120000D03*
%TO.P,J4,10,Pin_10_10*%
%TO.N,/IO3*%
X130500000Y-57660000D03*
%TO.P,J4,11,Pin_11_11*%
%TO.N,/IO4*%
X130500000Y-60200000D03*
%TO.P,J4,12,Pin_12_12*%
%TO.N,/IO5*%
X130500000Y-62740000D03*
%TO.P,J4,13,Pin_13_13*%
%TO.N,/IO6*%
X130500000Y-65280000D03*
%TO.P,J4,14,Pin_14_14*%
%TO.N,/IO7*%
X130500000Y-67820000D03*
%TO.P,J4,15,Pin_15_15*%
%TO.N,/IO8*%
X130500000Y-70360000D03*
%TO.P,J4,16,Pin_16_16*%
%TO.N,/IO9*%
X130500000Y-72900000D03*
%TO.P,J4,17,Pin_17_17*%
%TO.N,/CS_BUS_A*%
X130500000Y-75440000D03*
%TO.P,J4,18,Pin_18_18*%
%TO.N,/MOSI_BUS_A*%
X130500000Y-77980000D03*
%TO.P,J4,19,Pin_19_19*%
%TO.N,/SCK_BUS_A*%
X130500000Y-80520000D03*
%TO.P,J4,20,Pin_20_20*%
%TO.N,/MISO_BUS_A*%
X130500000Y-83060000D03*
%TD*%
D15*
%TO.P,D1,1,K_1*%
%TO.N,/OROUT*%
X143700000Y-57500000D03*
%TO.P,D1,2,A_2*%
%TO.N,/VIN*%
X147000000Y-57500000D03*
%TD*%
D16*
%TO.P,U8,1,RESV_VDDIO_1*%
%TO.N,/VCC0*%
X169000000Y-62000000D03*
%TO.P,U8,2*%
%TO.N,N/C*%
X169000000Y-62400000D03*
%TO.P,U8,3*%
X169000000Y-62800000D03*
%TO.P,U8,4*%
X169000000Y-63200000D03*
%TO.P,U8,5*%
X169000000Y-63600000D03*
%TO.P,U8,6*%
X169000000Y-64000000D03*
D17*
%TO.P,U8,7,AUX_CL_7*%
%TO.N,unconnected-(U8-AUX_CL-Pad7)*%
X169500000Y-64500000D03*
%TO.P,U8,8,VDDIO_8*%
%TO.N,Net-(U8-VDDIO)*%
X169900000Y-64500000D03*
%TO.P,U8,9,AD0/MISO_9*%
%TO.N,/MISO_BUS_A*%
X170300000Y-64500000D03*
%TO.P,U8,10,REGOUT_10*%
%TO.N,Net-(U8-REGOUT)*%
X170700000Y-64500000D03*
%TO.P,U8,11,FSYNC_11*%
%TO.N,unconnected-(U8-FSYNC-Pad11)*%
X171100000Y-64500000D03*
%TO.P,U8,12,INT_12*%
%TO.N,unconnected-(U8-INT-Pad12)*%
X171500000Y-64500000D03*
D16*
%TO.P,U8,13,VDD_13*%
%TO.N,Net-(U8-VDD)*%
X172000000Y-64000000D03*
%TO.P,U8,14*%
%TO.N,N/C*%
X172000000Y-63600000D03*
%TO.P,U8,15*%
X172000000Y-63200000D03*
%TO.P,U8,16*%
X172000000Y-62800000D03*
%TO.P,U8,17*%
X172000000Y-62400000D03*
%TO.P,U8,18,GND_18*%
%TO.N,/GND*%
X172000000Y-62000000D03*
D17*
%TO.P,U8,19*%
%TO.N,N/C*%
X171500000Y-61500000D03*
%TO.P,U8,20,RESV_GND_20*%
%TO.N,/GND*%
X171100000Y-61500000D03*
%TO.P,U8,21,AUX_DA_21*%
%TO.N,unconnected-(U8-AUX_DA-Pad21)*%
X170700000Y-61500000D03*
%TO.P,U8,22,~{CS}_22*%
%TO.N,/CS_BUS_A*%
X170300000Y-61500000D03*
%TO.P,U8,23,SCL/SCLK_23*%
%TO.N,/SCK_BUS_A*%
X169900000Y-61500000D03*
%TO.P,U8,24,SDA/MOSI_24*%
%TO.N,/MOSI_BUS_A*%
X169500000Y-61500000D03*
%TD*%
D18*
%TO.P,R3,1*%
%TO.N,/VCC0*%
X153500000Y-42587500D03*
%TO.P,R3,2*%
%TO.N,/ESP32_AUTORST*%
X153500000Y-44412500D03*
%TD*%
D10*
%TO.P,C11,1*%
%TO.N,Net-(U8-REGOUT)*%
X174050000Y-62500000D03*
%TO.P,C11,2*%
%TO.N,/GND*%
X175950000Y-62500000D03*
%TD*%
D19*
%TO.P,U9,1,RXD_1*%
%TO.N,/ESP32_TXD*%
X152125000Y-64000000D03*
%TO.P,U9,2,~{RI}_2*%
%TO.N,unconnected-(U9-~{RI}-Pad2)*%
X152125000Y-64500000D03*
%TO.P,U9,3,GND_3*%
%TO.N,/GND*%
X152125000Y-65000000D03*
%TO.P,U9,4,~{DSR}_4*%
%TO.N,unconnected-(U9-~{DSR}-Pad4)*%
X152125000Y-65500000D03*
%TO.P,U9,5,~{DCD}_5*%
%TO.N,unconnected-(U9-~{DCD}-Pad5)*%
X152125000Y-66000000D03*
D20*
%TO.P,U9,6,~{CTS}_6*%
%TO.N,unconnected-(U9-~{CTS}-Pad6)*%
X153062500Y-66937500D03*
%TO.P,U9,7,CBUS2_7*%
%TO.N,unconnected-(U9-CBUS2-Pad7)*%
X153562500Y-66937500D03*
%TO.P,U9,8,USBDP_8*%
%TO.N,/SERIAL_D+*%
X154062500Y-66937500D03*
%TO.P,U9,9,USBDM_9*%
%TO.N,/SERIAL_D-*%
X154562500Y-66937500D03*
%TO.P,U9,10,3V3OUT_10*%
%TO.N,/IOOUT_A*%
X155062500Y-66937500D03*
D19*
%TO.P,U9,11,~{RESET}_11*%
X156000000Y-66000000D03*
%TO.P,U9,12,VCC_12*%
%TO.N,/VCC0*%
X156000000Y-65500000D03*
%TO.P,U9,13,GND_13*%
%TO.N,/GND*%
X156000000Y-65000000D03*
%TO.P,U9,14,CBUS1_14*%
%TO.N,unconnected-(U9-CBUS1-Pad14)*%
X156000000Y-64500000D03*
%TO.P,U9,15,CBUS0_15*%
%TO.N,unconnected-(U9-CBUS0-Pad15)*%
X156000000Y-64000000D03*
D20*
%TO.P,U9,16,CBUS3_16*%
%TO.N,unconnected-(U9-CBUS3-Pad16)*%
X155062500Y-63062500D03*
%TO.P,U9,17,TXD_17*%
%TO.N,/ESP32_RXD*%
X154562500Y-63062500D03*
%TO.P,U9,18,~{DTR}_18*%
%TO.N,/DTR_A*%
X154062500Y-63062500D03*
%TO.P,U9,19,~{RTS}_19*%
%TO.N,/RTS_A*%
X153562500Y-63062500D03*
%TO.P,U9,20,VCCIO_20*%
%TO.N,/IOOUT_A*%
X153062500Y-63062500D03*
D21*
%TO.P,U9,21,GND_21*%
%TO.N,/GND*%
X154062500Y-65000000D03*
%TD*%
D22*
%TO.P,FB2,1*%
%TO.N,/5V_USB_1*%
X148700000Y-68500000D03*
%TO.P,FB2,2*%
X151000000Y-68500000D03*
%TD*%
D12*
%TO.P,R2,1*%
%TO.N,Net-(J1-CC2)*%
X159500000Y-65412500D03*
%TO.P,R2,2*%
%TO.N,/GND*%
X159500000Y-63587500D03*
%TD*%
D18*
%TO.P,R10,1*%
%TO.N,Net-(J2-CC1)*%
X172587500Y-74087500D03*
%TO.P,R10,2*%
%TO.N,/GND*%
X172587500Y-75912500D03*
%TD*%
D15*
%TO.P,D4,1,K_1*%
%TO.N,Net-(D2-A)*%
X146350000Y-61500000D03*
%TO.P,D4,2,A_2*%
%TO.N,/5V_USB_1*%
X149650000Y-61500000D03*
%TD*%
D11*
%TO.P,R6,1*%
%TO.N,/RTS_A*%
X165675000Y-67000000D03*
%TO.P,R6,2*%
%TO.N,Net-(Q1-B)*%
X167500000Y-67000000D03*
%TD*%
D23*
%TO.P,J2,A1,GND_A1*%
%TO.N,/GND*%
X162590000Y-75480000D03*
%TO.P,J2,A2*%
%TO.N,N/C*%
X163090000Y-75480000D03*
%TO.P,J2,A3*%
X163590000Y-75480000D03*
%TO.P,J2,A4,VBUS_A4*%
%TO.N,/5V_USB_0*%
X164090000Y-75480000D03*
%TO.P,J2,A5,CC1_A5*%
%TO.N,Net-(J2-CC1)*%
X164590000Y-75480000D03*
%TO.P,J2,A6,D+_A6*%
%TO.N,/NATIVE_D+*%
X165090000Y-75480000D03*
%TO.P,J2,A7,D-_A7*%
%TO.N,/NATIVE_D-*%
X165590000Y-75480000D03*
%TO.P,J2,A8*%
%TO.N,N/C*%
X166090000Y-75480000D03*
%TO.P,J2,A9,VBUS_A9*%
%TO.N,/5V_USB_0*%
X166590000Y-75480000D03*
%TO.P,J2,A10*%
%TO.N,N/C*%
X167090000Y-75480000D03*
%TO.P,J2,A11*%
X167590000Y-75480000D03*
%TO.P,J2,A12,GND_A12*%
%TO.N,/GND*%
X168090000Y-75480000D03*
%TO.P,J2,B1,GND_B1*%
X167840000Y-77180000D03*
%TO.P,J2,B2*%
%TO.N,N/C*%
X167340000Y-77180000D03*
%TO.P,J2,B3*%
X166840000Y-77180000D03*
%TO.P,J2,B4,VBUS_B4*%
%TO.N,/5V_USB_0*%
X166340000Y-77180000D03*
%TO.P,J2,B5,CC2_B5*%
%TO.N,Net-(J2-CC2)*%
X165840000Y-77180000D03*
%TO.P,J2,B6,D+_B6*%
%TO.N,/NATIVE_D+*%
X165340000Y-77180000D03*
%TO.P,J2,B7,D-_B7*%
%TO.N,/NATIVE_D-*%
X164840000Y-77180000D03*
%TO.P,J2,B8*%
%TO.N,N/C*%
X164340000Y-77180000D03*
%TO.P,J2,B9,VBUS_B9*%
%TO.N,/5V_USB_0*%
X163840000Y-77180000D03*
%TO.P,J2,B10*%
%TO.N,N/C*%
X163340000Y-77180000D03*
%TO.P,J2,B11*%
X162840000Y-77180000D03*
%TO.P,J2,B12,GND_B12*%
%TO.N,/GND*%
X162340000Y-77180000D03*
D24*
%TO.P,J2,SH,SHIELD_SH*%
X160850000Y-83340000D03*
X161210000Y-77390000D03*
X169470000Y-77390000D03*
X169830000Y-83340000D03*
%TD*%
D25*
%TO.P,J6,1*%
%TO.N,/CS_BUS_A*%
X183000000Y-72000000D03*
D26*
%TO.P,J6,2*%
%TO.N,/MISO_BUS_A*%
X184270000Y-69460000D03*
%TO.P,J6,3*%
%TO.N,/SCK_BUS_A*%
X185540000Y-72000000D03*
%TO.P,J6,4*%
%TO.N,/MOSI_BUS_A*%
X186810000Y-69460000D03*
%TO.P,J6,5*%
%TO.N,/GND*%
X188080000Y-72000000D03*
%TO.P,J6,6*%
%TO.N,/VCC0*%
X189350000Y-69460000D03*
%TO.P,J6,7*%
%TO.N,/RJ43_P7*%
X190620000Y-72000000D03*
%TO.P,J6,8*%
%TO.N,/RJ43_P8*%
X191890000Y-69460000D03*
%TD*%
D27*
%TO.P,U1,1,GND_1*%
%TO.N,/GND*%
X155610000Y-40150000D03*
%TO.P,U1,2,3V3_2*%
%TO.N,/VCC0*%
X155610000Y-41420000D03*
%TO.P,U1,3,EN_3*%
%TO.N,/ESP32_AUTORST*%
X155610000Y-42690000D03*
%TO.P,U1,4,IO4_4*%
%TO.N,/IO4*%
X155610000Y-43960000D03*
%TO.P,U1,5,IO5_5*%
%TO.N,/IO5*%
X155610000Y-45230000D03*
%TO.P,U1,6,IO6_6*%
%TO.N,/IO6*%
X155610000Y-46500000D03*
%TO.P,U1,7,IO7_7*%
%TO.N,/IO7*%
X155610000Y-47770000D03*
%TO.P,U1,8,IO15_8*%
%TO.N,/IO15*%
X155610000Y-49040000D03*
%TO.P,U1,9,IO16_9*%
%TO.N,/IO16*%
X155610000Y-50310000D03*
%TO.P,U1,10,IO17_10*%
%TO.N,/IO17*%
X155610000Y-51580000D03*
%TO.P,U1,11,IO18_11*%
%TO.N,/IO18*%
X155610000Y-52850000D03*
%TO.P,U1,12,IO8_12*%
%TO.N,/IO8*%
X155610000Y-54120000D03*
%TO.P,U1,13,USB_D-/IO19_13*%
%TO.N,/NATIVE_D-*%
X155610000Y-55390000D03*
%TO.P,U1,14,USB_D+/IO20_14*%
%TO.N,/NATIVE_D+*%
X155610000Y-56660000D03*
D28*
%TO.P,U1,15,IO3_15*%
%TO.N,/IO3*%
X157375000Y-57910000D03*
%TO.P,U1,16,IO46_16*%
%TO.N,/IO46*%
X158645000Y-57910000D03*
%TO.P,U1,17,IO9_17*%
%TO.N,/IO9*%
X159915000Y-57910000D03*
%TO.P,U1,18,IO10_18*%
%TO.N,/CS_BUS_A*%
X161185000Y-57910000D03*
%TO.P,U1,19,IO11_19*%
%TO.N,/MOSI_BUS_A*%
X162455000Y-57910000D03*
%TO.P,U1,20,IO12_20*%
%TO.N,/SCK_BUS_A*%
X163725000Y-57910000D03*
%TO.P,U1,21,IO13_21*%
%TO.N,/MISO_BUS_A*%
X164995000Y-57910000D03*
%TO.P,U1,22,IO14_22*%
%TO.N,/IO14*%
X166265000Y-57910000D03*
%TO.P,U1,23,IO21_23*%
%TO.N,/IO21*%
X167535000Y-57910000D03*
%TO.P,U1,24,IO47_24*%
%TO.N,/IO47*%
X168805000Y-57910000D03*
%TO.P,U1,25,IO48_25*%
%TO.N,/IO48*%
X170075000Y-57910000D03*
%TO.P,U1,26,IO45_26*%
%TO.N,/IO45*%
X171345000Y-57910000D03*
D27*
%TO.P,U1,27,IO0_27*%
%TO.N,/BOOT*%
X173110000Y-56660000D03*
%TO.P,U1,28,NC_28*%
%TO.N,unconnected-(U1-NC-Pad28)*%
X173110000Y-55390000D03*
%TO.P,U1,29,NC_29*%
%TO.N,unconnected-(U1-NC-Pad29)*%
X173110000Y-54120000D03*
%TO.P,U1,30,NC_30*%
%TO.N,unconnected-(U1-NC-Pad30)*%
X173110000Y-52850000D03*
%TO.P,U1,31,IO38_31*%
%TO.N,/IO38*%
X173110000Y-51580000D03*
%TO.P,U1,32,MTCK/IO39_32*%
%TO.N,/IO39*%
X173110000Y-50310000D03*
%TO.P,U1,33,MTDO/IO40_33*%
%TO.N,/IO40*%
X173110000Y-49040000D03*
%TO.P,U1,34,MTDI/IO41_34*%
%TO.N,/IO41*%
X173110000Y-47770000D03*
%TO.P,U1,35,MTMS/IO42_35*%
%TO.N,/IO42*%
X173110000Y-46500000D03*
%TO.P,U1,36,RXD0/IO44_36*%
%TO.N,/ESP32_RXD*%
X173110000Y-45230000D03*
%TO.P,U1,37,TXD0/IO43_37*%
%TO.N,/ESP32_TXD*%
X173110000Y-43960000D03*
%TO.P,U1,38,IO2_38*%
%TO.N,/IO2*%
X173110000Y-42690000D03*
%TO.P,U1,39,IO1_39*%
%TO.N,/IO1*%
X173110000Y-41420000D03*
%TO.P,U1,40,GND_40*%
%TO.N,/GND*%
X173110000Y-40150000D03*
D29*
%TO.P,U1,41,GND_41*%
X161500000Y-44000000D03*
D30*
X161500000Y-44750000D03*
D29*
X161500000Y-45500000D03*
D30*
X161500000Y-46250000D03*
D29*
X161500000Y-47000000D03*
D30*
X162250000Y-44000000D03*
X162250000Y-45500000D03*
X162250000Y-47000000D03*
D29*
X163000000Y-44000000D03*
D30*
X163000000Y-44750000D03*
D29*
X163000000Y-45500000D03*
D30*
X163000000Y-46250000D03*
D29*
X163000000Y-47000000D03*
D30*
X163750000Y-44000000D03*
X163750000Y-45500000D03*
X163750000Y-47000000D03*
D29*
X164500000Y-44000000D03*
D30*
X164500000Y-44750000D03*
D29*
X164500000Y-45500000D03*
D30*
X164500000Y-46250000D03*
D29*
X164500000Y-47000000D03*
%TD*%
D31*
%TO.P,U7,1,GND_1*%
%TO.N,/GND*%
X149600000Y-53125000D03*
%TO.P,U7,2,CSB_2*%
%TO.N,/CS_BUS_A*%
X150400000Y-53125000D03*
%TO.P,U7,3,SDI_3*%
%TO.N,/MISO_BUS_A*%
X151200000Y-53125000D03*
%TO.P,U7,4,SCK_4*%
%TO.N,/SCK_BUS_A*%
X152000000Y-53125000D03*
%TO.P,U7,5,SDO_5*%
%TO.N,/MOSI_BUS_A*%
X152000000Y-55500000D03*
%TO.P,U7,6,VDDIO_6*%
%TO.N,Net-(U7-VDDIO)*%
X151200000Y-55500000D03*
%TO.P,U7,7,GND_7*%
%TO.N,/GND*%
X150400000Y-55500000D03*
%TO.P,U7,8,VDD_8*%
%TO.N,Net-(U7-VDD)*%
X149600000Y-55500000D03*
%TD*%
D32*
%TO.P,U3,1,GND_1*%
%TO.N,/GND*%
X184200000Y-44200000D03*
%TO.P,U3,2,VO_2*%
%TO.N,/VCC0*%
X184200000Y-46500000D03*
D33*
X190500000Y-46500000D03*
D32*
%TO.P,U3,3,VI_3*%
%TO.N,/OROUT*%
X184200000Y-48800000D03*
%TD*%
D10*
%TO.P,C10,1*%
%TO.N,/VCC0*%
X165100000Y-60500000D03*
%TO.P,C10,2*%
%TO.N,Net-(U8-VDDIO)*%
X167000000Y-60500000D03*
%TD*%
D34*
%TO.P,R9,1*%
%TO.N,/VCC0*%
X179912500Y-57500000D03*
%TO.P,R9,2*%
%TO.N,/BOOT*%
X178087500Y-57500000D03*
%TD*%
D35*
%TO.P,Q1,1,E_1*%
%TO.N,/DTR_A*%
X173960000Y-68000000D03*
D36*
%TO.P,Q1,2,B_2*%
%TO.N,Net-(Q1-B)*%
X175230000Y-68000000D03*
%TO.P,Q1,3,C_3*%
%TO.N,/BOOT*%
X176500000Y-68000000D03*
%TD*%
D37*
%TO.P,SW1,1,1_1*%
%TO.N,Net-(R4-Pad1)*%
X136350000Y-44300000D03*
X141500000Y-44300000D03*
%TO.P,SW1,2,2_2*%
%TO.N,/ESP32_AUTORST*%
X136350000Y-46000000D03*
X141500000Y-46000000D03*
%TD*%
%TO.P,SW2,1,1_1*%
%TO.N,/BOOT*%
X135350000Y-54300000D03*
X140500000Y-54300000D03*
%TO.P,SW2,2,2_2*%
%TO.N,Net-(R8-Pad2)*%
X135350000Y-56000000D03*
X140500000Y-56000000D03*
%TD*%
D35*
%TO.P,Q2,1,E_1*%
%TO.N,/RTS_A*%
X174960000Y-72500000D03*
D36*
%TO.P,Q2,2,B_2*%
%TO.N,Net-(Q2-B)*%
X176230000Y-72500000D03*
%TO.P,Q2,3,C_3*%
%TO.N,/ESP32_AUTORST*%
X177500000Y-72500000D03*
%TD*%
D23*
%TO.P,J1,A1,GND_A1*%
%TO.N,/GND*%
X150760000Y-75480000D03*
%TO.P,J1,A2*%
%TO.N,N/C*%
X151260000Y-75480000D03*
%TO.P,J1,A3*%
X151760000Y-75480000D03*
%TO.P,J1,A4,VBUS_A4*%
%TO.N,/5V_USB_1*%
X152260000Y-75480000D03*
%TO.P,J1,A5,CC1_A5*%
%TO.N,Net-(J1-CC1)*%
X152760000Y-75480000D03*
%TO.P,J1,A6,D+_A6*%
%TO.N,/SERIAL_D+*%
X153260000Y-75480000D03*
%TO.P,J1,A7,D-_A7*%
%TO.N,/SERIAL_D-*%
X153760000Y-75480000D03*
%TO.P,J1,A8*%
%TO.N,N/C*%
X154260000Y-75480000D03*
%TO.P,J1,A9,VBUS_A9*%
%TO.N,/5V_USB_1*%
X154760000Y-75480000D03*
%TO.P,J1,A10*%
%TO.N,N/C*%
X155260000Y-75480000D03*
%TO.P,J1,A11*%
X155760000Y-75480000D03*
%TO.P,J1,A12,GND_A12*%
%TO.N,/GND*%
X156260000Y-75480000D03*
%TO.P,J1,B1,GND_B1*%
X156010000Y-77180000D03*
%TO.P,J1,B2*%
%TO.N,N/C*%
X155510000Y-77180000D03*
%TO.P,J1,B3*%
X155010000Y-77180000D03*
%TO.P,J1,B4,VBUS_B4*%
%TO.N,/5V_USB_1*%
X154510000Y-77180000D03*
%TO.P,J1,B5,CC2_B5*%
%TO.N,Net-(J1-CC2)*%
X154010000Y-77180000D03*
%TO.P,J1,B6,D+_B6*%
%TO.N,/SERIAL_D+*%
X153510000Y-77180000D03*
%TO.P,J1,B7,D-_B7*%
%TO.N,/SERIAL_D-*%
X153010000Y-77180000D03*
%TO.P,J1,B8*%
%TO.N,N/C*%
X152510000Y-77180000D03*
%TO.P,J1,B9,VBUS_B9*%
%TO.N,/5V_USB_1*%
X152010000Y-77180000D03*
%TO.P,J1,B10*%
%TO.N,N/C*%
X151510000Y-77180000D03*
%TO.P,J1,B11*%
X151010000Y-77180000D03*
%TO.P,J1,B12,GND_B12*%
%TO.N,/GND*%
X150510000Y-77180000D03*
D24*
%TO.P,J1,SH,SHIELD_SH*%
X149020000Y-83340000D03*
X149380000Y-77390000D03*
X157640000Y-77390000D03*
X158000000Y-83340000D03*
%TD*%
D15*
%TO.P,D3,1,K_1*%
%TO.N,Net-(D2-A)*%
X161200000Y-64500000D03*
%TO.P,D3,2,A_2*%
%TO.N,/5V_USB_0*%
X164500000Y-64500000D03*
%TD*%
D13*
%TO.P,J3,1,Pin_1_1*%
%TO.N,/IO14*%
X125000000Y-34760000D03*
D14*
%TO.P,J3,2,Pin_2_2*%
%TO.N,/IO15*%
X125000000Y-37300000D03*
%TO.P,J3,3,Pin_3_3*%
%TO.N,/IO16*%
X125000000Y-39840000D03*
%TO.P,J3,4,Pin_4_4*%
%TO.N,/IO17*%
X125000000Y-42380000D03*
%TO.P,J3,5,Pin_5_5*%
%TO.N,/IO18*%
X125000000Y-44920000D03*
%TO.P,J3,6,Pin_6_6*%
%TO.N,/NATIVE_D-*%
X125000000Y-47460000D03*
%TO.P,J3,7,Pin_7_7*%
%TO.N,/NATIVE_D+*%
X125000000Y-50000000D03*
%TO.P,J3,8,Pin_8_8*%
%TO.N,/IO21*%
X125000000Y-52540000D03*
%TO.P,J3,9,Pin_9_9*%
%TO.N,/IO38*%
X125000000Y-55080000D03*
%TO.P,J3,10,Pin_10_10*%
%TO.N,/IO39*%
X125000000Y-57620000D03*
%TO.P,J3,11,Pin_11_11*%
%TO.N,/IO40*%
X125000000Y-60160000D03*
%TO.P,J3,12,Pin_12_12*%
%TO.N,/IO41*%
X125000000Y-62700000D03*
%TO.P,J3,13,Pin_13_13*%
%TO.N,/IO42*%
X125000000Y-65240000D03*
%TO.P,J3,14,Pin_14_14*%
%TO.N,/ESP32_TXD*%
X125000000Y-67780000D03*
%TO.P,J3,15,Pin_15_15*%
%TO.N,/ESP32_RXD*%
X125000000Y-70320000D03*
%TO.P,J3,16,Pin_16_16*%
%TO.N,/IO45*%
X125000000Y-72860000D03*
%TO.P,J3,17,Pin_17_17*%
%TO.N,/IO46*%
X125000000Y-75400000D03*
%TO.P,J3,18,Pin_18_18*%
%TO.N,/IO47*%
X125000000Y-77940000D03*
%TO.P,J3,19,Pin_19_19*%
%TO.N,/IO48*%
X125000000Y-80480000D03*
%TO.P,J3,20,Pin_20_20*%
%TO.N,/VIN*%
X125000000Y-83020000D03*
%TD*%
D11*
%TO.P,R11,1*%
%TO.N,Net-(J2-CC2)*%
X174675000Y-76500000D03*
%TO.P,R11,2*%
%TO.N,/GND*%
X176500000Y-76500000D03*
%TD*%
D10*
%TO.P,C4,1*%
%TO.N,/IOOUT_A*%
X151550000Y-61000000D03*
%TO.P,C4,2*%
%TO.N,/GND*%
X153450000Y-61000000D03*
%TD*%
D12*
%TO.P,R7,1*%
%TO.N,/BOOT*%
X176000000Y-55412500D03*
%TO.P,R7,2*%
%TO.N,/VCC0*%
X176000000Y-53587500D03*
%TD*%
D11*
%TO.P,R4,1*%
%TO.N,Net-(R4-Pad1)*%
X142175000Y-41000000D03*
%TO.P,R4,2*%
%TO.N,/GND*%
X144000000Y-41000000D03*
%TD*%
D10*
%TO.P,C3,1*%
%TO.N,/VCC0*%
X149550000Y-42000000D03*
%TO.P,C3,2*%
X151450000Y-42000000D03*
%TD*%
D15*
%TO.P,D2,1,K_1*%
%TO.N,/OROUT*%
X143350000Y-66000000D03*
%TO.P,D2,2,A_2*%
%TO.N,Net-(D2-A)*%
X146650000Y-66000000D03*
%TD*%
D22*
%TO.P,FB1,1*%
%TO.N,/5V_USB_0*%
X161200000Y-68000000D03*
%TO.P,FB1,2*%
X163500000Y-68000000D03*
%TD*%
D10*
%TO.P,C7,1*%
%TO.N,/VCC0*%
X145600000Y-46000000D03*
%TO.P,C7,2*%
%TO.N,Net-(U7-VDD)*%
X147500000Y-46000000D03*
%TD*%
D38*
%TO.N,/VCC0*%
X158000000Y-63000000D03*
X160000000Y-60500000D03*
X148000000Y-42000000D03*
%TO.N,Net-(U8-VDD)*%
X173450000Y-65000000D03*
X167805735Y-62694265D03*
X168058211Y-61333684D03*
X167000000Y-64000000D03*
%TO.N,/GND*%
X159000000Y-66500000D03*
X176500000Y-61000000D03*
X174000000Y-60500000D03*
X156000000Y-62500000D03*
X157640000Y-72550000D03*
X183000000Y-42500000D03*
%TO.N,/DTR_A*%
X155275735Y-62124265D03*
%TO.N,Net-(J1-CC1)*%
X154745586Y-69790000D03*
X152600000Y-69500000D03*
X152836536Y-74699999D03*
%TO.N,/OROUT*%
X143325735Y-56685735D03*
%TO.N,/BOOT*%
X174924265Y-58924265D03*
X140500000Y-54300000D03*
X175000000Y-56500000D03*
%TO.N,/IO1*%
X173110000Y-41420000D03*
%TO.N,/IO2*%
X173110000Y-42690000D03*
%TO.N,/IO3*%
X157600000Y-57800000D03*
%TO.N,/IO4*%
X155610000Y-43960000D03*
%TO.N,/IO5*%
X155610000Y-45230000D03*
%TO.N,/IO6*%
X155610000Y-46500000D03*
%TO.N,/IO7*%
X155610000Y-47770000D03*
%TO.N,/IO8*%
X157500000Y-54400000D03*
%TO.N,/IO9*%
X159915000Y-57800000D03*
%TO.N,/CS_BUS_A*%
X153500000Y-55000000D03*
X161500000Y-56500000D03*
%TO.N,/MOSI_BUS_A*%
X162300003Y-56500000D03*
X148500000Y-66500000D03*
X153960000Y-56000000D03*
%TO.N,/SCK_BUS_A*%
X154000000Y-53500000D03*
X151350000Y-66500000D03*
X163831765Y-58016765D03*
%TO.N,/MISO_BUS_A*%
X164500000Y-56500000D03*
X155400000Y-58400000D03*
%TO.N,/ESP32_AUTORST*%
X157000000Y-42500000D03*
X178000000Y-70500000D03*
%TO.N,/ESP32_TXD*%
X175000000Y-43400000D03*
%TO.N,/SERIAL_D+*%
X153500000Y-73500000D03*
X153607958Y-67932129D03*
X154600000Y-79500000D03*
X152500000Y-68500000D03*
%TO.N,/SERIAL_D-*%
X153500000Y-80000000D03*
X154000000Y-69500000D03*
X151432376Y-73190000D03*
X154462500Y-68000000D03*
%TO.N,/ESP32_RXD*%
X173110000Y-45230000D03*
%TO.N,/RTS_A*%
X153418015Y-62225000D03*
%TO.N,Net-(J1-CC2)*%
X155000000Y-73500000D03*
X160000000Y-66500000D03*
X155000000Y-78500000D03*
%TO.N,Net-(J2-CC1)*%
X164690000Y-69500000D03*
X164638851Y-71950000D03*
X168612606Y-73150000D03*
%TO.N,/NATIVE_D+*%
X155400000Y-56500000D03*
X159500000Y-78500000D03*
X158500000Y-56500000D03*
X165190000Y-74700000D03*
%TO.N,/NATIVE_D-*%
X166500000Y-54000000D03*
X157000000Y-56000000D03*
X165000000Y-78500000D03*
%TO.N,/IO15*%
X157000000Y-49500000D03*
%TO.N,/IO16*%
X157000000Y-50500000D03*
%TO.N,/IO17*%
X153000000Y-52000000D03*
%TO.N,/IO18*%
X154000000Y-52500000D03*
%TO.N,/IO46*%
X158645000Y-57800000D03*
%TO.N,/IO14*%
X166000000Y-55000000D03*
%TO.N,/IO21*%
X167294098Y-58150902D03*
%TO.N,/IO47*%
X168455158Y-56989843D03*
%TO.N,/IO48*%
X169472500Y-55972500D03*
%TO.N,/IO45*%
X171345000Y-57910000D03*
%TO.N,/IO38*%
X173110000Y-51580000D03*
%TO.N,/IO39*%
X173110000Y-50310000D03*
%TO.N,/IO40*%
X173110000Y-49040000D03*
%TO.N,/IO41*%
X173110000Y-47770000D03*
%TO.N,/IO42*%
X173110000Y-46500000D03*
%TD*%
%TO.N,/VCC0*%
D39*
X153500000Y-41420000D02*
X155610000Y-41420000D01*
X182400000Y-42251471D02*
X182751471Y-41900000D01*
X185400000Y-41400000D02*
X179100000Y-41400000D01*
X145600000Y-46000000D02*
X145600000Y-44400000D01*
X143600000Y-48000000D02*
X145600000Y-46000000D01*
X177112500Y-53587500D02*
X184200000Y-46500000D01*
X176000000Y-53587500D02*
X177112500Y-53587500D01*
X185900000Y-41900000D02*
X190500000Y-46500000D01*
X186078249Y-48032843D02*
X182400000Y-44354594D01*
X151450000Y-42000000D02*
X152030000Y-41420000D01*
X184200000Y-46500000D02*
X179100000Y-41400000D01*
X156426886Y-65500000D02*
X156000000Y-65500000D01*
X185320000Y-62907500D02*
X179912500Y-57500000D01*
X161550000Y-62000000D02*
X160050000Y-60500000D01*
X158000000Y-63926886D02*
X156426886Y-65500000D01*
X186078249Y-51334251D02*
X186078249Y-48032843D01*
X160050000Y-60500000D02*
X160000000Y-60500000D01*
X143600000Y-53500000D02*
X143600000Y-48000000D01*
X179912500Y-57500000D02*
X186078249Y-51334251D01*
X177100000Y-39400000D02*
X150600000Y-39400000D01*
X185320000Y-69454925D02*
X185320000Y-62907500D01*
X182751471Y-41900000D02*
X185900000Y-41900000D01*
X187645075Y-73050000D02*
X187030000Y-72434925D01*
X169000000Y-60990256D02*
X167484744Y-59475000D01*
X152030000Y-41420000D02*
X153500000Y-41420000D01*
X167484744Y-59475000D02*
X166125000Y-59475000D01*
X187030000Y-72434925D02*
X187030000Y-71164925D01*
X189350000Y-69460000D02*
X189350000Y-72214925D01*
X133180000Y-45100000D02*
X144700000Y-45100000D01*
X158000000Y-63000000D02*
X158000000Y-63926886D01*
X130500000Y-42420000D02*
X133180000Y-45100000D01*
X144700000Y-45100000D02*
X145600000Y-46000000D01*
X150600000Y-39400000D02*
X148000000Y-42000000D01*
X189350000Y-72214925D02*
X188514925Y-73050000D01*
X166125000Y-59475000D02*
X165100000Y-60500000D01*
X165100000Y-60500000D02*
X160000000Y-60500000D01*
X179100000Y-41400000D02*
X177100000Y-39400000D01*
X190500000Y-46500000D02*
X185400000Y-41400000D01*
X153500000Y-42587500D02*
X153500000Y-41420000D01*
X182400000Y-44354594D02*
X182400000Y-42251471D01*
X149550000Y-42000000D02*
X148000000Y-42000000D01*
X188514925Y-73050000D02*
X187645075Y-73050000D01*
X169000000Y-62000000D02*
X169000000Y-60990256D01*
X187030000Y-71164925D02*
X185320000Y-69454925D01*
X145600000Y-44400000D02*
X148000000Y-42000000D01*
%TO.N,Net-(U8-VDD)*%
X167805735Y-62694265D02*
X167805735Y-61586160D01*
X173450000Y-65000000D02*
X173000000Y-65000000D01*
X163450000Y-62000000D02*
X165000000Y-62000000D01*
X173000000Y-65000000D02*
X172000000Y-64000000D01*
X165000000Y-62000000D02*
X167000000Y-64000000D01*
X167805735Y-61586160D02*
X168058211Y-61333684D01*
%TO.N,/GND*%
X155000000Y-61000000D02*
X156000000Y-62000000D01*
X171696360Y-60925000D02*
X171303640Y-60925000D01*
X183000000Y-43000000D02*
X183000000Y-42500000D01*
X130500000Y-39880000D02*
X133000000Y-39880000D01*
X152125000Y-65000000D02*
X154062500Y-65000000D01*
X172587500Y-75912500D02*
X170000000Y-78500000D01*
X163750000Y-44000000D02*
X164500000Y-44000000D01*
X168090000Y-70090000D02*
X168090000Y-70640000D01*
X170500000Y-76360000D02*
X169470000Y-77390000D01*
X162590000Y-75480000D02*
X162575000Y-75465000D01*
X162340000Y-72340000D02*
X162340000Y-71957590D01*
X156000000Y-62000000D02*
X156000000Y-62500000D01*
X160500000Y-76425406D02*
X160500000Y-76680000D01*
X157430000Y-77180000D02*
X157640000Y-77390000D01*
X161420000Y-72340000D02*
X162340000Y-72340000D01*
X191800000Y-48238642D02*
X191338642Y-48700000D01*
X167840000Y-72340000D02*
X169260000Y-72340000D01*
X159500000Y-63587500D02*
X158725000Y-64362500D01*
X153450000Y-61000000D02*
X155000000Y-61000000D01*
X150760000Y-75480000D02*
X150760000Y-76547590D01*
X162340000Y-71957590D02*
X162590000Y-71707590D01*
X168350000Y-40150000D02*
X173110000Y-40150000D01*
X156010000Y-77180000D02*
X157430000Y-77180000D01*
X161420000Y-77180000D02*
X161210000Y-77390000D01*
X186038642Y-39000000D02*
X191800000Y-44761358D01*
X168090000Y-75480000D02*
X168355000Y-75215000D01*
X188080000Y-48080000D02*
X184200000Y-44200000D01*
X150300000Y-77390000D02*
X150510000Y-77180000D01*
X150760000Y-76547590D02*
X150510000Y-76797590D01*
X165775000Y-67775000D02*
X168090000Y-70090000D01*
X156260000Y-75480000D02*
X156525000Y-75215000D01*
X144000000Y-41000000D02*
X146000000Y-39000000D01*
X156000000Y-65000000D02*
X155573114Y-65000000D01*
X157087500Y-67587500D02*
X157912500Y-67587500D01*
X158725000Y-66225000D02*
X159000000Y-66500000D01*
X170500000Y-76241852D02*
X170500000Y-76360000D01*
X133000000Y-39880000D02*
X142880000Y-39880000D01*
X176500000Y-76500000D02*
X174500000Y-78500000D01*
X162575000Y-75465000D02*
X161460406Y-75465000D01*
X149380000Y-72550000D02*
X149380000Y-74100000D01*
X171100000Y-61128640D02*
X171100000Y-61500000D01*
X150400000Y-53992006D02*
X149600000Y-53192006D01*
X147985619Y-72550000D02*
X149380000Y-72550000D01*
X172728640Y-60500000D02*
X174000000Y-60500000D01*
X155287500Y-64714386D02*
X155287500Y-63785614D01*
X160500000Y-76680000D02*
X161210000Y-77390000D01*
X176500000Y-61950000D02*
X175950000Y-62500000D01*
X155287500Y-63785614D02*
X156000000Y-63073114D01*
X156000000Y-63073114D02*
X156000000Y-62500000D01*
X162340000Y-77180000D02*
X161420000Y-77180000D01*
X130500000Y-37340000D02*
X133000000Y-39840000D01*
X158185000Y-76845000D02*
X157640000Y-77390000D01*
X167840000Y-77180000D02*
X169260000Y-77180000D01*
X162590000Y-75480000D02*
X162590000Y-76244594D01*
X154062500Y-65000000D02*
X156000000Y-65000000D01*
X163142157Y-66882843D02*
X163792587Y-66882843D01*
X169473148Y-75215000D02*
X170500000Y-76241852D01*
X157912500Y-67587500D02*
X159000000Y-66500000D01*
X157643148Y-75215000D02*
X158185000Y-75756852D01*
X191338642Y-48700000D02*
X189200000Y-48700000D01*
X161444594Y-77390000D02*
X157640000Y-77390000D01*
X174500000Y-78500000D02*
X169830000Y-78500000D01*
X164500000Y-44000000D02*
X160650000Y-40150000D01*
X172000000Y-61228640D02*
X171696360Y-60925000D01*
X163792587Y-66882843D02*
X164684744Y-67775000D01*
X142880000Y-39880000D02*
X144000000Y-41000000D01*
X170000000Y-78500000D02*
X169830000Y-78500000D01*
X162590000Y-71707590D02*
X162590000Y-67435000D01*
X176500000Y-61000000D02*
X176500000Y-61950000D01*
X149380000Y-74100000D02*
X150760000Y-75480000D01*
X158725000Y-64362500D02*
X158725000Y-66225000D01*
X168355000Y-75215000D02*
X169473148Y-75215000D01*
X184200000Y-44200000D02*
X183000000Y-43000000D01*
X172000000Y-62000000D02*
X172000000Y-61228640D01*
X171303640Y-60925000D02*
X171100000Y-61128640D01*
X150400000Y-55500000D02*
X150400000Y-53992006D01*
X191800000Y-44761358D02*
X191800000Y-48238642D01*
X149380000Y-77390000D02*
X150300000Y-77390000D01*
X162590000Y-75480000D02*
X162590000Y-73930000D01*
X169260000Y-77180000D02*
X169470000Y-77390000D01*
X169260000Y-72340000D02*
X169470000Y-72550000D01*
X162590000Y-67435000D02*
X163142157Y-66882843D01*
X164500000Y-44000000D02*
X168350000Y-40150000D01*
X149600000Y-53192006D02*
X149600000Y-53125000D01*
X138000000Y-59500000D02*
X138000000Y-62564381D01*
X162590000Y-76244594D02*
X161444594Y-77390000D01*
X146000000Y-39000000D02*
X186038642Y-39000000D01*
X188080000Y-72000000D02*
X188080000Y-48080000D01*
X138000000Y-62564381D02*
X147985619Y-72550000D01*
X161460406Y-75465000D02*
X160500000Y-76425406D01*
X156525000Y-75215000D02*
X157643148Y-75215000D01*
X150510000Y-76797590D02*
X150510000Y-77180000D01*
X164684744Y-67775000D02*
X165775000Y-67775000D01*
X172000000Y-61228640D02*
X172728640Y-60500000D01*
X155573114Y-65000000D02*
X155287500Y-64714386D01*
X162590000Y-73930000D02*
X161210000Y-72550000D01*
X133000000Y-39840000D02*
X133000000Y-39880000D01*
X158185000Y-75756852D02*
X158185000Y-76845000D01*
X189200000Y-48700000D02*
X183000000Y-42500000D01*
X161210000Y-72550000D02*
X161420000Y-72340000D01*
X160650000Y-40150000D02*
X155610000Y-40150000D01*
%TO.N,Net-(R8-Pad2)*%
X140500000Y-56000000D02*
X139825000Y-56675000D01*
X139825000Y-56675000D02*
X139825000Y-59500000D01*
X140500000Y-56000000D02*
X135350000Y-56000000D01*
%TO.N,Net-(U7-VDDIO)*%
X151200000Y-55500000D02*
X151200000Y-55567006D01*
X148062500Y-56062500D02*
X145500000Y-53500000D01*
X151200000Y-55567006D02*
X150704506Y-56062500D01*
X150704506Y-56062500D02*
X148062500Y-56062500D01*
%TO.N,/DTR_A*%
X155275735Y-62124265D02*
X155223942Y-62176058D01*
X170087500Y-69000000D02*
X171087500Y-68000000D01*
X155223942Y-62176058D02*
X154323942Y-62176058D01*
X154062500Y-62437500D02*
X154062500Y-63062500D01*
X171087500Y-68000000D02*
X173960000Y-68000000D01*
X154323942Y-62176058D02*
X154062500Y-62437500D01*
%TO.N,Net-(Q2-B)*%
X176230000Y-72100000D02*
X176230000Y-72500000D01*
X171912500Y-69000000D02*
X173130000Y-69000000D01*
X173130000Y-69000000D02*
X176230000Y-72100000D01*
%TO.N,Net-(J1-CC1)*%
X155123086Y-69412500D02*
X154745586Y-69790000D01*
X152760000Y-74776535D02*
X152760000Y-75480000D01*
X152760000Y-69660000D02*
X152600000Y-69500000D01*
X152836536Y-74699999D02*
X152760000Y-74776535D01*
X157087500Y-69412500D02*
X155123086Y-69412500D01*
%TO.N,/OROUT*%
X143325735Y-56685735D02*
X143325735Y-57125735D01*
X143325735Y-57125735D02*
X143700000Y-57500000D01*
X143350000Y-57850000D02*
X143700000Y-57500000D01*
X143350000Y-59000000D02*
X143350000Y-57850000D01*
X174000000Y-59000000D02*
X184200000Y-48800000D01*
X143350000Y-66000000D02*
X143350000Y-59000000D01*
X143350000Y-59000000D02*
X174000000Y-59000000D01*
%TO.N,/RJ43_P8*%
X125586346Y-33100000D02*
X129350000Y-36863654D01*
X191890000Y-69460000D02*
X191890000Y-72214925D01*
X179204925Y-84900000D02*
X123600000Y-84900000D01*
X129350000Y-36863654D02*
X129350000Y-43810000D01*
X123600000Y-33100000D02*
X125586346Y-33100000D01*
X123600000Y-84900000D02*
X123600000Y-33100000D01*
X191890000Y-72214925D02*
X179204925Y-84900000D01*
X129350000Y-43810000D02*
X130500000Y-44960000D01*
%TO.N,/BOOT*%
X175174265Y-59174265D02*
X174924265Y-58924265D01*
X178087500Y-57500000D02*
X176348530Y-57500000D01*
X148311048Y-60290256D02*
X150750000Y-60290256D01*
X152075736Y-68075736D02*
X152251471Y-67900000D01*
X175174265Y-66450000D02*
X175174265Y-63234009D01*
X176000000Y-55500000D02*
X175000000Y-56500000D01*
X142901304Y-66900000D02*
X147098696Y-66900000D01*
X142600000Y-56400000D02*
X142600000Y-66598696D01*
X175150000Y-61790256D02*
X175174265Y-61765991D01*
X147400000Y-61201304D02*
X148311048Y-60290256D01*
X142600000Y-66598696D02*
X142901304Y-66900000D01*
X150750000Y-66750000D02*
X152075736Y-68075736D01*
X176000000Y-55412500D02*
X176000000Y-55500000D01*
X153165686Y-68600000D02*
X159051304Y-68600000D01*
X175174265Y-63234009D02*
X175150000Y-63209744D01*
X147098696Y-66900000D02*
X147400000Y-66598696D01*
X164051304Y-63600000D02*
X165354222Y-63600000D01*
X147400000Y-66598696D02*
X147400000Y-61201304D01*
X140500000Y-54300000D02*
X135350000Y-54300000D01*
X173270000Y-56500000D02*
X173110000Y-56660000D01*
X140500000Y-54300000D02*
X142600000Y-56400000D01*
X176348530Y-57500000D02*
X174924265Y-58924265D01*
X153100000Y-68251471D02*
X153100000Y-68534314D01*
X159051304Y-68600000D02*
X164051304Y-63600000D01*
X152748529Y-67900000D02*
X153100000Y-68251471D01*
X152251471Y-67900000D02*
X152748529Y-67900000D01*
X175000000Y-56500000D02*
X173270000Y-56500000D01*
X175174265Y-61765991D02*
X175174265Y-59174265D01*
X153100000Y-68534314D02*
X153165686Y-68600000D01*
X175150000Y-63209744D02*
X175150000Y-61790256D01*
X168204222Y-66450000D02*
X175174265Y-66450000D01*
X150750000Y-60290256D02*
X150750000Y-66750000D01*
X165354222Y-63600000D02*
X168204222Y-66450000D01*
%TO.N,/IO8*%
X156820000Y-54120000D02*
X155610000Y-54120000D01*
X157100000Y-54400000D02*
X156820000Y-54120000D01*
X157500000Y-54400000D02*
X157100000Y-54400000D01*
%TO.N,/CS_BUS_A*%
X150400000Y-53125000D02*
X150400000Y-53192006D01*
X161500000Y-56500000D02*
X161500000Y-57595000D01*
X152145494Y-54937500D02*
X153437500Y-54937500D01*
X161500000Y-57595000D02*
X161185000Y-57910000D01*
X153437500Y-54937500D02*
X153500000Y-55000000D01*
X150400000Y-53192006D02*
X152145494Y-54937500D01*
%TO.N,/MOSI_BUS_A*%
X162300003Y-56500000D02*
X162300003Y-57755003D01*
X152500000Y-56000000D02*
X153960000Y-56000000D01*
X162300003Y-57755003D02*
X162455000Y-57910000D01*
X152000000Y-55500000D02*
X152500000Y-56000000D01*
%TO.N,/SCK_BUS_A*%
X153625000Y-53125000D02*
X154000000Y-53500000D01*
X152000000Y-53125000D02*
X153625000Y-53125000D01*
%TO.N,/MISO_BUS_A*%
X153748529Y-54400000D02*
X154560000Y-55211471D01*
X164500000Y-56500000D02*
X164500000Y-57415000D01*
X152173680Y-54400000D02*
X153748529Y-54400000D01*
X151200000Y-53426320D02*
X152173680Y-54400000D01*
X164500000Y-57415000D02*
X164995000Y-57910000D01*
X151200000Y-53125000D02*
X151200000Y-53426320D01*
X154560000Y-55211471D02*
X154560000Y-57560000D01*
X154560000Y-57560000D02*
X155400000Y-58400000D01*
%TO.N,/VIN*%
X134640256Y-53500000D02*
X131630256Y-56510000D01*
X141209744Y-53500000D02*
X134640256Y-53500000D01*
X147000000Y-57500000D02*
X145209744Y-57500000D01*
X130023654Y-56510000D02*
X126150000Y-60383654D01*
X126150000Y-60383654D02*
X126150000Y-81870000D01*
X145209744Y-57500000D02*
X141209744Y-53500000D01*
X131630256Y-56510000D02*
X130023654Y-56510000D01*
X126150000Y-81870000D02*
X125000000Y-83020000D01*
%TO.N,Net-(U8-VDDIO)*%
X167000000Y-60500000D02*
X167000000Y-62771360D01*
X167000000Y-62771360D02*
X169303640Y-65075000D01*
X169303640Y-65075000D02*
X169696360Y-65075000D01*
X169696360Y-65075000D02*
X169900000Y-64871360D01*
X169900000Y-64871360D02*
X169900000Y-64500000D01*
%TO.N,Net-(U8-REGOUT)*%
X170700000Y-64871360D02*
X170700000Y-64500000D01*
X174050000Y-62500000D02*
X174050000Y-65950000D01*
X171828640Y-66000000D02*
X170700000Y-64871360D01*
X174050000Y-65950000D02*
X174000000Y-66000000D01*
X174000000Y-66000000D02*
X171828640Y-66000000D01*
%TO.N,/ESP32_AUTORST*%
X148780256Y-43210000D02*
X154500000Y-43210000D01*
X155090000Y-43210000D02*
X155610000Y-42690000D01*
X146700000Y-45290256D02*
X148780256Y-43210000D01*
X136350000Y-46000000D02*
X136350000Y-47759744D01*
X141500000Y-46000000D02*
X141500000Y-52909744D01*
X144700000Y-53909744D02*
X144700000Y-52000000D01*
X177500000Y-72500000D02*
X177500000Y-71000000D01*
X154500000Y-43210000D02*
X155090000Y-43210000D01*
X143115256Y-54525000D02*
X144084744Y-54525000D01*
X141500000Y-52909744D02*
X143115256Y-54525000D01*
X177500000Y-71000000D02*
X178000000Y-70500000D01*
X157000000Y-42500000D02*
X155800000Y-42500000D01*
X154500000Y-43412500D02*
X154500000Y-43210000D01*
X136350000Y-47759744D02*
X143115256Y-54525000D01*
X155800000Y-42500000D02*
X155610000Y-42690000D01*
X144700000Y-52000000D02*
X146700000Y-50000000D01*
X153500000Y-44412500D02*
X154500000Y-43412500D01*
X146700000Y-50000000D02*
X146700000Y-45290256D01*
X144084744Y-54525000D02*
X144700000Y-53909744D01*
%TO.N,/ESP32_TXD*%
X174440000Y-43960000D02*
X173110000Y-43960000D01*
X175000000Y-43400000D02*
X174440000Y-43960000D01*
%TO.N,/SERIAL_D+*%
X153510000Y-77944314D02*
X154600000Y-79034314D01*
X153260000Y-69240000D02*
X153260000Y-70640000D01*
X154600000Y-79034314D02*
X154600000Y-79500000D01*
X153260000Y-76547590D02*
X153510000Y-76797590D01*
X153500000Y-69000000D02*
X153260000Y-69240000D01*
X153510000Y-76797590D02*
X153510000Y-77180000D01*
X153260000Y-75480000D02*
X153260000Y-76547590D01*
X152700000Y-68700000D02*
X153000001Y-69000000D01*
X153000001Y-69000000D02*
X153500000Y-69000000D01*
X153607958Y-67932129D02*
X154062500Y-67477587D01*
X153510000Y-77180000D02*
X153510000Y-77944314D01*
X152700000Y-68500000D02*
X152700000Y-68700000D01*
X154062500Y-67477587D02*
X154062500Y-66937500D01*
X152500000Y-68500000D02*
X152700000Y-68500000D01*
%TO.N,/SERIAL_D-*%
X152961471Y-73190000D02*
X151432376Y-73190000D01*
X153010000Y-78010000D02*
X153010000Y-77180000D01*
X153760000Y-69740000D02*
X153760000Y-70640000D01*
X153748529Y-74100000D02*
X153251471Y-74100000D01*
X154562500Y-66937500D02*
X154562500Y-67900000D01*
X152900000Y-73748529D02*
X152900000Y-73251471D01*
X153251471Y-74100000D02*
X152900000Y-73748529D01*
X153760000Y-74088529D02*
X153748529Y-74100000D01*
X154562500Y-67900000D02*
X154462500Y-68000000D01*
X153760000Y-75480000D02*
X153760000Y-74088529D01*
X153500000Y-80000000D02*
X153500000Y-78500000D01*
X154000000Y-69500000D02*
X153760000Y-69740000D01*
X153500000Y-78500000D02*
X153010000Y-78010000D01*
X152900000Y-73251471D02*
X152961471Y-73190000D01*
%TO.N,/IOOUT_A*%
X156492572Y-66000000D02*
X158600000Y-63892572D01*
X156000000Y-66000000D02*
X155062500Y-66937500D01*
X158600000Y-62751471D02*
X155823529Y-59975000D01*
X152500000Y-62500000D02*
X153062500Y-63062500D01*
X153062500Y-63062500D02*
X152135614Y-63062500D01*
X158600000Y-63892572D02*
X158600000Y-62751471D01*
X155823529Y-59975000D02*
X152525000Y-59975000D01*
X152500000Y-60000000D02*
X152500000Y-62500000D01*
X151550000Y-63648114D02*
X151550000Y-61000000D01*
X151412500Y-63785614D02*
X151550000Y-63648114D01*
X152525000Y-59975000D02*
X152500000Y-60000000D01*
X152135614Y-63062500D02*
X151412500Y-63785614D01*
X156000000Y-66000000D02*
X156492572Y-66000000D01*
%TO.N,/RTS_A*%
X166162500Y-67000000D02*
X171662500Y-72500000D01*
X171662500Y-72500000D02*
X174960000Y-72500000D01*
X165675000Y-67000000D02*
X166162500Y-67000000D01*
X153562500Y-63062500D02*
X153562500Y-62369485D01*
X153562500Y-62369485D02*
X153418015Y-62225000D01*
%TO.N,/5V_USB_1*%
X152260000Y-71707590D02*
X152010000Y-71957590D01*
X152010000Y-76500000D02*
X152010000Y-76112410D01*
X154760000Y-75480000D02*
X154760000Y-74588529D01*
X150832376Y-73438529D02*
X150832376Y-72941471D01*
X152260000Y-70240000D02*
X152000000Y-69980000D01*
X155600000Y-73748529D02*
X155600000Y-73251471D01*
X150832376Y-72941471D02*
X151816257Y-71957590D01*
X154492410Y-71290000D02*
X152527590Y-71290000D01*
X154760000Y-76547590D02*
X154510000Y-76797590D01*
X154760000Y-75480000D02*
X154760000Y-76547590D01*
X154510000Y-76797590D02*
X154510000Y-77180000D01*
X152260000Y-70640000D02*
X152260000Y-71707590D01*
X154760000Y-74588529D02*
X155600000Y-73748529D01*
X154688529Y-72340000D02*
X154510000Y-72340000D01*
X151500000Y-68500000D02*
X151000000Y-68500000D01*
X152260000Y-70640000D02*
X152260000Y-70240000D01*
X151816257Y-71957590D02*
X152010000Y-71957590D01*
X152260000Y-71022410D02*
X152260000Y-70640000D01*
X154760000Y-76547590D02*
X154712410Y-76500000D01*
X154510000Y-72340000D02*
X154510000Y-71272410D01*
X152260000Y-74866153D02*
X150832376Y-73438529D01*
X152000000Y-69980000D02*
X152000000Y-69000000D01*
X155600000Y-73251471D02*
X154688529Y-72340000D01*
X152000000Y-69000000D02*
X151500000Y-68500000D01*
X152527590Y-71290000D02*
X152260000Y-71022410D01*
X152010000Y-77180000D02*
X152010000Y-76500000D01*
X149650000Y-66650000D02*
X149650000Y-61500000D01*
X152010000Y-76112410D02*
X152260000Y-75862410D01*
X148700000Y-67600000D02*
X149650000Y-66650000D01*
X148700000Y-68500000D02*
X148700000Y-67600000D01*
X152260000Y-75480000D02*
X152260000Y-74866153D01*
X152260000Y-75862410D02*
X152260000Y-75480000D01*
%TO.N,Net-(J1-CC2)*%
X155000000Y-73500000D02*
X154787590Y-73500000D01*
X154010000Y-77628095D02*
X154010000Y-77180000D01*
X159500000Y-65412500D02*
X159500000Y-66000000D01*
X154881905Y-78500000D02*
X154010000Y-77628095D01*
X155000000Y-78500000D02*
X154881905Y-78500000D01*
X159500000Y-66000000D02*
X160000000Y-66500000D01*
%TO.N,Net-(J2-CC1)*%
X164690000Y-69500000D02*
X164590000Y-69600000D01*
X164590000Y-71998851D02*
X164638851Y-71950000D01*
X164590000Y-75480000D02*
X164590000Y-71998851D01*
X169550106Y-74087500D02*
X168612606Y-73150000D01*
X172587500Y-74087500D02*
X169550106Y-74087500D01*
%TO.N,Net-(D2-A)*%
X144000000Y-63350000D02*
X144000000Y-60000000D01*
X146650000Y-66000000D02*
X144000000Y-63350000D01*
X156200000Y-59500000D02*
X144500000Y-59500000D01*
X144500000Y-59500000D02*
X146350000Y-61350000D01*
X146350000Y-61350000D02*
X146350000Y-61500000D01*
X161200000Y-64500000D02*
X156200000Y-59500000D01*
X144000000Y-60000000D02*
X144500000Y-59500000D01*
%TO.N,Net-(Q1-B)*%
X167650000Y-66850000D02*
X175191726Y-66850000D01*
X167500000Y-67000000D02*
X167650000Y-66850000D01*
X175230000Y-66888274D02*
X175230000Y-68000000D01*
X175191726Y-66850000D02*
X175230000Y-66888274D01*
%TO.N,/5V_USB_0*%
X163840000Y-71957590D02*
X164090000Y-71707590D01*
X163840000Y-72340000D02*
X163840000Y-71957590D01*
X166590000Y-75097590D02*
X166590000Y-75480000D01*
X164357590Y-71290000D02*
X164090000Y-71022410D01*
X164090000Y-72590000D02*
X164090000Y-75480000D01*
X164090000Y-71022410D02*
X164090000Y-70640000D01*
X166322410Y-71290000D02*
X164357590Y-71290000D01*
X165560000Y-71940000D02*
X165440000Y-72060000D01*
X164090000Y-71707590D02*
X164090000Y-70640000D01*
X164090000Y-68590000D02*
X164090000Y-70640000D01*
X166340000Y-71957590D02*
X166322410Y-71940000D01*
X166590000Y-70640000D02*
X166590000Y-71707590D01*
X166590000Y-70640000D02*
X166590000Y-71022410D01*
X165440000Y-72060000D02*
X165440000Y-73947590D01*
X164090000Y-64910000D02*
X164500000Y-64500000D01*
X164500000Y-64700000D02*
X164500000Y-64500000D01*
X163840000Y-76797590D02*
X163840000Y-77180000D01*
X166590000Y-76547590D02*
X166340000Y-76797590D01*
X164090000Y-76547590D02*
X163840000Y-76797590D01*
X166590000Y-71707590D02*
X166340000Y-71957590D01*
X164090000Y-75480000D02*
X164090000Y-76547590D01*
X166322410Y-71940000D02*
X165560000Y-71940000D01*
X163500000Y-68000000D02*
X164090000Y-68590000D01*
X161200000Y-68000000D02*
X164500000Y-64700000D01*
X166590000Y-75480000D02*
X166590000Y-76547590D01*
X163840000Y-72340000D02*
X164090000Y-72590000D01*
X166590000Y-71022410D02*
X166322410Y-71290000D01*
X165440000Y-73947590D02*
X166590000Y-75097590D01*
X166340000Y-76797590D02*
X166340000Y-77180000D01*
%TO.N,/NATIVE_D+*%
X165340000Y-77991471D02*
X165600000Y-78251471D01*
X165090000Y-74800000D02*
X165090000Y-75480000D01*
X155610000Y-56660000D02*
X158340000Y-56660000D01*
X160100000Y-79100000D02*
X159500000Y-78500000D01*
X165600000Y-78748529D02*
X165248529Y-79100000D01*
X165340000Y-77180000D02*
X165340000Y-77991471D01*
X165600000Y-78251471D02*
X165600000Y-78748529D01*
X165248529Y-79100000D02*
X160100000Y-79100000D01*
X165190000Y-74700000D02*
X165090000Y-74800000D01*
X158340000Y-56660000D02*
X158500000Y-56500000D01*
%TO.N,/NATIVE_D-*%
X164840000Y-76612410D02*
X165590000Y-75862410D01*
X162500000Y-54000000D02*
X166500000Y-54000000D01*
X157000000Y-56000000D02*
X156390000Y-55390000D01*
X165590000Y-75862410D02*
X165590000Y-75480000D01*
X156390000Y-55390000D02*
X155610000Y-55390000D01*
X164840000Y-77180000D02*
X164840000Y-76612410D01*
X165000000Y-78500000D02*
X164840000Y-78340000D01*
X155610000Y-55390000D02*
X161110000Y-55390000D01*
X161110000Y-55390000D02*
X162500000Y-54000000D01*
X164840000Y-78340000D02*
X164840000Y-77180000D01*
%TO.N,Net-(J2-CC2)*%
X167177590Y-78900000D02*
X165840000Y-77562410D01*
X176416722Y-75162500D02*
X177287500Y-76033278D01*
X177287500Y-76033278D02*
X177287500Y-76966722D01*
X173337500Y-75162500D02*
X173300000Y-75125000D01*
X173337500Y-75162500D02*
X176416722Y-75162500D01*
X174675000Y-76500000D02*
X173337500Y-75162500D01*
X177287500Y-76966722D02*
X175354222Y-78900000D01*
X175354222Y-78900000D02*
X167177590Y-78900000D01*
X165840000Y-77562410D02*
X165840000Y-77180000D01*
%TO.N,/IO15*%
X157000000Y-49500000D02*
X156070000Y-49500000D01*
X156070000Y-49500000D02*
X155610000Y-49040000D01*
%TO.N,/IO16*%
X155800000Y-50500000D02*
X155610000Y-50310000D01*
X157000000Y-50500000D02*
X155800000Y-50500000D01*
%TO.N,/IO17*%
X155610000Y-51580000D02*
X153420000Y-51580000D01*
X153420000Y-51580000D02*
X153000000Y-52000000D01*
%TO.N,/IO18*%
X155260000Y-52500000D02*
X155610000Y-52850000D01*
X154000000Y-52500000D02*
X155260000Y-52500000D01*
%TO.N,/IO14*%
X166000000Y-57820000D02*
X166090000Y-57910000D01*
X166090000Y-57910000D02*
X166265000Y-57910000D01*
X166000000Y-55000000D02*
X166000000Y-57820000D01*
%TO.N,/IO47*%
X168455158Y-56989843D02*
X168455158Y-57560158D01*
X168455158Y-57560158D02*
X168805000Y-57910000D01*
%TO.N,/IO48*%
X169472500Y-55972500D02*
X170075000Y-56575000D01*
X170075000Y-56575000D02*
X170075000Y-57910000D01*
%TO.N,Net-(U7-VDD)*%
X147500000Y-53400000D02*
X149600000Y-55500000D01*
X147500000Y-46000000D02*
X147500000Y-53400000D01*
%TO.N,Net-(R4-Pad1)*%
X142175000Y-41000000D02*
X139650000Y-41000000D01*
X141500000Y-44300000D02*
X136350000Y-44300000D01*
X139650000Y-41000000D02*
X136350000Y-44300000D01*
%TD*%
M02*
