%TF.GenerationSoftware,KiCad,Pcbnew,10.0.1*%
%TF.CreationDate,2026-06-17T18:00:27-04:00*%
%TF.ProjectId,Kicad,4b696361-642e-46b6-9963-61645f706362,rev?*%
%TF.SameCoordinates,Original*%
%TF.FileFunction,Soldermask,Bot*%
%TF.FilePolarity,Negative*%
%FSLAX46Y46*%
G04 Gerber Fmt 4.6, Leading zero omitted, Abs format (unit mm)*
G04 Created by KiCad (PCBNEW 10.0.1) date 2026-06-17 18:00:27*
%MOMM*%
%LPD*%
G01*
G04 APERTURE LIST*
G04 Aperture macros list*
%AMRoundRect*
0 Rectangle with rounded corners*
0 $1 Rounding radius*
0 $2 $3 $4 $5 $6 $7 $8 $9 X,Y pos of 4 corners*
0 Add a 4 corners polygon primitive as box body*
4,1,4,$2,$3,$4,$5,$6,$7,$8,$9,$2,$3,0*
0 Add four circle primitives for the rounded corners*
1,1,$1+$1,$2,$3*
1,1,$1+$1,$4,$5*
1,1,$1+$1,$6,$7*
1,1,$1+$1,$8,$9*
0 Add four rect primitives between the rounded corners*
20,1,$1+$1,$2,$3,$4,$5,0*
20,1,$1+$1,$4,$5,$6,$7,0*
20,1,$1+$1,$6,$7,$8,$9,0*
20,1,$1+$1,$8,$9,$2,$3,0*%
G04 Aperture macros list end*
%ADD10O,0.800000X1.400000*%
%ADD11O,0.950000X0.650000*%
%ADD12C,0.650000*%
%ADD13R,1.700000X1.700000*%
%ADD14C,1.700000*%
%ADD15C,3.200000*%
%ADD16R,1.500000X1.500000*%
%ADD17C,1.500000*%
%ADD18C,0.600000*%
%ADD19RoundRect,0.250000X0.275000X0.600000X-0.275000X0.600000X-0.275000X-0.600000X0.275000X-0.600000X0*%
%ADD20O,1.050000X1.700000*%
G04 APERTURE END LIST*
D10*
%TO.C,J1*%
X158000000Y-83340000D03*
X157640000Y-77390000D03*
X149380000Y-77390000D03*
X149020000Y-83340000D03*
D11*
X157110000Y-76140000D03*
D12*
X149910000Y-76140000D03*
%TD*%
D13*
%TO.C,J4*%
X130500000Y-34800000D03*
D14*
X130500000Y-37340000D03*
X130500000Y-39880000D03*
X130500000Y-42420000D03*
X130500000Y-44960000D03*
X130500000Y-47500000D03*
X130500000Y-50040000D03*
X130500000Y-52580000D03*
X130500000Y-55120000D03*
X130500000Y-57660000D03*
X130500000Y-60200000D03*
X130500000Y-62740000D03*
X130500000Y-65280000D03*
X130500000Y-67820000D03*
X130500000Y-70360000D03*
X130500000Y-72900000D03*
X130500000Y-75440000D03*
X130500000Y-77980000D03*
X130500000Y-80520000D03*
X130500000Y-83060000D03*
%TD*%
D12*
%TO.C,J2*%
X161740000Y-76140000D03*
D11*
X168940000Y-76140000D03*
D10*
X160850000Y-83340000D03*
X161210000Y-77390000D03*
X169470000Y-77390000D03*
X169830000Y-83340000D03*
%TD*%
D15*
%TO.C,J6*%
X181730000Y-78350000D03*
X193160000Y-78350000D03*
D16*
X183000000Y-72000000D03*
D17*
X184270000Y-69460000D03*
X185540000Y-72000000D03*
X186810000Y-69460000D03*
X188080000Y-72000000D03*
X189350000Y-69460000D03*
X190620000Y-72000000D03*
X191890000Y-69460000D03*
%TD*%
D18*
%TO.C,U1*%
X161500000Y-44750000D03*
X161500000Y-46250000D03*
X162250000Y-44000000D03*
X162250000Y-45500000D03*
X162250000Y-47000000D03*
X163000000Y-44750000D03*
X163000000Y-46250000D03*
X163750000Y-44000000D03*
X163750000Y-45500000D03*
X163750000Y-47000000D03*
X164500000Y-44750000D03*
X164500000Y-46250000D03*
%TD*%
D19*
%TO.C,Q1*%
X173960000Y-68000000D03*
D20*
X175230000Y-68000000D03*
X176500000Y-68000000D03*
%TD*%
D19*
%TO.C,Q2*%
X174960000Y-72500000D03*
D20*
X176230000Y-72500000D03*
X177500000Y-72500000D03*
%TD*%
D13*
%TO.C,J3*%
X125000000Y-34760000D03*
D14*
X125000000Y-37300000D03*
X125000000Y-39840000D03*
X125000000Y-42380000D03*
X125000000Y-44920000D03*
X125000000Y-47460000D03*
X125000000Y-50000000D03*
X125000000Y-52540000D03*
X125000000Y-55080000D03*
X125000000Y-57620000D03*
X125000000Y-60160000D03*
X125000000Y-62700000D03*
X125000000Y-65240000D03*
X125000000Y-67780000D03*
X125000000Y-70320000D03*
X125000000Y-72860000D03*
X125000000Y-75400000D03*
X125000000Y-77940000D03*
X125000000Y-80480000D03*
X125000000Y-83020000D03*
%TD*%
M02*
