%TF.GenerationSoftware,KiCad,Pcbnew,10.0.1*%
%TF.CreationDate,2026-06-17T18:00:27-04:00*%
%TF.ProjectId,Kicad,4b696361-642e-46b6-9963-61645f706362,rev?*%
%TF.SameCoordinates,Original*%
%TF.FileFunction,Copper,L2,Inr*%
%TF.FilePolarity,Positive*%
%FSLAX46Y46*%
G04 Gerber Fmt 4.6, Leading zero omitted, Abs format (unit mm)*
G04 Created by KiCad (PCBNEW 10.0.1) date 2026-06-17 18:00:27*
%MOMM*%
%LPD*%
G01*
G04 APERTURE LIST*
G04 Aperture macros list*
%AMRoundRect*
0 Rectangle with rounded corners*
0 $1 Rounding radius*
0 $2 $3 $4 $5 $6 $7 $8 $9 X,Y pos of 4 corners*
0 Add a 4 corners polygon primitive as box body*
4,1,4,$2,$3,$4,$5,$6,$7,$8,$9,$2,$3,0*
0 Add four circle primitives for the rounded corners*
1,1,$1+$1,$2,$3*
1,1,$1+$1,$4,$5*
1,1,$1+$1,$6,$7*
1,1,$1+$1,$8,$9*
0 Add four rect primitives between the rounded corners*
20,1,$1+$1,$2,$3,$4,$5,0*
20,1,$1+$1,$4,$5,$6,$7,0*
20,1,$1+$1,$6,$7,$8,$9,0*
20,1,$1+$1,$8,$9,$2,$3,0*%
G04 Aperture macros list end*
%TA.AperFunction,ComponentPad*%
%ADD10O,0.800000X1.400000*%
%TD*%
%TA.AperFunction,ComponentPad*%
%ADD11R,1.700000X1.700000*%
%TD*%
%TA.AperFunction,ComponentPad*%
%ADD12C,1.700000*%
%TD*%
%TA.AperFunction,ComponentPad*%
%ADD13R,1.500000X1.500000*%
%TD*%
%TA.AperFunction,ComponentPad*%
%ADD14C,1.500000*%
%TD*%
%TA.AperFunction,HeatsinkPad*%
%ADD15C,0.600000*%
%TD*%
%TA.AperFunction,ComponentPad*%
%ADD16RoundRect,0.250000X0.275000X0.600000X-0.275000X0.600000X-0.275000X-0.600000X0.275000X-0.600000X0*%
%TD*%
%TA.AperFunction,ComponentPad*%
%ADD17O,1.050000X1.700000*%
%TD*%
%TA.AperFunction,ViaPad*%
%ADD18C,0.600000*%
%TD*%
%TA.AperFunction,Conductor*%
%ADD19C,0.200000*%
%TD*%
G04 APERTURE END LIST*
D10*
%TO.N,/GND*%
%TO.C,J1*%
X158000000Y-83340000D03*
X157640000Y-77390000D03*
X149380000Y-77390000D03*
X149020000Y-83340000D03*
%TD*%
D11*
%TO.N,/OROUT*%
%TO.C,J4*%
X130500000Y-34800000D03*
D12*
%TO.N,/GND*%
X130500000Y-37340000D03*
X130500000Y-39880000D03*
%TO.N,/VCC0*%
X130500000Y-42420000D03*
%TO.N,/RJ43_P8*%
X130500000Y-44960000D03*
%TO.N,/RJ43_P7*%
X130500000Y-47500000D03*
%TO.N,/BOOT*%
X130500000Y-50040000D03*
%TO.N,/IO1*%
X130500000Y-52580000D03*
%TO.N,/IO2*%
X130500000Y-55120000D03*
%TO.N,/IO3*%
X130500000Y-57660000D03*
%TO.N,/IO4*%
X130500000Y-60200000D03*
%TO.N,/IO5*%
X130500000Y-62740000D03*
%TO.N,/IO6*%
X130500000Y-65280000D03*
%TO.N,/IO7*%
X130500000Y-67820000D03*
%TO.N,/IO8*%
X130500000Y-70360000D03*
%TO.N,/IO9*%
X130500000Y-72900000D03*
%TO.N,/CS_BUS_A*%
X130500000Y-75440000D03*
%TO.N,/MOSI_BUS_A*%
X130500000Y-77980000D03*
%TO.N,/SCK_BUS_A*%
X130500000Y-80520000D03*
%TO.N,/MISO_BUS_A*%
X130500000Y-83060000D03*
%TD*%
D10*
%TO.N,/GND*%
%TO.C,J2*%
X160850000Y-83340000D03*
X161210000Y-77390000D03*
X169470000Y-77390000D03*
X169830000Y-83340000D03*
%TD*%
D13*
%TO.N,/CS_BUS_A*%
%TO.C,J6*%
X183000000Y-72000000D03*
D14*
%TO.N,/MISO_BUS_A*%
X184270000Y-69460000D03*
%TO.N,/SCK_BUS_A*%
X185540000Y-72000000D03*
%TO.N,/MOSI_BUS_A*%
X186810000Y-69460000D03*
%TO.N,/GND*%
X188080000Y-72000000D03*
%TO.N,/VCC0*%
X189350000Y-69460000D03*
%TO.N,/RJ43_P7*%
X190620000Y-72000000D03*
%TO.N,/RJ43_P8*%
X191890000Y-69460000D03*
%TD*%
D15*
%TO.N,/GND*%
%TO.C,U1*%
X161500000Y-44750000D03*
X161500000Y-46250000D03*
X162250000Y-44000000D03*
X162250000Y-45500000D03*
X162250000Y-47000000D03*
X163000000Y-44750000D03*
X163000000Y-46250000D03*
X163750000Y-44000000D03*
X163750000Y-45500000D03*
X163750000Y-47000000D03*
X164500000Y-44750000D03*
X164500000Y-46250000D03*
%TD*%
D16*
%TO.N,/DTR_A*%
%TO.C,Q1*%
X173960000Y-68000000D03*
D17*
%TO.N,Net-(Q1-B)*%
X175230000Y-68000000D03*
%TO.N,/BOOT*%
X176500000Y-68000000D03*
%TD*%
D16*
%TO.N,/RTS_A*%
%TO.C,Q2*%
X174960000Y-72500000D03*
D17*
%TO.N,Net-(Q2-B)*%
X176230000Y-72500000D03*
%TO.N,/ESP32_AUTORST*%
X177500000Y-72500000D03*
%TD*%
D11*
%TO.N,/IO14*%
%TO.C,J3*%
X125000000Y-34760000D03*
D12*
%TO.N,/IO15*%
X125000000Y-37300000D03*
%TO.N,/IO16*%
X125000000Y-39840000D03*
%TO.N,/IO17*%
X125000000Y-42380000D03*
%TO.N,/IO18*%
X125000000Y-44920000D03*
%TO.N,/NATIVE_D-*%
X125000000Y-47460000D03*
%TO.N,/NATIVE_D+*%
X125000000Y-50000000D03*
%TO.N,/IO21*%
X125000000Y-52540000D03*
%TO.N,/IO38*%
X125000000Y-55080000D03*
%TO.N,/IO39*%
X125000000Y-57620000D03*
%TO.N,/IO40*%
X125000000Y-60160000D03*
%TO.N,/IO41*%
X125000000Y-62700000D03*
%TO.N,/IO42*%
X125000000Y-65240000D03*
%TO.N,/ESP32_TXD*%
X125000000Y-67780000D03*
%TO.N,/ESP32_RXD*%
X125000000Y-70320000D03*
%TO.N,/IO45*%
X125000000Y-72860000D03*
%TO.N,/IO46*%
X125000000Y-75400000D03*
%TO.N,/IO47*%
X125000000Y-77940000D03*
%TO.N,/IO48*%
X125000000Y-80480000D03*
%TO.N,/VIN*%
X125000000Y-83020000D03*
%TD*%
D18*
%TO.N,/NATIVE_D+*%
X159500000Y-78500000D03*
X165190000Y-74700000D03*
X158500000Y-56500000D03*
%TO.N,/NATIVE_D-*%
X166500000Y-54000000D03*
X165000000Y-78500000D03*
%TO.N,Net-(J2-CC1)*%
X164638851Y-71950000D03*
%TO.N,/GND*%
X157640000Y-72550000D03*
%TO.N,/SERIAL_D+*%
X154600000Y-79500000D03*
%TO.N,Net-(J1-CC1)*%
X152836536Y-74699999D03*
%TO.N,/SERIAL_D-*%
X153500000Y-80000000D03*
%TO.N,Net-(J1-CC2)*%
X155000000Y-78500000D03*
%TO.N,/VCC0*%
X158000000Y-63000000D03*
X160000000Y-60500000D03*
X148000000Y-42000000D03*
%TO.N,Net-(U8-VDD)*%
X173450000Y-65000000D03*
X167805735Y-62694265D03*
X168058211Y-61333684D03*
X167000000Y-64000000D03*
%TO.N,/GND*%
X159000000Y-66500000D03*
X176500000Y-61000000D03*
X174000000Y-60500000D03*
X156000000Y-62500000D03*
X183000000Y-42500000D03*
%TO.N,/DTR_A*%
X155275735Y-62124265D03*
%TO.N,Net-(J1-CC1)*%
X154745586Y-69790000D03*
X152600000Y-69500000D03*
%TO.N,/OROUT*%
X143325735Y-56685735D03*
%TO.N,/BOOT*%
X174924265Y-58924265D03*
X140500000Y-54300000D03*
X175000000Y-56500000D03*
%TO.N,/IO1*%
X173110000Y-41420000D03*
%TO.N,/IO2*%
X173110000Y-42690000D03*
%TO.N,/IO3*%
X157600000Y-57800000D03*
%TO.N,/IO4*%
X155610000Y-43960000D03*
%TO.N,/IO5*%
X155610000Y-45230000D03*
%TO.N,/IO6*%
X155610000Y-46500000D03*
%TO.N,/IO7*%
X155610000Y-47770000D03*
%TO.N,/IO8*%
X157500000Y-54400000D03*
%TO.N,/IO9*%
X159915000Y-57800000D03*
%TO.N,/CS_BUS_A*%
X153500000Y-55000000D03*
X161500000Y-56500000D03*
%TO.N,/MOSI_BUS_A*%
X162300003Y-56500000D03*
X148500000Y-66500000D03*
X153960000Y-56000000D03*
%TO.N,/SCK_BUS_A*%
X154000000Y-53500000D03*
X151350000Y-66500000D03*
X163831765Y-58016765D03*
%TO.N,/MISO_BUS_A*%
X164500000Y-56500000D03*
X155400000Y-58400000D03*
%TO.N,/ESP32_AUTORST*%
X157000000Y-42500000D03*
X178000000Y-70500000D03*
%TO.N,/ESP32_TXD*%
X175000000Y-43400000D03*
%TO.N,/SERIAL_D+*%
X153500000Y-73500000D03*
X153607958Y-67932129D03*
X152500000Y-68500000D03*
%TO.N,/SERIAL_D-*%
X154000000Y-69500000D03*
X151432376Y-73190000D03*
X154462500Y-68000000D03*
%TO.N,/ESP32_RXD*%
X173110000Y-45230000D03*
%TO.N,/RTS_A*%
X153418015Y-62225000D03*
%TO.N,Net-(J1-CC2)*%
X155000000Y-73500000D03*
X160000000Y-66500000D03*
%TO.N,Net-(J2-CC1)*%
X164690000Y-69500000D03*
X168612606Y-73150000D03*
%TO.N,/NATIVE_D+*%
X155400000Y-56500000D03*
%TO.N,/NATIVE_D-*%
X157000000Y-56000000D03*
%TO.N,/IO15*%
X157000000Y-49500000D03*
%TO.N,/IO16*%
X157000000Y-50500000D03*
%TO.N,/IO17*%
X153000000Y-52000000D03*
%TO.N,/IO18*%
X154000000Y-52500000D03*
%TO.N,/IO46*%
X158645000Y-57800000D03*
%TO.N,/IO14*%
X166000000Y-55000000D03*
%TO.N,/IO21*%
X167294098Y-58150902D03*
%TO.N,/IO47*%
X168455158Y-56989843D03*
%TO.N,/IO48*%
X169472500Y-55972500D03*
%TO.N,/IO45*%
X171345000Y-57910000D03*
%TO.N,/IO38*%
X173110000Y-51580000D03*
%TO.N,/IO39*%
X173110000Y-50310000D03*
%TO.N,/IO40*%
X173110000Y-49040000D03*
%TO.N,/IO41*%
X173110000Y-47770000D03*
%TO.N,/IO42*%
X173110000Y-46500000D03*
%TD*%
%TO.N,/GND*%
D19*
X169470000Y-72550000D02*
X161210000Y-72550000D01*
X156000000Y-54750000D02*
X163750000Y-47000000D01*
X176500000Y-61000000D02*
X171000000Y-66500000D01*
X171000000Y-71020000D02*
X169470000Y-72550000D01*
X183000000Y-42500000D02*
X181500000Y-44000000D01*
X159000000Y-66500000D02*
X159000000Y-71190000D01*
X156000000Y-62500000D02*
X156000000Y-54750000D01*
X159000000Y-71190000D02*
X157640000Y-72550000D01*
X181500000Y-44000000D02*
X163750000Y-44000000D01*
X171000000Y-66500000D02*
X171000000Y-71020000D01*
%TO.N,/IO4*%
X126586346Y-60200000D02*
X125476346Y-61310000D01*
X123450000Y-60236346D02*
X123450000Y-34010000D01*
X123850000Y-33610000D02*
X131610000Y-33610000D01*
X131610000Y-33610000D02*
X141960000Y-43960000D01*
X124523654Y-61310000D02*
X123450000Y-60236346D01*
X125476346Y-61310000D02*
X124523654Y-61310000D01*
X141960000Y-43960000D02*
X155610000Y-43960000D01*
X130500000Y-60200000D02*
X126586346Y-60200000D01*
X123450000Y-34010000D02*
X123850000Y-33610000D01*
%TO.N,/MOSI_BUS_A*%
X125476346Y-71470000D02*
X124523654Y-71470000D01*
X125476346Y-69170000D02*
X128146346Y-66500000D01*
X126150000Y-73630000D02*
X126150000Y-72143654D01*
X123850000Y-70796346D02*
X123850000Y-69843654D01*
X128146346Y-66500000D02*
X148500000Y-66500000D01*
X126150000Y-72143654D02*
X125476346Y-71470000D01*
X123850000Y-69843654D02*
X124523654Y-69170000D01*
X124523654Y-71470000D02*
X123850000Y-70796346D01*
X124523654Y-69170000D02*
X125476346Y-69170000D01*
X130500000Y-77980000D02*
X126150000Y-73630000D01*
%TO.N,/SCK_BUS_A*%
X151350000Y-68650000D02*
X151350000Y-66500000D01*
X139480000Y-80520000D02*
X151350000Y-68650000D01*
X130500000Y-80520000D02*
X139480000Y-80520000D01*
%TO.N,/MISO_BUS_A*%
X148419949Y-83060000D02*
X165179949Y-66300000D01*
X173358529Y-44630000D02*
X172861471Y-44630000D01*
X172861471Y-44630000D02*
X164500000Y-52991471D01*
X166614215Y-66300000D02*
X176000000Y-56914214D01*
X176000000Y-47271471D02*
X173358529Y-44630000D01*
X165179949Y-66300000D02*
X166614215Y-66300000D01*
X176000000Y-56914214D02*
X176000000Y-47271471D01*
X130500000Y-83060000D02*
X148419949Y-83060000D01*
X164500000Y-52991471D02*
X164500000Y-56500000D01*
%TO.N,/SERIAL_D+*%
X153040087Y-68500000D02*
X153607958Y-67932129D01*
X152500000Y-68500000D02*
X153040087Y-68500000D01*
%TO.N,/SERIAL_D-*%
X154000000Y-70622376D02*
X151432376Y-73190000D01*
X154000000Y-69500000D02*
X154000000Y-70622376D01*
X154462500Y-69037500D02*
X154000000Y-69500000D01*
X154462500Y-68000000D02*
X154462500Y-69037500D01*
%TO.N,/ESP32_RXD*%
X125000000Y-70320000D02*
X126350000Y-68970000D01*
X126350000Y-68970000D02*
X147530000Y-68970000D01*
X175600000Y-56748529D02*
X175600000Y-47720000D01*
X150600000Y-65900000D02*
X166448529Y-65900000D01*
X166448529Y-65900000D02*
X175600000Y-56748529D01*
X147530000Y-68970000D02*
X150600000Y-65900000D01*
X175600000Y-47720000D02*
X173110000Y-45230000D01*
%TO.N,/NATIVE_D+*%
X123850000Y-36823654D02*
X124523654Y-36150000D01*
X130936346Y-36150000D02*
X143686346Y-48900000D01*
X123850000Y-48850000D02*
X123850000Y-36823654D01*
X155400000Y-52948529D02*
X155400000Y-56500000D01*
X143686346Y-48900000D02*
X157248529Y-48900000D01*
X124523654Y-36150000D02*
X130936346Y-36150000D01*
X157600000Y-50748529D02*
X155400000Y-52948529D01*
X157248529Y-48900000D02*
X157600000Y-49251471D01*
X157600000Y-49251471D02*
X157600000Y-50748529D01*
X125000000Y-50000000D02*
X123850000Y-48850000D01*
%TO.N,/NATIVE_D-*%
X156248529Y-63100000D02*
X157000000Y-62348529D01*
X145426346Y-63100000D02*
X156248529Y-63100000D01*
X125000000Y-47460000D02*
X126190000Y-48650000D01*
X157000000Y-62348529D02*
X157000000Y-56000000D01*
X126190000Y-48650000D02*
X130976346Y-48650000D01*
X130976346Y-48650000D02*
X145426346Y-63100000D01*
%TO.N,/IO15*%
X141802941Y-49500000D02*
X157000000Y-49500000D01*
X131004363Y-38701422D02*
X141802941Y-49500000D01*
X126401422Y-38701422D02*
X131004363Y-38701422D01*
X125000000Y-37300000D02*
X126401422Y-38701422D01*
%TO.N,/IO16*%
X130976346Y-41030000D02*
X140446346Y-50500000D01*
X126190000Y-41030000D02*
X130976346Y-41030000D01*
X140446346Y-50500000D02*
X157000000Y-50500000D01*
X125000000Y-39840000D02*
X126190000Y-41030000D01*
%TO.N,/IO18*%
X135730660Y-46350000D02*
X140280661Y-50900000D01*
X125000000Y-44920000D02*
X126430000Y-46350000D01*
X126430000Y-46350000D02*
X135730660Y-46350000D01*
X140280661Y-50900000D02*
X152900000Y-50900000D01*
X154000000Y-52000000D02*
X154000000Y-52500000D01*
X152900000Y-50900000D02*
X154000000Y-52000000D01*
%TO.N,/IO21*%
X133190660Y-51430000D02*
X145260661Y-63500000D01*
X156414215Y-63500000D02*
X157819950Y-62094265D01*
X145260661Y-63500000D02*
X156414215Y-63500000D01*
X126110000Y-51430000D02*
X133190660Y-51430000D01*
X125000000Y-52540000D02*
X126110000Y-51430000D01*
X163350735Y-62094265D02*
X167294098Y-58150902D01*
X157819950Y-62094265D02*
X163350735Y-62094265D01*
%TO.N,/IO38*%
X162393529Y-63900000D02*
X173110000Y-53183529D01*
X126350000Y-53730000D02*
X134924974Y-53730000D01*
X145094976Y-63900000D02*
X162393529Y-63900000D01*
X125000000Y-55080000D02*
X126350000Y-53730000D01*
X134924974Y-53730000D02*
X145094976Y-63900000D01*
X173110000Y-53183529D02*
X173110000Y-51580000D01*
%TO.N,/IO39*%
X126350000Y-56270000D02*
X136899291Y-56270000D01*
X136899291Y-56270000D02*
X144929291Y-64300000D01*
X173710000Y-53149215D02*
X173710000Y-50910000D01*
X173710000Y-50910000D02*
X173110000Y-50310000D01*
X162559215Y-64300000D02*
X173710000Y-53149215D01*
X144929291Y-64300000D02*
X162559215Y-64300000D01*
X125000000Y-57620000D02*
X126350000Y-56270000D01*
%TO.N,/IO40*%
X134353605Y-59050000D02*
X140003605Y-64700000D01*
X125000000Y-60160000D02*
X126110000Y-59050000D01*
X174110000Y-50040000D02*
X173110000Y-49040000D01*
X174110000Y-53314900D02*
X174110000Y-50040000D01*
X140003605Y-64700000D02*
X162724901Y-64700000D01*
X162724901Y-64700000D02*
X174110000Y-53314900D01*
X126110000Y-59050000D02*
X134353605Y-59050000D01*
%TO.N,/IO41*%
X136087920Y-61350000D02*
X139837920Y-65100000D01*
X174510000Y-53480585D02*
X174510000Y-49170000D01*
X125000000Y-62700000D02*
X126350000Y-61350000D01*
X174510000Y-49170000D02*
X173110000Y-47770000D01*
X139837920Y-65100000D02*
X162890587Y-65100000D01*
X162890587Y-65100000D02*
X174510000Y-53480585D01*
X126350000Y-61350000D02*
X136087920Y-61350000D01*
%TO.N,/IO42*%
X174910000Y-48300000D02*
X173110000Y-46500000D01*
X125000000Y-65240000D02*
X126350000Y-63890000D01*
X174910000Y-55330424D02*
X174910000Y-48300000D01*
X163056273Y-65500000D02*
X166622589Y-61933684D01*
X133782234Y-63890000D02*
X135392234Y-65500000D01*
X168306740Y-61933684D02*
X174910000Y-55330424D01*
X135392234Y-65500000D02*
X163056273Y-65500000D01*
X166622589Y-61933684D02*
X168306740Y-61933684D01*
X126350000Y-63890000D02*
X133782234Y-63890000D01*
%TD*%
M02*
