%TF.GenerationSoftware,KiCad,Pcbnew,10.0.1*%
%TF.CreationDate,2026-06-17T18:00:27-04:00*%
%TF.ProjectId,Kicad,4b696361-642e-46b6-9963-61645f706362,rev?*%
%TF.SameCoordinates,Original*%
%TF.FileFunction,Paste,Top*%
%TF.FilePolarity,Positive*%
%FSLAX46Y46*%
G04 Gerber Fmt 4.6, Leading zero omitted, Abs format (unit mm)*
G04 Created by KiCad (PCBNEW 10.0.1) date 2026-06-17 18:00:27*
%MOMM*%
%LPD*%
G01*
G04 APERTURE LIST*
G04 Aperture macros list*
%AMRoundRect*
0 Rectangle with rounded corners*
0 $1 Rounding radius*
0 $2 $3 $4 $5 $6 $7 $8 $9 X,Y pos of 4 corners*
0 Add a 4 corners polygon primitive as box body*
4,1,4,$2,$3,$4,$5,$6,$7,$8,$9,$2,$3,0*
0 Add four circle primitives for the rounded corners*
1,1,$1+$1,$2,$3*
1,1,$1+$1,$4,$5*
1,1,$1+$1,$6,$7*
1,1,$1+$1,$8,$9*
0 Add four rect primitives between the rounded corners*
20,1,$1+$1,$2,$3,$4,$5,0*
20,1,$1+$1,$4,$5,$6,$7,0*
20,1,$1+$1,$6,$7,$8,$9,0*
20,1,$1+$1,$8,$9,$2,$3,0*%
G04 Aperture macros list end*
%ADD10RoundRect,0.075000X-0.075000X-0.275000X0.075000X-0.275000X0.075000X0.275000X-0.075000X0.275000X0*%
%ADD11RoundRect,0.250000X-0.250000X-0.475000X0.250000X-0.475000X0.250000X0.475000X-0.250000X0.475000X0*%
%ADD12RoundRect,0.237500X-0.250000X-0.237500X0.250000X-0.237500X0.250000X0.237500X-0.250000X0.237500X0*%
%ADD13RoundRect,0.237500X0.237500X-0.250000X0.237500X0.250000X-0.237500X0.250000X-0.237500X-0.250000X0*%
%ADD14RoundRect,0.225000X-0.225000X-0.375000X0.225000X-0.375000X0.225000X0.375000X-0.225000X0.375000X0*%
%ADD15RoundRect,0.050000X-0.225000X-0.050000X0.225000X-0.050000X0.225000X0.050000X-0.225000X0.050000X0*%
%ADD16RoundRect,0.050000X0.050000X-0.225000X0.050000X0.225000X-0.050000X0.225000X-0.050000X-0.225000X0*%
%ADD17RoundRect,0.237500X-0.237500X0.250000X-0.237500X-0.250000X0.237500X-0.250000X0.237500X0.250000X0*%
%ADD18RoundRect,0.250000X-0.255000X-0.255000X0.255000X-0.255000X0.255000X0.255000X-0.255000X0.255000X0*%
%ADD19RoundRect,0.062500X-0.350000X-0.062500X0.350000X-0.062500X0.350000X0.062500X-0.350000X0.062500X0*%
%ADD20RoundRect,0.062500X-0.062500X-0.350000X0.062500X-0.350000X0.062500X0.350000X-0.062500X0.350000X0*%
%ADD21RoundRect,0.250000X-0.275000X-0.350000X0.275000X-0.350000X0.275000X0.350000X-0.275000X0.350000X0*%
%ADD22R,1.500000X0.900000*%
%ADD23R,0.900000X1.500000*%
%ADD24R,1.000000X1.000000*%
%ADD25RoundRect,0.125000X-0.125000X-0.137500X0.125000X-0.137500X0.125000X0.137500X-0.125000X0.137500X0*%
%ADD26RoundRect,0.375000X-0.625000X-0.375000X0.625000X-0.375000X0.625000X0.375000X-0.625000X0.375000X0*%
%ADD27RoundRect,0.500000X-0.500000X-1.400000X0.500000X-1.400000X0.500000X1.400000X-0.500000X1.400000X0*%
%ADD28RoundRect,0.237500X0.250000X0.237500X-0.250000X0.237500X-0.250000X-0.237500X0.250000X-0.237500X0*%
%ADD29RoundRect,0.250000X-0.475000X-0.250000X0.475000X-0.250000X0.475000X0.250000X-0.475000X0.250000X0*%
G04 APERTURE END LIST*
D10*
%TO.C,J1*%
X150510000Y-77180000D03*
X151010000Y-77180000D03*
X151510000Y-77180000D03*
X152010000Y-77180000D03*
X152510000Y-77180000D03*
X153010000Y-77180000D03*
X153510000Y-77180000D03*
X154010000Y-77180000D03*
X154510000Y-77180000D03*
X155010000Y-77180000D03*
X155510000Y-77180000D03*
X156010000Y-77180000D03*
X156260000Y-75480000D03*
X155760000Y-75480000D03*
X155260000Y-75480000D03*
X154760000Y-75480000D03*
X154260000Y-75480000D03*
X153760000Y-75480000D03*
X153260000Y-75480000D03*
X152760000Y-75480000D03*
X152260000Y-75480000D03*
X151760000Y-75480000D03*
X151260000Y-75480000D03*
X150760000Y-75480000D03*
%TD*%
D11*
%TO.C,C9*%
X161550000Y-62000000D03*
X163450000Y-62000000D03*
%TD*%
D12*
%TO.C,R8*%
X138000000Y-59500000D03*
X139825000Y-59500000D03*
%TD*%
D11*
%TO.C,C8*%
X143600000Y-53500000D03*
X145500000Y-53500000D03*
%TD*%
D12*
%TO.C,R5*%
X170087500Y-69000000D03*
X171912500Y-69000000D03*
%TD*%
D13*
%TO.C,R1*%
X157087500Y-69412500D03*
X157087500Y-67587500D03*
%TD*%
D14*
%TO.C,D1*%
X143700000Y-57500000D03*
X147000000Y-57500000D03*
%TD*%
D15*
%TO.C,U8*%
X169000000Y-62000000D03*
X169000000Y-62400000D03*
X169000000Y-62800000D03*
X169000000Y-63200000D03*
X169000000Y-63600000D03*
X169000000Y-64000000D03*
D16*
X169500000Y-64500000D03*
X169900000Y-64500000D03*
X170300000Y-64500000D03*
X170700000Y-64500000D03*
X171100000Y-64500000D03*
X171500000Y-64500000D03*
D15*
X172000000Y-64000000D03*
X172000000Y-63600000D03*
X172000000Y-63200000D03*
X172000000Y-62800000D03*
X172000000Y-62400000D03*
X172000000Y-62000000D03*
D16*
X171500000Y-61500000D03*
X171100000Y-61500000D03*
X170700000Y-61500000D03*
X170300000Y-61500000D03*
X169900000Y-61500000D03*
X169500000Y-61500000D03*
%TD*%
D17*
%TO.C,R3*%
X153500000Y-42587500D03*
X153500000Y-44412500D03*
%TD*%
D11*
%TO.C,C11*%
X174050000Y-62500000D03*
X175950000Y-62500000D03*
%TD*%
D18*
%TO.C,U9*%
X153437500Y-64375000D03*
X153437500Y-65625000D03*
X154687500Y-64375000D03*
X154687500Y-65625000D03*
D19*
X152125000Y-64000000D03*
X152125000Y-64500000D03*
X152125000Y-65000000D03*
X152125000Y-65500000D03*
X152125000Y-66000000D03*
D20*
X153062500Y-66937500D03*
X153562500Y-66937500D03*
X154062500Y-66937500D03*
X154562500Y-66937500D03*
X155062500Y-66937500D03*
D19*
X156000000Y-66000000D03*
X156000000Y-65500000D03*
X156000000Y-65000000D03*
X156000000Y-64500000D03*
X156000000Y-64000000D03*
D20*
X155062500Y-63062500D03*
X154562500Y-63062500D03*
X154062500Y-63062500D03*
X153562500Y-63062500D03*
X153062500Y-63062500D03*
%TD*%
D21*
%TO.C,FB2*%
X148700000Y-68500000D03*
X151000000Y-68500000D03*
%TD*%
D13*
%TO.C,R2*%
X159500000Y-65412500D03*
X159500000Y-63587500D03*
%TD*%
D17*
%TO.C,R10*%
X172587500Y-74087500D03*
X172587500Y-75912500D03*
%TD*%
D14*
%TO.C,D4*%
X146350000Y-61500000D03*
X149650000Y-61500000D03*
%TD*%
D12*
%TO.C,R6*%
X165675000Y-67000000D03*
X167500000Y-67000000D03*
%TD*%
D10*
%TO.C,J2*%
X162590000Y-75480000D03*
X163090000Y-75480000D03*
X163590000Y-75480000D03*
X164090000Y-75480000D03*
X164590000Y-75480000D03*
X165090000Y-75480000D03*
X165590000Y-75480000D03*
X166090000Y-75480000D03*
X166590000Y-75480000D03*
X167090000Y-75480000D03*
X167590000Y-75480000D03*
X168090000Y-75480000D03*
X167840000Y-77180000D03*
X167340000Y-77180000D03*
X166840000Y-77180000D03*
X166340000Y-77180000D03*
X165840000Y-77180000D03*
X165340000Y-77180000D03*
X164840000Y-77180000D03*
X164340000Y-77180000D03*
X163840000Y-77180000D03*
X163340000Y-77180000D03*
X162840000Y-77180000D03*
X162340000Y-77180000D03*
%TD*%
D22*
%TO.C,U1*%
X155610000Y-40150000D03*
X155610000Y-41420000D03*
X155610000Y-42690000D03*
X155610000Y-43960000D03*
X155610000Y-45230000D03*
X155610000Y-46500000D03*
X155610000Y-47770000D03*
X155610000Y-49040000D03*
X155610000Y-50310000D03*
X155610000Y-51580000D03*
X155610000Y-52850000D03*
X155610000Y-54120000D03*
X155610000Y-55390000D03*
X155610000Y-56660000D03*
D23*
X157375000Y-57910000D03*
X158645000Y-57910000D03*
X159915000Y-57910000D03*
X161185000Y-57910000D03*
X162455000Y-57910000D03*
X163725000Y-57910000D03*
X164995000Y-57910000D03*
X166265000Y-57910000D03*
X167535000Y-57910000D03*
X168805000Y-57910000D03*
X170075000Y-57910000D03*
X171345000Y-57910000D03*
D22*
X173110000Y-56660000D03*
X173110000Y-55390000D03*
X173110000Y-54120000D03*
X173110000Y-52850000D03*
X173110000Y-51580000D03*
X173110000Y-50310000D03*
X173110000Y-49040000D03*
X173110000Y-47770000D03*
X173110000Y-46500000D03*
X173110000Y-45230000D03*
X173110000Y-43960000D03*
X173110000Y-42690000D03*
X173110000Y-41420000D03*
X173110000Y-40150000D03*
D24*
X161500000Y-44000000D03*
X161500000Y-45500000D03*
X161500000Y-47000000D03*
X163000000Y-44000000D03*
X163000000Y-45500000D03*
X163000000Y-47000000D03*
X164500000Y-44000000D03*
X164500000Y-45500000D03*
X164500000Y-47000000D03*
%TD*%
D25*
%TO.C,U7*%
X149600000Y-53125000D03*
X150400000Y-53125000D03*
X151200000Y-53125000D03*
X152000000Y-53125000D03*
X152000000Y-55500000D03*
X151200000Y-55500000D03*
X150400000Y-55500000D03*
X149600000Y-55500000D03*
%TD*%
D26*
%TO.C,U3*%
X184200000Y-44200000D03*
X184200000Y-46500000D03*
D27*
X190500000Y-46500000D03*
D26*
X184200000Y-48800000D03*
%TD*%
D11*
%TO.C,C10*%
X165100000Y-60500000D03*
X167000000Y-60500000D03*
%TD*%
D28*
%TO.C,R9*%
X179912500Y-57500000D03*
X178087500Y-57500000D03*
%TD*%
D29*
%TO.C,SW1*%
X136350000Y-44300000D03*
X141500000Y-44300000D03*
X136350000Y-46000000D03*
X141500000Y-46000000D03*
%TD*%
%TO.C,SW2*%
X135350000Y-54300000D03*
X140500000Y-54300000D03*
X135350000Y-56000000D03*
X140500000Y-56000000D03*
%TD*%
D14*
%TO.C,D3*%
X161200000Y-64500000D03*
X164500000Y-64500000D03*
%TD*%
D12*
%TO.C,R11*%
X174675000Y-76500000D03*
X176500000Y-76500000D03*
%TD*%
D11*
%TO.C,C4*%
X151550000Y-61000000D03*
X153450000Y-61000000D03*
%TD*%
D13*
%TO.C,R7*%
X176000000Y-55412500D03*
X176000000Y-53587500D03*
%TD*%
D12*
%TO.C,R4*%
X142175000Y-41000000D03*
X144000000Y-41000000D03*
%TD*%
D11*
%TO.C,C3*%
X149550000Y-42000000D03*
X151450000Y-42000000D03*
%TD*%
D14*
%TO.C,D2*%
X143350000Y-66000000D03*
X146650000Y-66000000D03*
%TD*%
D21*
%TO.C,FB1*%
X161200000Y-68000000D03*
X163500000Y-68000000D03*
%TD*%
D11*
%TO.C,C7*%
X145600000Y-46000000D03*
X147500000Y-46000000D03*
%TD*%
M02*
