M48
; DRILL file KiCad 10.0.4 date 2026-07-05T11:09:16
; FORMAT={-:-/ absolute / metric / decimal}
; #@! TF.CreationDate,2026-07-05T11:09:16-04:00
; #@! TF.GenerationSoftware,Kicad,Pcbnew,10.0.4
; #@! TF.FileFunction,Plated,1,2,PTH
FMAT,2
METRIC
; #@! TA.AperFunction,Plated,PTH,ComponentDrill
T1C0.200
; #@! TA.AperFunction,Plated,PTH,ComponentDrill
T2C0.250
; #@! TA.AperFunction,Plated,PTH,ViaDrill
T3C0.300
; #@! TA.AperFunction,Plated,PTH,ComponentDrill
T4C0.550
; #@! TA.AperFunction,Plated,PTH,ComponentDrill
T5C0.950
%
G90
G05
T1
X180.2Y-68.45
X180.2Y-69.95
X180.95Y-67.7
X180.95Y-69.2
X180.95Y-70.7
X181.7Y-68.45
X181.7Y-69.95
X182.45Y-67.7
X182.45Y-69.2
X182.45Y-70.7
X183.2Y-68.45
X183.2Y-69.95
T3
X172.85Y-71.7
X174.31Y-66.39
X175.55Y-84.95
X176.95Y-88.8
X178.275Y-86.56
X179.125Y-86.56
X180.4Y-88.85
X183.8Y-86.95
X184.449Y-84.349
X185.051Y-84.951
X185.1Y-87.543
X186.65Y-87.927
X187.75Y-94.65
X187.8Y-85.3
X189.607Y-92.707
X191.3Y-92.65
X192.665Y-86.65
X193.633Y-87.927
T4
X173.955Y-90.47
X183.145Y-90.47
T5
X170.15Y-71.9
X170.15Y-74.4
X170.15Y-76.9
X170.15Y-79.4
X170.15Y-81.9
X170.15Y-84.4
X170.15Y-86.9
X170.15Y-89.4
T2
G00X173.955Y-92.7
M15
G01X173.955Y-94.2
M16
G05
G00X183.145Y-92.7
M15
G01X183.145Y-94.2
M16
G05
M30
